<svg width="24" height="24" viewBox="0 0 24 24" fill="none" xmlns="http://www.w3.org/2000/svg">
<circle cx="12" cy="12" r="10" fill="#FEDA2C"/>
<circle cx="12" cy="12" r="8" fill="#FBB630"/>
<path fill-rule="evenodd" clip-rule="evenodd" d="M11.8646 6.03256L11.7687 6.0594L11.7068 6.12683L11.6449 6.19427L10.8162 7.94199L9.98759 9.68974L8.15933 9.96869L6.33106 10.2477L6.27392 10.267L6.21679 10.2863L6.12635 10.3915L6.03591 10.4967L6.01794 10.5972L6 10.6977L6.02773 10.8059L6.05543 10.914L7.1008 11.9873L8.14617 13.0605L8.45314 13.3789L8.7601 13.6973L8.44556 15.6044L8.131 17.5114L8.14323 17.6196L8.15549 17.7278L8.20586 17.7992L8.25624 17.8707L8.34589 17.9354L8.43554 18L8.58022 17.9885L8.72491 17.9769L10.3629 17.0711L12.0009 16.1652L13.658 17.0802L15.3151 17.9951H15.4425H15.5698L15.6568 17.9329L15.7438 17.8707L15.7941 17.7992L15.8445 17.7278L15.857 17.6196L15.8694 17.5114L15.5546 15.6044L15.2398 13.6973L15.5205 13.4067L15.8012 13.1161L16.8728 12.0153L17.9445 10.9144L17.9722 10.8061L18 10.6977L17.9819 10.5945L17.9639 10.4913L17.8558 10.3773L17.7479 10.2633L17.634 10.2432L17.52 10.2231L15.7662 9.95642L14.0124 9.68974L13.1838 7.94196L12.3551 6.19419L12.2938 6.12744L12.2324 6.06069L12.1177 6.03035L12.003 6L11.9818 6.00285L11.9605 6.00572L11.8646 6.03256Z" fill="#FEDA2C"/>
</svg>
