<svg width="12" height="12" viewBox="0 0 12 12" fill="none" xmlns="http://www.w3.org/2000/svg">
<g clip-path="url(#clip0_113_5327)">
<path d="M8 0H4C1.8 0 0 1.8 0 4V8C0 10.2 1.8 12 4 12H8C10.2 12 12 10.2 12 8V4C12 1.8 10.2 0 8 0ZM10 6.2L9.9 6.4L9.8 6.5L9.7 6.6H9.6L9.5 6.7H8.1H6.7V8.1V9.5L6.6 9.6V9.7L6.5 9.8L6.4 9.9H6.3L6.2 10H6H5.9H5.8H5.7H5.6H5.5V9.8L5.4 9.7L5.3 9.6V9.5V8.1V6.7H2.6H2.5H2.4H2.3H2.2V6.5L2.1 6.4V6.3V6.2V5.8L2.2 5.7L2.3 5.6L2.4 5.5L2.5 5.4H2.6L2.7 5.3H4.1H5.5V3.9V2.5L5.6 2.3L5.8 2.1H5.9H6H6.1H6.2L6 2H6.2L6.4 2.1L6.6 2.3L6.7 2.5V3.9V5.3H8.1H9.5L9.6 5.4H9.7L9.8 5.5L9.9 5.6L10 5.7V5.8V6.2Z" fill="#FBB630"/>
</g>
<defs>
<clipPath id="clip0_113_5327">
<rect width="12" height="12" fill="white"/>
</clipPath>
</defs>
</svg>
