<svg width="24" height="24" viewBox="0 0 24 24" fill="none" xmlns="http://www.w3.org/2000/svg">
<path d="M9.02677 4.03955L20.5349 12.5973C19.8926 13.4644 20.0719 14.6902 20.9391 15.3357L17.8257 19.5184C16.9585 18.8762 15.7328 19.0555 15.0905 19.9227L3.57918 11.3617C4.22467 10.4945 4.04211 9.26872 3.17493 8.62648L6.2883 4.44054C7.15548 5.08604 8.37801 4.90347 9.02677 4.03955Z" fill="#65BC6A"/>
<path d="M21.8454 13.5687C21.9889 13.6763 22.0182 13.8817 21.9106 14.0251L20.9391 15.3357C20.072 14.6902 19.8927 13.4644 20.5349 12.5972L21.8454 13.5687ZM17.8258 19.5183L16.8543 20.8289C16.7467 20.9723 16.5413 21.0017 16.3978 20.8941L15.0906 19.9226C15.7328 19.0554 16.9586 18.8761 17.8258 19.5183ZM13.8093 9.62401C15.1069 10.5923 15.3774 12.4309 14.4125 13.7317C13.4442 15.0325 11.6055 15.2998 10.308 14.3348C9.00725 13.3666 8.73666 11.5279 9.70164 10.2304C10.6699 8.92961 12.5086 8.65902 13.8093 9.62401Z" fill="#398F3E"/>
<path d="M10.6956 13.8109C10.754 13.8543 10.8224 13.8755 10.8899 13.8755C10.9897 13.8755 11.0878 13.8301 11.1517 13.7441L11.4285 13.3718C11.4507 13.375 11.4715 13.3812 11.494 13.3829C11.5178 13.3845 11.5416 13.3855 11.5651 13.3855C12.0727 13.3855 12.5027 12.9917 12.5402 12.4779C12.5526 12.3064 12.5196 12.1346 12.4447 11.9804C12.4104 11.91 12.3677 11.8438 12.3175 11.7835C12.2989 11.759 12.2771 11.7368 12.252 11.7183C12.1822 11.6661 12.1366 11.5901 12.1239 11.5041C12.1111 11.418 12.1327 11.3319 12.1848 11.2622C12.2367 11.1924 12.3129 11.1468 12.399 11.1341C12.4857 11.1217 12.5711 11.1432 12.6412 11.1953C12.6879 11.2299 12.7231 11.2746 12.7459 11.3271C12.7573 11.3535 12.7651 11.3815 12.7694 11.4095C12.7958 11.5879 12.962 11.7101 13.1394 11.6847C13.3174 11.6583 13.4406 11.493 13.4145 11.3147C13.4021 11.2302 13.3787 11.1478 13.3448 11.0692C13.3213 11.0147 13.2871 10.9665 13.2541 10.9176L13.4866 10.6049C13.5942 10.4605 13.5642 10.2564 13.4194 10.1489C13.2753 10.0416 13.0709 10.0713 12.9633 10.216L12.7335 10.5251C12.5959 10.4824 12.4505 10.4674 12.3045 10.4892C12.0459 10.5274 11.8177 10.6636 11.6619 10.8733C11.3496 11.2935 11.4252 11.8842 11.8262 12.2128C11.8386 12.2294 11.8494 12.2471 11.8585 12.2656C11.8836 12.3175 11.8944 12.3732 11.8901 12.4312C11.8771 12.6106 11.716 12.7462 11.5416 12.7328C11.4546 12.7266 11.3753 12.6868 11.3186 12.621C11.2616 12.5551 11.2335 12.471 11.2401 12.3843C11.2531 12.2047 11.1178 12.0485 10.9385 12.0355C10.752 12.0234 10.6027 12.1577 10.5897 12.337C10.5708 12.5975 10.6545 12.8498 10.8257 13.0474C10.8316 13.0542 10.8387 13.0588 10.8446 13.0653L10.6294 13.3548C10.5209 13.4996 10.5509 13.7037 10.6956 13.8109ZM3.57919 11.3616L12.6487 18.1067H12.6455L3.78132 15.2867C4.11059 14.2566 3.54007 13.1579 2.50989 12.8286L2.87176 11.6909L3.09018 10.9997L3.57919 11.3616Z" fill="#65BC6A"/>
<path d="M12.6455 18.1065L9.46036 17.0926L2.92716 12.2351L2.74133 12.0982L2.87174 11.6906L3.09016 10.9995L3.57917 11.3614L12.6455 18.1065Z" fill="#398F3E"/>
<path d="M13.3856 18.6544H4.82787C4.82787 17.5753 3.95091 16.6983 2.87183 16.6983V14.9966L3.78139 15.2867L12.6455 18.1067H12.6488L13.3856 18.6544Z" fill="#65BC6A"/>
<path d="M13.3856 18.6544H11.2926L3.78139 16.2648L2.87183 15.9746V14.9966L3.78139 15.2867L12.6455 18.1067H12.6488L13.3856 18.6544Z" fill="#29752B"/>
<path d="M21.1283 16.6982V18.3283C21.1283 18.5076 20.9816 18.6543 20.8023 18.6543H19.8177L19.909 18.3641L20.3948 16.8417C20.6197 16.7471 20.8675 16.6982 21.1283 16.6982Z" fill="#236823"/>
<path d="M21.1283 15.0781V16.6984C20.8675 16.6984 20.6197 16.7473 20.3948 16.8418L20.8251 15.4889V15.4856L20.9392 15.3357L21.1283 15.0781Z" fill="#29752B"/>
<path d="M20.8251 15.4888L20.3948 16.8417L19.909 18.3642C19.6776 18.2892 19.4396 18.2631 19.2081 18.2761C19.0256 18.2859 18.8462 18.3218 18.6735 18.3805L20.8251 15.4888Z" fill="#65BC6A"/>
<path d="M19.909 18.364L19.8178 18.6541L19.4135 19.919C19.3614 20.0885 19.1755 20.1831 19.006 20.1309L17.6857 19.7104L17.8259 19.518L18.6735 18.3803C18.8463 18.3216 19.0256 18.2857 19.2081 18.2759C19.4396 18.2629 19.6776 18.289 19.909 18.364ZM21.1283 9.85189V11.2276L20.4796 11.019L19.5961 10.7386H19.5928C19.3287 10.4061 19.1723 9.98555 19.1723 9.52588H20.8023C20.9816 9.52588 21.1283 9.67258 21.1283 9.85189Z" fill="#398F3E"/>
<path d="M19.5927 10.7386L16.877 9.87471H16.8738L16.4076 9.52588H19.1721C19.1721 9.98555 19.3286 10.4061 19.5927 10.7386Z" fill="#65BC6A"/>
<path d="M5.04633 6.10971L4.35193 7.04535V7.04209L4.68446 5.99561L5.04633 6.10971Z" fill="#398F3E"/>
<path d="M4.82779 18.6543H3.19775C3.01845 18.6543 2.87174 18.5076 2.87174 18.3283V16.6983C3.95083 16.6983 4.82779 17.5753 4.82779 18.6543ZM2.50987 12.8286C3.54006 13.1578 4.11057 14.2565 3.7813 15.2867L2.87174 14.9965L2.22625 14.7911C2.05672 14.739 1.96218 14.5532 2.01434 14.3836L2.50987 12.8286ZM9.02677 4.03614V4.0394C8.37802 4.90332 7.15549 5.08589 6.28831 4.44039L7.26307 3.1331C7.36739 2.98639 7.57278 2.95705 7.71622 3.06464L9.02677 4.03614ZM3.17493 8.62633C4.04211 9.26857 4.22468 10.4944 3.57918 11.3615L2.27189 10.39C2.12518 10.2825 2.09584 10.0771 2.20343 9.93362L3.17493 8.62633Z" fill="#398F3E"/>
<path d="M20.4697 11.0486C20.3295 11.4301 20.3067 12.0397 20.3947 12.4896L16.8771 9.875L19.5927 10.7389H19.596L20.4795 11.0193L20.4697 11.0486Z" fill="#65BC6A"/>
<path d="M20.3948 12.4893C20.3068 12.0394 20.3296 11.4298 20.4698 11.0484L20.4795 11.019L21.1283 11.2277L21.7738 11.4331C21.9433 11.4852 22.0379 11.6711 21.9857 11.8406L21.513 13.3207L20.535 12.5969L20.3948 12.4893ZM20.8251 15.4886L20.3948 16.8415L19.909 18.364C19.6776 18.289 19.4396 18.2629 19.2081 18.276C19.0256 18.2858 18.8462 18.3216 18.6735 18.3803L20.8251 15.4886Z" fill="#398F3E"/>
<path d="M19.2081 18.2762C19.0256 18.2859 18.8463 18.3218 18.6735 18.3805L18.1095 19.1401L17.8259 19.5183L17.6857 19.7106L18.7387 20.0464L19.006 20.1312C19.1755 20.1833 19.3614 20.0888 19.4135 19.9192L19.8178 18.6543L19.8504 18.55L19.909 18.3642C19.6776 18.2892 19.4396 18.2631 19.2081 18.2762Z" fill="#29752B"/>
<path d="M19.9351 10.8463L19.5961 10.7387H19.5928C19.5211 10.6507 19.4591 10.5561 19.407 10.4551L19.9351 10.8463Z" fill="#236823"/>
<path d="M19.5927 10.7386L16.877 9.87471H16.8738L16.4076 9.52588H18.1583L19.4069 10.455C19.459 10.5561 19.521 10.6506 19.5927 10.7386Z" fill="#29752B"/>
<path d="M20.3556 11.5865C20.3719 11.4529 20.3914 11.3225 20.4208 11.2084L19.935 10.8465L19.596 10.7389H19.5927L16.8771 9.875L20.1567 12.3135L20.3947 12.4896C20.3425 12.219 20.3295 11.8897 20.3556 11.5865Z" fill="#398F3E"/>
<path d="M21.4835 13.298L21.5487 13.21L21.5129 13.3208L21.4835 13.298Z" fill="#398F3E"/>
<path d="M21.8454 12.2648L20.5349 11.2933L20.4208 11.2085C20.3914 11.3226 20.3719 11.453 20.3556 11.5867C20.3295 11.8899 20.3425 12.2191 20.3947 12.4897L20.5349 12.5973L21.4836 13.2982L21.5488 13.2102L21.8487 12.268L21.8454 12.2648Z" fill="#29752B"/>
</svg>
