<svg width="24" height="24" viewBox="0 0 24 24" fill="none" xmlns="http://www.w3.org/2000/svg">
<path d="M4.48 15.1202C3.47333 15.1202 2.64 14.7969 1.98 14.1502C1.32667 13.4969 1 12.6702 1 11.6702C1 10.6702 1.32667 9.84688 1.98 9.20021C2.64 8.54688 3.47333 8.22021 4.48 8.22021C5.49333 8.22021 6.32667 8.54355 6.98 9.19021C7.64 9.83688 7.97 10.6635 7.97 11.6702C7.97 12.6769 7.64 13.5035 6.98 14.1502C6.32667 14.7969 5.49333 15.1202 4.48 15.1202ZM3.01 13.2402C3.38333 13.6535 3.87333 13.8602 4.48 13.8602C5.08667 13.8602 5.57667 13.6535 5.95 13.2402C6.32333 12.8269 6.51 12.3035 6.51 11.6702C6.51 11.0369 6.32333 10.5135 5.95 10.1002C5.57667 9.68688 5.08667 9.48021 4.48 9.48021C3.87333 9.48021 3.38333 9.68688 3.01 10.1002C2.64333 10.5135 2.46 11.0369 2.46 11.6702C2.46 12.3035 2.64333 12.8269 3.01 13.2402Z" fill="#F6514C"/>
<path d="M13.7865 15.0002H10.1665V8.33021H13.6765C14.2832 8.33021 14.7532 8.49688 15.0865 8.83021C15.4265 9.15688 15.5965 9.55688 15.5965 10.0302C15.5965 10.4369 15.4865 10.7769 15.2665 11.0502C15.0465 11.3235 14.7732 11.4935 14.4465 11.5602C14.8065 11.6135 15.1098 11.7969 15.3565 12.1102C15.6032 12.4235 15.7265 12.7869 15.7265 13.2002C15.7265 13.7202 15.5565 14.1502 15.2165 14.4902C14.8765 14.8302 14.3998 15.0002 13.7865 15.0002ZM13.3665 11.0002C13.6065 11.0002 13.7965 10.9335 13.9365 10.8002C14.0765 10.6669 14.1465 10.4935 14.1465 10.2802C14.1465 10.0669 14.0732 9.89355 13.9265 9.76021C13.7865 9.62021 13.5998 9.55022 13.3665 9.55022H11.5865V11.0002H13.3665ZM13.4165 13.7702C13.6832 13.7702 13.8932 13.7035 14.0465 13.5702C14.1998 13.4302 14.2765 13.2402 14.2765 13.0002C14.2765 12.7802 14.1998 12.5969 14.0465 12.4502C13.8932 12.2969 13.6832 12.2202 13.4165 12.2202H11.5865V13.7702H13.4165Z" fill="#F6514C"/>
<path d="M20.8306 15.0002H19.4006V9.58021H17.4506V8.33021H22.7706V9.58021H20.8306V15.0002Z" fill="#F6514C"/>
</svg>
