<svg width="24" height="12" viewBox="0 0 24 12" fill="none" xmlns="http://www.w3.org/2000/svg">
<path d="M1.42 9.77H0V3.1H3.12C3.82 3.1 4.36667 3.30667 4.76 3.72C5.16 4.12667 5.36 4.63667 5.36 5.25C5.36 5.85667 5.16 6.36667 4.76 6.78C4.36 7.19333 3.81333 7.4 3.12 7.4H1.42V9.77ZM2.93 6.15C3.21667 6.15 3.45 6.07 3.63 5.91C3.81667 5.74333 3.91 5.52333 3.91 5.25C3.91 4.97667 3.81667 4.76 3.63 4.6C3.45 4.43333 3.21667 4.35 2.93 4.35H1.42V6.15H2.93Z" fill="#FBB630"/>
<path d="M10.4102 9.77H8.98023V4.35H7.03023V3.1H12.3502V4.35H10.4102V9.77Z" fill="#FBB630"/>
<path d="M16.7622 9.89C15.5755 9.89 14.6355 9.53667 13.9422 8.83L14.7122 7.75C15.2855 8.35 15.9922 8.65 16.8322 8.65C17.1989 8.65 17.4822 8.58 17.6822 8.44C17.8889 8.29333 17.9922 8.11667 17.9922 7.91C17.9922 7.73 17.8955 7.58 17.7022 7.46C17.5155 7.34 17.2789 7.25333 16.9922 7.2C16.7122 7.14667 16.4055 7.07 16.0722 6.97C15.7389 6.87 15.4289 6.75667 15.1422 6.63C14.8622 6.50333 14.6255 6.30333 14.4322 6.03C14.2455 5.75667 14.1522 5.42333 14.1522 5.03C14.1522 4.45667 14.3822 3.97667 14.8422 3.59C15.3022 3.19667 15.9155 3 16.6822 3C17.7422 3 18.6089 3.31 19.2822 3.93L18.4922 4.97C17.9655 4.48333 17.3189 4.24 16.5522 4.24C16.2522 4.24 16.0189 4.3 15.8522 4.42C15.6855 4.54 15.6022 4.70333 15.6022 4.91C15.6022 5.07 15.6955 5.20667 15.8822 5.32C16.0755 5.42667 16.3122 5.50667 16.5922 5.56C16.8789 5.61333 17.1855 5.69333 17.5122 5.8C17.8455 5.9 18.1522 6.01667 18.4322 6.15C18.7189 6.27667 18.9555 6.48 19.1422 6.76C19.3355 7.03333 19.4322 7.36333 19.4322 7.75C19.4322 8.39 19.2022 8.90667 18.7422 9.3C18.2889 9.69333 17.6289 9.89 16.7622 9.89Z" fill="#FBB630"/>
</svg>
