<svg width="24" height="24" viewBox="0 0 24 24" fill="none" xmlns="http://www.w3.org/2000/svg">
<path d="M19.4999 18.8947C19.4999 20.0526 18.5999 21 17.4999 21H6.49988C5.39988 21 4.49988 20.0526 4.49988 18.8947V9.94737C4.49988 8.78947 5.39988 7.8421 6.49988 7.8421H17.4999C18.5999 7.8421 19.4999 8.78947 19.4999 9.94737V18.8947Z" fill="#FEDA2C"/>
<path d="M21 8.36837C21 9.52626 20.1 10.4736 19 10.4736H5C3.9 10.4736 3 9.52626 3 8.36837C3 7.21047 3.9 6.26311 5 6.26311H19C20.1 6.26311 21 7.21047 21 8.36837Z" fill="#FEDA2C"/>
<path d="M19.4999 11.5264H4.49988V10.4737H19.4999V11.5264Z" fill="#FBB630"/>
<path d="M12.5 4.15789H11.5C11.1022 4.15789 10.7206 4.32425 10.4393 4.62036C10.158 4.91647 10 5.31808 10 5.73684V21H14V5.73684C14 5.31808 13.842 4.91647 13.5607 4.62036C13.2794 4.32425 12.8978 4.15789 12.5 4.15789Z" fill="#F6514C"/>
<path d="M11.0001 6.26318C11.5501 6.26318 11.6316 5.9916 11.1806 5.6595L7.81956 3.18266C7.71643 3.10362 7.59848 3.04863 7.47358 3.02135C7.34868 2.99408 7.21968 2.99514 7.0952 3.02447C6.97072 3.05381 6.8536 3.11074 6.75167 3.19147C6.64974 3.2722 6.56532 3.37488 6.50406 3.49266L5.49606 5.3495C5.22306 5.85213 5.45006 6.26318 6.00006 6.26318H11.0001ZM13.0001 6.26318C12.4501 6.26318 12.3686 5.9916 12.8196 5.6595L16.1806 3.18266C16.2837 3.10362 16.4016 3.04863 16.5265 3.02135C16.6514 2.99408 16.7804 2.99514 16.9049 3.02447C17.0294 3.05381 17.1465 3.11074 17.2484 3.19147C17.3504 3.2722 17.4348 3.37488 17.4961 3.49266L18.5041 5.3495C18.7771 5.85213 18.5501 6.26318 18.0001 6.26318H13.0001Z" fill="#F6514C"/>
</svg>
