<svg width="24" height="24" viewBox="0 0 24 24" fill="none" xmlns="http://www.w3.org/2000/svg">
<path fill-rule="evenodd" clip-rule="evenodd" d="M11.6351 5.09529L11.471 5.18856L9.4942 8.09452L7.51743 11.0005L7.48771 11.0185L7.45799 11.0365L5.19238 9.76823L2.92673 8.5H2.72759H2.52841L2.36025 8.59266L2.19208 8.68532L2.09756 8.85017L2.00303 9.01503L2.00152 9.1622L2 9.30937L2.7263 12.4047L3.45255 15.5H12H20.5474L21.2737 12.4047L22 9.30937L21.9985 9.1622L21.997 9.01503L21.9024 8.85017L21.8079 8.68532L21.6398 8.59266L21.4716 8.5H21.2858H21.1L20.9588 8.57153L20.8176 8.64311L19.0308 9.81023L17.2439 10.9773L17.197 11.0046L17.15 11.032L14.8316 8.10677L12.5132 5.18161L12.351 5.09078L12.1887 5L11.9939 5.00101L11.7992 5.00201L11.6351 5.09529ZM3.78821 16.9162V16.9324L3.98337 17.7514L4.17854 18.5705L4.26641 18.6868L4.35429 18.8031L4.50183 18.9016L4.64937 19H12H19.3506L19.4982 18.9016L19.6457 18.8031L19.7336 18.6868L19.8215 18.5705L20.0166 17.7514L20.2118 16.9324V16.9162V16.9H12H3.78821V16.9162Z" fill="#FBB630"/>
</svg>
