<svg width="24" height="24" viewBox="0 0 24 24" fill="none" xmlns="http://www.w3.org/2000/svg">
<rect y="3" width="24" height="18" rx="4" fill="#121722"/>
<rect y="3" width="24" height="18" rx="4" fill="url(#paint0_linear_33_674)"/>
<path d="M7.79982 15.0001H6.01982L3.43982 8.33008H5.05982L6.90982 13.4601L8.74982 8.33008H10.3698L7.79982 15.0001Z" fill="white"/>
<path d="M13.0058 15.0001H11.5858V8.33008H13.0058V15.0001Z" fill="white"/>
<path d="M16.3499 15.0001H14.9299V8.33008H18.0499C18.7499 8.33008 19.2966 8.53674 19.6899 8.95008C20.0899 9.35675 20.2899 9.86674 20.2899 10.4801C20.2899 11.0867 20.0899 11.5967 19.6899 12.0101C19.2899 12.4234 18.7432 12.6301 18.0499 12.6301H16.3499V15.0001ZM17.8599 11.3801C18.1466 11.3801 18.3799 11.3001 18.5599 11.1401C18.7466 10.9734 18.8399 10.7534 18.8399 10.4801C18.8399 10.2067 18.7466 9.99008 18.5599 9.83008C18.3799 9.66341 18.1466 9.58008 17.8599 9.58008H16.3499V11.3801H17.8599Z" fill="white"/>
<defs>
<linearGradient id="paint0_linear_33_674" x1="1.56462e-07" y1="12" x2="24" y2="12" gradientUnits="userSpaceOnUse">
<stop stop-color="#C624FF"/>
<stop offset="0.322917" stop-color="#780EFF"/>
<stop offset="0.671875" stop-color="#4F32FF"/>
<stop offset="1" stop-color="#2962FF"/>
</linearGradient>
</defs>
</svg>
