<svg width="24" height="24" viewBox="0 0 24 24" fill="none" xmlns="http://www.w3.org/2000/svg">
<path d="M12 3C7.05 3 3 7.05 3 12C3 16.95 7.05 21 12 21C16.95 21 21 16.95 21 12C21 7.05 16.95 3 12 3ZM19.11 11.1H16.41C16.14 8.67 15.06 6.51 14.07 5.16C16.77 5.97 18.75 8.31 19.11 11.1ZM14.61 11.1H9.39C9.66 8.58 11.19 6.33 12 5.25C12.9 6.33 14.34 8.58 14.61 11.1ZM9.84 5.16C8.85 6.51 7.77 8.67 7.5 11.1H4.8C5.25 8.31 7.23 5.97 9.84 5.16ZM4.89 12.9H7.59C7.86 15.33 8.94 17.49 9.93 18.84C7.23 18.03 5.25 15.69 4.89 12.9ZM9.39 12.9H14.7C14.43 15.42 12.9 17.67 12.09 18.75C11.1 17.67 9.66 15.42 9.39 12.9ZM14.16 18.84C15.15 17.4 16.23 15.33 16.5 12.9H19.2C18.75 15.69 16.77 18.03 14.16 18.84Z" fill="#2962FF"/>
</svg>
