<svg width="20" height="20" viewBox="0 0 20 20" fill="none" xmlns="http://www.w3.org/2000/svg">
<path fill-rule="evenodd" clip-rule="evenodd" d="M3.48379 1.06218L3.16048 1.12437L2.88581 1.21406L2.61109 1.30375L2.33866 1.43094L2.06618 1.55817L1.76649 1.75563L1.4668 1.95304L1.13404 2.28088L0.801323 2.60872L0.574555 2.9679L0.347787 3.32708L0.187274 3.76629L0.0268103 4.2055L0.01343 9.85617L0 15.5068L0.0718256 15.8268L0.143602 16.1468L0.296554 16.502L0.449557 16.857L0.680006 17.1881L0.910454 17.5193L1.24033 17.8258L1.57017 18.1324L1.93168 18.3498L2.2932 18.5672L2.56289 18.678L2.83254 18.7889L3.24523 18.8945L3.65788 19H9.99983H16.3418L16.763 18.8951L17.1843 18.7901L17.5924 18.6065L18.0006 18.4228L18.3735 18.1474L18.7464 17.8719L18.9961 17.5931L19.2457 17.3143L19.4153 17.0452L19.585 16.7762L19.7206 16.4611L19.8563 16.1461L19.9281 15.8256L20 15.5052L19.9864 9.85534L19.9728 4.2055L19.8124 3.76629L19.6519 3.32708L19.4329 2.98034L19.2138 2.63359L18.8777 2.29618L18.5415 1.95878L18.2297 1.75198L17.9179 1.54518L17.5029 1.36649L17.0879 1.1878L16.7646 1.10241L16.4412 1.01701L10.1242 1.00851L3.80711 1L3.48379 1.06218ZM16.3887 2.56355L16.7748 2.65537L17.0557 2.80322L17.3366 2.95112L17.635 3.2323L17.9335 3.51345L18.0936 3.79389L18.2537 4.07434L18.3299 4.34615L18.406 4.6179V6.27599V7.93409L17.9922 7.59187L17.5784 7.24966L17.358 7.10916L17.1376 6.96866L16.8392 6.82899L16.5407 6.68936L16.2705 6.61479L16.0004 6.54026L15.5742 6.54146L15.148 6.54267L14.8218 6.646L14.4956 6.74937L14.2028 6.91063L13.91 7.07194L13.5093 7.44379L13.1086 7.81559L12.8255 8.18495L12.5424 8.5543L11.9351 9.45436L11.3279 10.3545L11.0697 10.6781L10.8115 11.0017L10.5847 11.1949L10.3579 11.3881L10.1452 11.489L9.93253 11.5899L9.69099 11.5683L9.4494 11.5467L9.1713 11.3687L8.89324 11.1906L8.25815 10.5386L7.62306 9.88664L7.36536 9.67124L7.1076 9.45584L6.85009 9.32001L6.59259 9.18418L6.32239 9.11048L6.05225 9.03683L5.80012 9.03739L5.54803 9.03794L5.29276 9.1011L5.03754 9.1643L4.72572 9.31876L4.41389 9.47322L4.01572 9.82136L3.61749 10.1695L2.93306 10.9555L2.24858 11.7415L1.92114 12.0406L1.59364 12.3398V8.47885V4.6179L1.6698 4.34615L1.74595 4.07434L1.90606 3.79389L2.06618 3.51345L2.36462 3.2323L2.66307 2.95112L2.94465 2.80285L3.22628 2.65463L3.59128 2.56572L3.95633 2.47686L9.97943 2.47432L16.0025 2.47177L16.3887 2.56355ZM4.61892 4.61402L4.38614 4.675L4.19613 4.80575L4.00607 4.93649L3.91574 5.03335L3.82536 5.13016L3.70479 5.36133L3.58427 5.59249V5.91612V6.23975L3.70215 6.47091L3.82009 6.70208L4.01254 6.87318L4.20503 7.04425L4.45374 7.14919L4.70244 7.25414L5.02575 7.25174L5.34907 7.24933L5.61165 7.14281L5.87428 7.03625L6.09617 6.80689L6.31802 6.57753L6.39313 6.34243L6.46823 6.10738V5.89286V5.6783L6.38989 5.46461L6.31155 5.25087L6.11 5.03806L5.9085 4.82526L5.66627 4.7112L5.42408 4.5971L5.13787 4.57504L4.85166 4.55299L4.61892 4.61402ZM16.0931 8.13072L16.3418 8.24084L16.5159 8.36248L16.69 8.48417L17.056 8.81829L17.422 9.15241L17.7334 9.52228L18.0448 9.89214L18.227 10.1581L18.4092 10.424L18.3952 13.0014L18.3811 15.5788L18.2693 15.8544L18.1575 16.13L17.9767 16.3829L17.7961 16.6358L17.5527 16.8528L17.3093 17.0696L17.0245 17.2101L16.7397 17.3506L16.4412 17.4355L16.1428 17.5206H9.99983H3.85685L3.5584 17.436L3.25996 17.3514L2.96151 17.197L2.66307 17.0426L2.42973 16.8342L2.1964 16.6258L2.01927 16.3779L1.8422 16.13L1.73237 15.8544L1.62249 15.5788L1.60384 14.8305L1.58519 14.0821L1.77594 13.9908L1.9667 13.8994L2.33274 13.6595L2.69878 13.4195L3.09382 13.0488L3.48891 12.6781L4.18434 11.8769L4.87976 11.0758L5.16334 10.8409L5.44686 10.606L5.6396 10.5523L5.8324 10.4986L6.05554 10.6087L6.27862 10.7187L6.70918 11.1606L7.13973 11.6025L7.56253 12.0109L7.98533 12.4194L8.32088 12.6271L8.65648 12.8348L8.94264 12.9348L9.22884 13.0347L9.77599 13.0327L10.3231 13.0307L10.604 12.9278L10.8848 12.8249L11.1771 12.6493L11.4694 12.4737L11.7916 12.1712L12.1138 11.8687L12.3969 11.5031L12.6801 11.1375L13.2875 10.2375L13.895 9.33735L14.0928 9.08307L14.2908 8.82878L14.595 8.53465L14.8993 8.24052L15.148 8.13058L15.3967 8.02064H15.6205H15.8444L16.0931 8.13072Z" fill="#D1D4DB"/>
</svg>
