<svg width="146" height="24" viewBox="0 0 146 24" fill="none" xmlns="http://www.w3.org/2000/svg">
<g clip-path="url(#clip0_9_34)">
<path d="M22.3497 0H33.0159C36.6953 0 39.6828 2.9875 39.6828 6.66689V17.3331C39.6828 21.0125 36.6953 24 33.0159 24H22.3497C18.6703 24 15.6828 21.0125 15.6828 17.3331V6.66289C15.6828 2.9835 18.6703 0 22.3497 0Z" fill="#2962FF"/>
<path d="M34.3476 15.7014V15.3294H28.1086L30.2963 14.1376C33.1758 12.5179 35.5554 10.2103 33.5077 7.40676C31.3761 4.47525 25.0092 4.63922 21.0178 7.97866L23.2974 10.5782C24.4053 9.89035 25.6051 9.45042 26.8049 8.91051L26.4729 8.01066L31.3921 8.15864L28.4526 12.5499L27.9607 11.3381C25.1011 12.8699 21.0738 15.0455 21.0738 17.6651V18.6649H23.6814H34.3476V15.7014Z" fill="white"/>
<path d="M4.38809 5.33105V15.4494H12.9778V18.6608H0.811096V5.33105H4.38809Z" fill="white"/>
<path d="M49.4858 18.6608C47.2836 18.6608 45.6006 18.2689 44.4366 17.489C43.2889 16.7092 42.713 15.5773 42.713 14.0896V13.8976H46.2211V14.0896C46.2211 14.6215 46.5131 15.0374 47.093 15.3214C47.673 15.5933 48.5206 15.7333 49.6277 15.7333C51.6028 15.7333 52.5883 15.3734 52.5883 14.6615V14.5215C52.5883 14.2616 52.4545 14.0616 52.1827 13.9136C51.911 13.7616 51.473 13.6337 50.8647 13.5417L47.2755 13.0138C45.8155 12.7938 44.7205 12.3939 43.9905 11.822C43.2727 11.2501 42.9158 10.4742 42.9158 9.49436V9.30239C42.9158 8.0506 43.4714 7.08276 44.5786 6.39088C45.706 5.683 47.2836 5.33105 49.3114 5.33105C51.4406 5.33105 53.075 5.71099 54.2105 6.46287C55.3582 7.20274 55.9341 8.28256 55.9341 9.69033V9.8423H52.4463V9.69033C52.4463 8.73849 51.4 8.26257 49.3033 8.26257C48.3827 8.26257 47.6892 8.35055 47.2147 8.51452C46.7402 8.6665 46.505 8.90646 46.505 9.2224V9.36238C46.505 9.58235 46.6266 9.76232 46.87 9.8903C47.1255 10.0103 47.5513 10.1103 48.1475 10.2022L51.7366 10.7302C53.2656 10.9501 54.393 11.3621 55.123 11.962C55.8652 12.5499 56.2383 13.3497 56.2383 14.3696V14.5615C56.2383 15.8693 55.6421 16.8731 54.4539 17.593C53.2777 18.3009 51.6231 18.6608 49.4858 18.6608Z" fill="white"/>
<path d="M87.6892 6.2029C87.6892 6.27889 87.673 6.34688 87.6446 6.41087L82.4616 18.2969L82.4251 18.3889C82.421 18.3969 82.417 18.4049 82.4129 18.4089C82.3196 18.5648 82.1452 18.6648 81.9506 18.6648H78.6534C78.4425 18.6648 78.2559 18.5449 78.1708 18.3689L78.1464 18.3089L72.9878 6.47086L72.9391 6.36688C72.9391 6.36288 72.9391 6.36288 72.9351 6.35888C72.9188 6.31089 72.9067 6.2549 72.9067 6.2029C72.9067 5.90695 73.15 5.66699 73.4501 5.66699H76.0497C76.2728 5.66699 76.4674 5.80297 76.5486 5.99494L80.2797 15.1174L84.0148 5.99494C84.0959 5.80297 84.2866 5.66699 84.5137 5.66699H87.1457C87.3688 5.66699 87.5635 5.80297 87.6446 5.99494C87.673 6.05893 87.6892 6.12692 87.6892 6.2029Z" fill="white"/>
<path d="M99.9247 18.6609C98.3512 18.6609 96.9642 18.393 95.7678 17.8611C94.5836 17.3132 93.667 16.5493 93.0181 15.5534C92.3814 14.5616 92.0651 13.4018 92.0651 12.074V11.934C92.0651 10.6063 92.3814 9.44646 93.0181 8.45463C93.667 7.4468 94.5876 6.68292 95.7678 6.14701C96.9642 5.5991 98.3512 5.32715 99.9247 5.32715C101.393 5.32715 102.715 5.56711 103.887 6.05503C105.055 6.53495 105.968 7.20284 106.616 8.0467C107.277 8.89456 107.61 9.8544 107.61 10.9182V11.0702H104.082V10.9182C104.082 10.1983 103.696 9.62643 102.934 9.1985C102.176 8.76658 101.178 8.55061 99.9328 8.55061C97.0331 8.55061 95.5812 9.66242 95.5812 11.8901V12.122C95.5812 13.2298 95.9381 14.0537 96.656 14.6016C97.3738 15.1495 98.4607 15.4215 99.9328 15.4215C101.218 15.4215 102.232 15.2135 102.975 14.7936C103.717 14.3736 104.082 13.8017 104.082 13.0739V12.9339H107.61V13.0739C107.61 14.1417 107.277 15.1015 106.616 15.9454C105.968 16.7932 105.055 17.4571 103.887 17.937C102.719 18.417 101.389 18.6609 99.9247 18.6609Z" fill="white"/>
<path d="M117.404 18.6609C115.855 18.6609 114.492 18.393 113.308 17.8611C112.14 17.3132 111.232 16.5493 110.599 15.5534C109.962 14.5456 109.646 13.3858 109.646 12.074V11.934C109.646 10.6063 109.962 9.44646 110.599 8.45463C111.236 7.4468 112.14 6.68292 113.308 6.14701C114.492 5.5991 115.855 5.32715 117.404 5.32715C118.978 5.32715 120.353 5.5991 121.521 6.14701C122.689 6.67892 123.597 7.45479 124.23 8.45463C124.866 9.44646 125.183 10.6063 125.183 11.934V12.074C125.183 13.4018 124.866 14.5616 124.23 15.5534C123.593 16.5453 122.689 17.3132 121.521 17.8611C120.345 18.397 118.97 18.6609 117.404 18.6609ZM117.404 15.4375C120.251 15.4375 121.675 14.3376 121.675 12.13V11.8981C121.675 10.8062 121.31 9.97837 120.58 9.41847C119.862 8.84656 118.803 8.55861 117.404 8.55861C116.025 8.55861 114.971 8.84656 114.249 9.41847C113.519 9.99037 113.154 10.8182 113.154 11.8981V12.13C113.154 13.2098 113.511 14.0297 114.229 14.5896C114.934 15.1575 115.997 15.4375 117.404 15.4375Z" fill="white"/>
<path d="M145.461 6.17891V18.3329H141.88V10.4142L138.278 18.0209C138.201 18.2009 138.015 18.3329 137.804 18.3329H134.851C134.677 18.3329 134.515 18.2449 134.425 18.1089L134.421 18.1049L134.369 17.9929C134.369 17.9889 134.369 17.9889 134.365 17.9849L130.808 10.4542V18.3329H127.211V6.17891C127.211 6.11092 127.227 6.04293 127.251 5.97894C127.332 5.79897 127.519 5.66699 127.73 5.66699H131.797C131.927 5.66699 132.045 5.71099 132.13 5.79097C132.175 5.82697 132.203 5.86296 132.235 5.90695C132.248 5.92695 132.26 5.94695 132.268 5.96694L136.344 14.5135L140.375 5.97894C140.456 5.79897 140.643 5.66699 140.853 5.66699H144.946C145.075 5.66699 145.193 5.71099 145.278 5.79097C145.323 5.82697 145.351 5.86296 145.384 5.90695C145.396 5.92695 145.408 5.94695 145.416 5.96694C145.444 6.03093 145.461 6.10292 145.461 6.17891Z" fill="white"/>
<path d="M88.411 15.3293H89.0883C89.8305 15.3293 90.4388 15.9292 90.4388 16.6611V17.329C90.4388 18.0609 89.8305 18.6608 89.0883 18.6608H88.411C87.6689 18.6608 87.0605 18.0609 87.0605 17.329V16.6611C87.0605 15.9292 87.6689 15.3293 88.411 15.3293Z" fill="white"/>
<path d="M71.8238 18.2289C71.8076 18.2049 71.7914 18.1849 71.7671 18.1649L70.9195 17.2291L68.0684 14.0056C69.2688 13.8176 70.1976 13.3977 70.8302 12.7378C71.467 12.0779 71.7833 11.2261 71.7833 10.1662V9.96628C71.7833 8.6265 71.325 7.57867 70.4125 6.8148C69.4919 6.04693 68.2428 5.66699 66.649 5.66699H58.2661V18.6648H61.8026V14.1056H63.8506L67.7277 18.6648H71.5805C71.7387 18.6648 71.8685 18.5369 71.8685 18.3809C71.8685 18.3249 71.8522 18.2729 71.8238 18.2289ZM67.7845 11.0741C67.5006 11.2861 67.0991 11.394 66.5678 11.394H61.7863V8.71849H66.5678C67.6547 8.71849 68.2022 9.12642 68.2022 9.94628V10.1382C68.2022 10.5542 68.0603 10.8581 67.7845 11.0741Z" fill="white"/>
</g>
<defs>
<clipPath id="clip0_9_34">
<rect width="146" height="24" fill="white"/>
</clipPath>
</defs>
</svg>
