<svg width="30" height="30" viewBox="0 0 30 30" fill="none" xmlns="http://www.w3.org/2000/svg">
<path fill-rule="evenodd" clip-rule="evenodd" d="M18.4512 0.134808L18.2237 0.26668L18.0921 0.501063L17.9603 0.735384V1.999V3.26263L18.0926 3.49801L18.2249 3.73339L18.4603 3.8657L18.6957 3.99801H18.9598H19.2239L19.4593 3.8657L19.6947 3.73339L19.827 3.49801L19.9593 3.26263V1.999V0.735384L19.827 0.500001L19.6947 0.264618L19.4593 0.132309L19.2239 0L18.9513 0.00143683L18.6787 0.00287354L18.4512 0.134808ZM12.9764 1.85301L12.7714 1.95409L12.6568 2.11707L12.5422 2.28011L9.40338 8.21466L6.26463 14.1492L4.31585 16.117L2.36713 18.0847L2.14181 18.522L1.91642 18.9593L1.8066 19.3654L1.69672 19.7714L1.69597 20.3961L1.69522 21.0208L1.76181 21.2463L1.8284 21.4717L1.61251 21.7939L1.39655 22.116L1.20271 22.6304L1.00887 23.1447L1.00444 23.9256L1 24.7064L1.13774 25.1437L1.27555 25.581L1.51256 25.972L1.74963 26.363L2.01356 26.669L2.27749 26.9749L2.72458 27.2721L3.17167 27.5693L3.71003 27.7553L4.24838 27.9413L4.87307 27.9472L5.49776 27.9531L5.84134 27.8676L6.18492 27.782L6.58666 27.6017L6.98839 27.4214L7.19779 27.2617L7.40712 27.102L7.72053 27.1692L8.03387 27.2364H8.54868H9.06349L9.43455 27.1398L9.80568 27.0431L10.1697 26.8797L10.5338 26.7163L11.9514 28.1221L13.3688 29.5279L13.5875 29.655L13.8061 29.7823L14.1414 29.8911L14.4767 30L14.9965 29.9727L15.5163 29.9454L15.9846 29.714L16.4529 29.4825L16.7062 29.1948L16.9595 28.907L17.1192 28.5805L17.279 28.2539L17.3465 27.8465L17.414 27.4391L17.31 26.9714L17.2059 26.5038L17.0156 26.1986L16.8254 25.8934L15.5048 24.567L14.1841 23.2405L14.4602 22.9592L14.7363 22.6779L20.7306 19.5068L26.7249 16.3356L26.9014 16.1605L27.0777 15.9855L27.1477 15.7257L27.2176 15.466L27.1443 15.2137L27.071 14.9613L20.5635 8.4448L14.056 1.92829L13.8873 1.83871L13.7186 1.74913L13.4501 1.75057L13.1814 1.752L12.9764 1.85301ZM24.3912 3.17823L24.1135 3.35789L23.1372 4.34952L22.161 5.34109L22.0596 5.54099L21.9583 5.74095V6.00101V6.26113L22.0906 6.49652L22.2229 6.7319L22.4583 6.86421L22.6937 6.99652H22.9697H23.2457L23.5234 6.81679L23.8011 6.63713L24.7774 5.6455L25.7537 4.65393L25.855 4.45403L25.9563 4.25407V3.99401V3.73389L25.824 3.49851L25.6917 3.26313L25.4563 3.13082L25.2209 2.99851H24.945H24.669L24.3912 3.17823ZM19.1062 9.86034L24.4685 15.2229L19.4339 17.8876L14.3995 20.5523H14.3524H14.3054L11.3204 17.5668L8.33541 14.5813L11.0046 9.5395L13.6738 4.49776H13.7089H13.7439L19.1062 9.86034ZM25.4478 9.13033L25.2203 9.2622L25.0886 9.49658L24.9568 9.7309V9.99502V10.2591L25.0891 10.4945L25.2214 10.7299L25.4568 10.8622L25.6922 10.9945H26.9558H28.2194L28.4548 10.8622L28.6902 10.7299L28.8225 10.4945L28.9548 10.2591V9.99502V9.7309L28.8225 9.49552L28.6902 9.26014L28.4548 9.12783L28.2194 8.99552L26.9473 8.99696L25.6752 8.99839L25.4478 9.13033ZM9.91837 19.0383L12.7143 21.8348L11.1675 23.376L9.62071 24.9173L9.31861 25.0462L9.01651 25.1752L8.68848 25.2137L8.36052 25.2522L7.99477 25.1459L7.62907 25.0396L7.37551 24.8626L7.12195 24.6856L5.58259 23.1343L4.0433 21.583L3.89612 21.3019L3.74901 21.0208V20.4273V19.8339L3.89612 19.5528L4.0433 19.2717L5.54973 17.7568L7.05611 16.2419H7.08928H7.12245L9.91837 19.0383ZM5.30005 25.8841L5.19847 25.941L4.7933 25.9031L4.38806 25.8653L4.13082 25.7404L3.87357 25.6155L3.64212 25.4242L3.41067 25.233L3.22377 24.8448L3.03686 24.4566L3.02293 24.1755L3.00906 23.8944L3.01962 23.6763L3.03024 23.4583L4.21596 24.6428L5.40168 25.8273L5.30005 25.8841ZM15.3141 27.3458L15.3502 27.4863L15.3112 27.6414L15.2723 27.7964L15.0864 27.8925L14.9004 27.9887L14.7548 27.9521L14.6091 27.9156L13.3344 26.6398L12.0597 25.3639L12.4006 25.0188L12.7415 24.6737L14.0098 25.9394L15.2781 27.2052L15.3141 27.3458Z" fill="#D1D4DB"/>
</svg>
