<svg width="30" height="30" viewBox="0 0 30 30" fill="none" xmlns="http://www.w3.org/2000/svg">
<path fill-rule="evenodd" clip-rule="evenodd" d="M27 5.61848V8.23697L19.8818 14.244L12.7636 20.2509L12.8722 20.4731L12.9807 20.6953L13.059 21.0413L13.1371 21.3872L13.1141 21.8147L13.0911 22.2422L12.9719 22.5827L12.8527 22.9231L12.7073 23.1452L12.5618 23.3672L12.4408 23.5036L12.3197 23.64L9.33858 20.6588L6.35747 17.6777L6.4717 17.5783L6.58594 17.4789L6.85828 17.2971L7.13058 17.1151L7.44422 17.0068L7.75781 16.8984L8.36719 16.8998L8.97656 16.9012L9.37158 17.0588L9.76655 17.2163L9.84033 17.1262L9.91406 17.036L15.8374 10.018L21.7607 3H24.3803H27V5.61848ZM20.9644 8.02781L18.4681 10.5244L18.9728 11.0275L19.4775 11.5306L21.9843 9.02348L24.4912 6.51628L24.0003 6.02377L23.5095 5.53125H23.485H23.4606L20.9644 8.02781ZM8.36719 21.6562L9.35077 22.6407L8.28473 23.7074L7.21875 24.7742V25.8871V27H5.10938H3V24.8906V22.7812H4.11366H5.22736L6.28125 21.7266L7.33514 20.6719H7.35942H7.38366L8.36719 21.6562Z" fill="white"/>
</svg>
