<svg width="48" height="48" viewBox="0 0 48 48" fill="none" xmlns="http://www.w3.org/2000/svg">
<path fill-rule="evenodd" clip-rule="evenodd" d="M20.8061 0.117256L19.1255 0.203124L17.6226 0.38125L16.1197 0.559263L14.7411 0.838614L13.3623 1.11785L12.0159 1.5602L10.6695 2.00265L9.69393 2.46002L8.71841 2.91738L7.59175 3.66744L6.46509 4.41749L5.45304 5.43009L4.44099 6.44268L3.69134 7.56995L2.94169 8.69722L2.48457 9.67327L2.02745 10.6493L1.58524 11.9965L1.14313 13.3436L0.866956 14.7135L0.590892 16.0832L0.41768 17.4845L0.244581 18.8857L0.122346 21.436L0 23.9862L0.122346 26.5365L0.244581 29.0867L0.41768 30.488L0.590892 31.8892L0.866956 33.2589L1.14313 34.6288L1.58524 35.9759L2.02745 37.3231L2.48457 38.2992L2.94169 39.2752L3.69134 40.4025L4.44099 41.5297L5.45304 42.5423L6.46509 43.5549L7.61774 44.3224L8.77051 45.0897L9.9803 45.6299L11.1902 46.17L12.4781 46.5606L13.766 46.9512L14.9563 47.181L16.1465 47.4108L17.5009 47.5786L18.8553 47.7463L21.4272 47.8732L23.9992 48L26.5711 47.8732L29.143 47.7463L30.4974 47.5786L31.8518 47.4108L33.042 47.181L34.2323 46.9512L35.5202 46.5606L36.8081 46.17L38.018 45.6299L39.2278 45.0897L40.3806 44.3224L41.5332 43.5549L42.5453 42.5423L43.5573 41.5297L44.3243 40.3765L45.0912 39.2231L45.6312 38.0126L46.171 36.8021L46.5614 35.5135L46.9518 34.2249L47.1814 33.034L47.4111 31.8431L47.5788 30.488L47.7465 29.1328L47.8733 26.5596L48 23.9862L47.8733 21.4129L47.7465 18.8396L47.5788 17.4845L47.4111 16.1293L47.1814 14.9385L46.9518 13.7475L46.5614 12.4589L46.171 11.1704L45.6312 9.95979L45.0912 8.74935L44.3243 7.59596L43.5573 6.44268L42.5453 5.43009L41.5332 4.41749L40.4066 3.66744L39.2799 2.91738L38.3044 2.46002L37.3289 2.00265L35.9824 1.5602L34.636 1.11785L33.2669 0.841417L31.8979 0.56498L30.4938 0.392683L29.0898 0.220499L26.9086 0.110193L24.7274 0L23.607 0.0156938L22.4866 0.0312756L20.8061 0.117256ZM29.7131 3.97571L31.2257 4.1572L32.3461 4.38734L33.4664 4.61737L34.4188 4.89224L35.3711 5.1671L36.3947 5.61528L37.4183 6.06356L38.2993 6.64076L39.1804 7.21785L39.9807 8.02687L40.781 8.83577L41.3466 9.69782L41.9121 10.5599L42.3602 11.584L42.8081 12.6081L43.0995 13.617L43.3909 14.6259L43.6586 16.0832L43.9263 17.5405L44.073 18.9417L44.2198 20.343V23.9862V27.6294L44.073 29.0307L43.9263 30.4319L43.6586 31.8892L43.3909 33.3465L43.101 34.3554L42.8111 35.3643L42.3332 36.4366L41.8552 37.509L41.3021 38.337L40.749 39.165L39.9647 39.9598L39.1804 40.7546L38.2993 41.3317L37.4183 41.9089L36.3947 42.3571L35.3711 42.8053L34.4188 43.0802L33.4664 43.3551L32.3461 43.5855L31.2257 43.8159L29.6011 44.0125L27.9765 44.209L24.1672 44.2145L20.3579 44.2201L18.9574 44.072L17.5569 43.9241L16.1004 43.656L14.6439 43.3879L13.4948 43.0461L12.3458 42.7042L11.3947 42.2647L10.4437 41.825L9.63522 41.285L8.82664 40.745L8.038 39.956L7.24936 39.1669L6.70967 38.3579L6.16998 37.549L5.74557 36.6247L5.32117 35.7006L5.08331 34.9719L4.84545 34.2433L4.56737 33.0662L4.28941 31.8892L4.11843 30.6001L3.94746 29.3109L3.83486 27.6855L3.72238 26.06L3.72126 24.0232L3.72014 21.9862L3.83733 20.2679L3.95441 18.5494L4.17333 17.0361L4.39226 15.5227L4.72804 14.2478L5.06393 12.9729L5.44609 12.0351L5.82826 11.0972L6.23653 10.3668L6.64468 9.63639L7.29809 8.82423L7.95162 8.01207L8.4968 7.55426L9.04198 7.09644L9.73046 6.62764L10.4188 6.15884L11.4032 5.70383L12.3876 5.24882L13.7153 4.86645L15.0431 4.48408L16.3 4.26605L17.5569 4.04802L18.9574 3.92639L20.3579 3.80465L20.8621 3.76205L21.3662 3.71945L24.7834 3.75678L28.2006 3.79422L29.7131 3.97571ZM31.8419 16.5932L31.5618 16.7087L26.3816 21.8868L21.2013 27.0649L18.931 24.8099L16.6606 22.5549L16.3021 22.3738L15.9435 22.1926H15.4504H14.9572L14.5792 22.4475L14.2011 22.7025L13.9464 23.0807L13.6916 23.4589V23.9524V24.4457L13.8515 24.7485L14.0115 25.0512L17.1846 28.2095L20.3579 31.3681L20.7888 31.447L21.2198 31.5259L21.6851 31.39L22.1505 31.2543L28.0602 25.3519L33.9701 19.4497L34.1383 19.0947L34.3067 18.7397V18.3327V17.9257L34.1505 17.5517L33.9944 17.1778L33.5856 16.8658L33.1769 16.5538L32.6495 16.5157L32.122 16.4776L31.8419 16.5932Z" fill="#121722"/>
<path fill-rule="evenodd" clip-rule="evenodd" d="M20.8061 0.117256L19.1255 0.203124L17.6226 0.38125L16.1197 0.559263L14.7411 0.838614L13.3623 1.11785L12.0159 1.5602L10.6695 2.00265L9.69393 2.46002L8.71841 2.91738L7.59175 3.66744L6.46509 4.41749L5.45304 5.43009L4.44099 6.44268L3.69134 7.56995L2.94169 8.69722L2.48457 9.67327L2.02745 10.6493L1.58524 11.9965L1.14313 13.3436L0.866956 14.7135L0.590892 16.0832L0.41768 17.4845L0.244581 18.8857L0.122346 21.436L0 23.9862L0.122346 26.5365L0.244581 29.0867L0.41768 30.488L0.590892 31.8892L0.866956 33.2589L1.14313 34.6288L1.58524 35.9759L2.02745 37.3231L2.48457 38.2992L2.94169 39.2752L3.69134 40.4025L4.44099 41.5297L5.45304 42.5423L6.46509 43.5549L7.61774 44.3224L8.77051 45.0897L9.9803 45.6299L11.1902 46.17L12.4781 46.5606L13.766 46.9512L14.9563 47.181L16.1465 47.4108L17.5009 47.5786L18.8553 47.7463L21.4272 47.8732L23.9992 48L26.5711 47.8732L29.143 47.7463L30.4974 47.5786L31.8518 47.4108L33.042 47.181L34.2323 46.9512L35.5202 46.5606L36.8081 46.17L38.018 45.6299L39.2278 45.0897L40.3806 44.3224L41.5332 43.5549L42.5453 42.5423L43.5573 41.5297L44.3243 40.3765L45.0912 39.2231L45.6312 38.0126L46.171 36.8021L46.5614 35.5135L46.9518 34.2249L47.1814 33.034L47.4111 31.8431L47.5788 30.488L47.7465 29.1328L47.8733 26.5596L48 23.9862L47.8733 21.4129L47.7465 18.8396L47.5788 17.4845L47.4111 16.1293L47.1814 14.9385L46.9518 13.7475L46.5614 12.4589L46.171 11.1704L45.6312 9.95979L45.0912 8.74935L44.3243 7.59596L43.5573 6.44268L42.5453 5.43009L41.5332 4.41749L40.4066 3.66744L39.2799 2.91738L38.3044 2.46002L37.3289 2.00265L35.9824 1.5602L34.636 1.11785L33.2669 0.841417L31.8979 0.56498L30.4938 0.392683L29.0898 0.220499L26.9086 0.110193L24.7274 0L23.607 0.0156938L22.4866 0.0312756L20.8061 0.117256ZM29.7131 3.97571L31.2257 4.1572L32.3461 4.38734L33.4664 4.61737L34.4188 4.89224L35.3711 5.1671L36.3947 5.61528L37.4183 6.06356L38.2993 6.64076L39.1804 7.21785L39.9807 8.02687L40.781 8.83577L41.3466 9.69782L41.9121 10.5599L42.3602 11.584L42.8081 12.6081L43.0995 13.617L43.3909 14.6259L43.6586 16.0832L43.9263 17.5405L44.073 18.9417L44.2198 20.343V23.9862V27.6294L44.073 29.0307L43.9263 30.4319L43.6586 31.8892L43.3909 33.3465L43.101 34.3554L42.8111 35.3643L42.3332 36.4366L41.8552 37.509L41.3021 38.337L40.749 39.165L39.9647 39.9598L39.1804 40.7546L38.2993 41.3317L37.4183 41.9089L36.3947 42.3571L35.3711 42.8053L34.4188 43.0802L33.4664 43.3551L32.3461 43.5855L31.2257 43.8159L29.6011 44.0125L27.9765 44.209L24.1672 44.2145L20.3579 44.2201L18.9574 44.072L17.5569 43.9241L16.1004 43.656L14.6439 43.3879L13.4948 43.0461L12.3458 42.7042L11.3947 42.2647L10.4437 41.825L9.63522 41.285L8.82664 40.745L8.038 39.956L7.24936 39.1669L6.70967 38.3579L6.16998 37.549L5.74557 36.6247L5.32117 35.7006L5.08331 34.9719L4.84545 34.2433L4.56737 33.0662L4.28941 31.8892L4.11843 30.6001L3.94746 29.3109L3.83486 27.6855L3.72238 26.06L3.72126 24.0232L3.72014 21.9862L3.83733 20.2679L3.95441 18.5494L4.17333 17.0361L4.39226 15.5227L4.72804 14.2478L5.06393 12.9729L5.44609 12.0351L5.82826 11.0972L6.23653 10.3668L6.64468 9.63639L7.29809 8.82423L7.95162 8.01207L8.4968 7.55426L9.04198 7.09644L9.73046 6.62764L10.4188 6.15884L11.4032 5.70383L12.3876 5.24882L13.7153 4.86645L15.0431 4.48408L16.3 4.26605L17.5569 4.04802L18.9574 3.92639L20.3579 3.80465L20.8621 3.76205L21.3662 3.71945L24.7834 3.75678L28.2006 3.79422L29.7131 3.97571ZM31.8419 16.5932L31.5618 16.7087L26.3816 21.8868L21.2013 27.0649L18.931 24.8099L16.6606 22.5549L16.3021 22.3738L15.9435 22.1926H15.4504H14.9572L14.5792 22.4475L14.2011 22.7025L13.9464 23.0807L13.6916 23.4589V23.9524V24.4457L13.8515 24.7485L14.0115 25.0512L17.1846 28.2095L20.3579 31.3681L20.7888 31.447L21.2198 31.5259L21.6851 31.39L22.1505 31.2543L28.0602 25.3519L33.9701 19.4497L34.1383 19.0947L34.3067 18.7397V18.3327V17.9257L34.1505 17.5517L33.9944 17.1778L33.5856 16.8658L33.1769 16.5538L32.6495 16.5157L32.122 16.4776L31.8419 16.5932Z" fill="url(#paint0_linear_134_1627)"/>
<defs>
<linearGradient id="paint0_linear_134_1627" x1="3.12925e-07" y1="23.9999" x2="48" y2="23.9999" gradientUnits="userSpaceOnUse">
<stop stop-color="#C624FF"/>
<stop offset="0.322917" stop-color="#780EFF"/>
<stop offset="0.671875" stop-color="#4F32FF"/>
<stop offset="1" stop-color="#2962FF"/>
</linearGradient>
</defs>
</svg>
