<svg width="20" height="20" viewBox="0 0 20 20" fill="none" xmlns="http://www.w3.org/2000/svg">
<path fill-rule="evenodd" clip-rule="evenodd" d="M15.8144 13.3985L15.9731 13.3566L16.1606 13.169L16.3482 12.9814L16.3983 12.7724L16.4485 12.5634L16.3996 12.3521L16.3507 12.1409L13.6491 9.43174L10.9475 6.72255L10.7865 6.63704L10.6256 6.55153L10.4042 6.55322L10.1829 6.55486L10.0219 6.63893L9.86098 6.72299L7.2165 9.37158L4.57199 12.0202L4.51026 12.1698L4.44849 12.3194L4.44849 12.5235L4.44849 12.7276L4.5266 12.8807L4.6047 13.0338L4.75239 13.1635L4.90008 13.2932L4.99883 13.3307L5.09758 13.3682L5.29746 13.3682L5.49734 13.3682L5.64696 13.3065L5.79658 13.2447L8.10009 10.9428L10.4036 8.64079L12.7681 10.9992L15.1326 13.3577L15.3215 13.4032L15.5103 13.4487L15.5831 13.4446L15.6558 13.4404L15.8144 13.3985Z" fill="white"/>
</svg>
