<svg width="20" height="20" viewBox="0 0 20 20" fill="none" xmlns="http://www.w3.org/2000/svg">
<path fill-rule="evenodd" clip-rule="evenodd" d="M4.56899 4.03239L4.47026 4.06476L4.36595 4.12591L4.26165 4.18706L4.17787 4.28498L4.09409 4.38288L4.04704 4.50867L4 4.63446V4.78505V4.93563L4.0495 5.07127L4.09901 5.20693L6.49767 7.60946L8.89635 10.012L6.51686 12.3908L4.13738 14.7695L4.07467 14.8867L4.01195 15.0039L4.01183 15.2266L4.01171 15.4492L4.06907 15.5658L4.1264 15.6824L4.22805 15.7841L4.32971 15.8858L4.45187 15.9426L4.574 15.9995H4.77314H4.97228L5.10114 15.9401L5.23 15.8807L7.61385 13.497L9.9977 11.1133L12.3816 13.497L14.7654 15.8807L14.8943 15.9401L15.0231 15.9995L15.2244 15.9998L15.4256 16L15.5695 15.9281L15.7134 15.8562L15.7957 15.7599L15.878 15.6637L15.9291 15.5581L15.9802 15.4526L15.9901 15.2751L16 15.0976L15.9483 14.957L15.8966 14.8164L13.4978 12.4139L11.099 10.0115L13.4776 7.63264L15.8563 5.2538L15.9199 5.12489L15.9836 4.99599L15.9915 4.8202L15.9995 4.64442L15.9498 4.51207L15.9001 4.37971L15.806 4.2727L15.7118 4.16566L15.5554 4.08864L15.399 4.0116H15.2228H15.0466L14.9294 4.05545L14.8123 4.09931L12.4049 6.50449L9.99759 8.90967L7.60209 6.51426L5.20657 4.11888L5.09453 4.06966L4.9825 4.02046L4.82511 4.01024L4.66771 4L4.56899 4.03239Z" fill="white"/>
</svg>
