<svg width="20" height="20" viewBox="0 0 20 20" fill="none" xmlns="http://www.w3.org/2000/svg">
<g clip-path="url(#clip0_10_61)">
<path d="M10 20C15.5228 20 20 15.5228 20 10C20 4.47715 15.5228 0 10 0C4.47715 0 0 4.47715 0 10C0 15.5228 4.47715 20 10 20Z" fill="white"/>
<path d="M19.378 13.4782C19.78 12.3949 20 11.2232 20 9.99997C20 8.77677 19.78 7.60505 19.378 6.52173H0.621992C0.220039 7.60505 0 8.77677 0 9.99997C0 11.2232 0.220039 12.3949 0.621992 13.4782L10 14.3478L19.378 13.4782Z" fill="#2962FF"/>
<path d="M9.99983 20C14.2995 20 17.9649 17.2863 19.3778 13.4783H0.621826C2.03476 17.2863 5.70018 20 9.99983 20Z" fill="#F6514C"/>
</g>
<defs>
<clipPath id="clip0_10_61">
<rect width="20" height="20" fill="white"/>
</clipPath>
</defs>
</svg>
