<svg width="40" height="40" viewBox="0 0 40 40" fill="none" xmlns="http://www.w3.org/2000/svg">
<path fill-rule="evenodd" clip-rule="evenodd" d="M16.8689 12.6939L16.771 12.7105L16.1644 12.8489L15.5577 12.9874L14.7554 13.2543L13.953 13.5212L13.5029 13.7154L13.0528 13.9097L12.9038 14.1198L12.7548 14.3301L12.437 14.8584L12.1192 15.3868L11.82 15.9739L11.5209 16.561L11.2815 17.1285L11.0421 17.696L10.8642 18.2173L10.6863 18.7387L10.5487 19.235L10.4111 19.7312L10.2964 20.2988L10.1817 20.8663L10.0921 21.5316L10.0025 22.197L10.0013 23.5864L10 24.9759L10.0321 25.1911L10.0641 25.4064L10.2277 25.5221L10.3914 25.6378L10.8415 25.937L11.2916 26.2362L11.7221 26.4839L12.1526 26.7316L12.7397 27.0155L13.3268 27.2993L13.7378 27.4633L14.1487 27.6273L14.597 27.7791L15.0452 27.9308H15.1104H15.1755L15.4676 27.4905L15.7597 27.0502L15.9845 26.6479L16.2093 26.2455L16.195 26.2027L16.1807 26.16L15.7127 25.9572L15.2446 25.7544L14.8951 25.5636L14.5457 25.3728L14.719 25.2234L14.8924 25.0739L14.9364 25.0738L14.9805 25.0737L15.2104 25.1763L15.4403 25.2789L15.8513 25.4324L16.2622 25.5858L16.6571 25.7009L17.052 25.816L17.5182 25.9168L17.9843 26.0176L18.3953 26.0753L18.8063 26.1331L19.3996 26.1663L19.993 26.1995L20.6061 26.1672L21.2191 26.1349L21.5195 26.0913L21.82 26.0476L22.2487 25.9686L22.6775 25.8896L23.2718 25.7191L23.8661 25.5485L24.4524 25.3111L25.0387 25.0737H25.0657H25.0926L25.2469 25.1977L25.4012 25.3216V25.3687V25.4157L24.8434 25.6899L24.2857 25.964L24.0571 26.0532L23.8286 26.1424L23.8099 26.1912L23.7912 26.24L23.8914 26.4378L23.9917 26.6357L24.212 26.9995L24.4323 27.3633L24.6281 27.6471L24.8239 27.9308H24.8943H24.9648L25.4863 27.7498L26.0078 27.5688L26.5558 27.3351L27.1037 27.1015L27.5538 26.8722L28.0039 26.6429L28.4611 26.3711L28.9184 26.0994L29.2672 25.8644L29.6162 25.6295L29.7757 25.5179L29.9352 25.4064L29.9676 25.152L30 24.8976L29.9992 23.5669L29.9984 22.2361L29.9283 21.6686L29.8582 21.1011L29.7614 20.5727L29.6647 20.0443L29.511 19.4515L29.3574 18.8587L29.1959 18.3752L29.0345 17.8917L28.8384 17.4025L28.6424 16.9132L28.2966 16.2087L27.9509 15.5042L27.5791 14.8866L27.2072 14.269L27.0772 14.0894L26.9472 13.9099L26.5499 13.7408L26.1526 13.5717L25.6497 13.3891L25.1468 13.2065L24.5468 13.0357L23.9467 12.8648L23.4659 12.7657L22.9852 12.6667H22.8906H22.796L22.5431 13.1852L22.2901 13.7038L22.2868 13.7135L22.2834 13.7231L21.856 13.6623L21.4286 13.6015L20.3131 13.5794L19.1977 13.5573L18.5519 13.6233L17.9061 13.6892L17.8204 13.71L17.7346 13.7307L17.4695 13.1987L17.2044 12.6667L17.0856 12.672L16.9667 12.6773L16.8689 12.6939ZM16.9942 19.09L17.2016 19.1337L17.3996 19.2297L17.5977 19.3257L17.7784 19.4802L17.9592 19.6347L18.1182 19.8728L18.2771 20.1109L18.354 20.3597L18.4309 20.6086L18.4558 20.894L18.4807 21.1794L18.419 21.4729L18.3573 21.7665L18.2163 22.0528L18.0754 22.3391L17.8667 22.5478L17.658 22.7565L17.4101 22.8785L17.1622 23.0006L16.9177 23.04L16.6732 23.0793L16.4287 23.04L16.1842 23.0006L15.9435 22.8821L15.7029 22.7636L15.4667 22.5111L15.2304 22.2586L15.1124 22.0113L14.9944 21.764L14.9498 21.5696L14.9053 21.3751L14.9054 21.034L14.9056 20.6928L14.971 20.4665L15.0363 20.24L15.1571 20.0123L15.278 19.7845L15.4782 19.5818L15.6785 19.379L15.8921 19.2636L16.1057 19.1481L16.3014 19.1006L16.4971 19.053L16.6419 19.0496L16.7868 19.0463L16.9942 19.09ZM23.6478 19.0899L23.8552 19.1335L24.0704 19.2339L24.2857 19.3342L24.5235 19.5719L24.7613 19.8095L24.8858 20.0639L25.0103 20.3183L25.0681 20.5923L25.1258 20.8663V21.062V21.2577L25.0699 21.5217L25.0139 21.7857L24.8899 22.0455L24.766 22.3052L24.5256 22.5447L24.2852 22.7841L24.0699 22.8883L23.8546 22.9924L23.6038 23.0379L23.353 23.0834L23.0974 23.0389L22.8418 22.9944L22.6365 22.8972L22.4312 22.8001L22.2266 22.6162L22.022 22.4323L21.8924 22.2296L21.7627 22.027L21.6641 21.7333L21.5656 21.4395L21.566 21.0746L21.5665 20.7097L21.6224 20.4996L21.6784 20.2894L21.7831 20.0754L21.8878 19.8613L22.1222 19.6108L22.3565 19.3603L22.597 19.242L22.8376 19.1237L23.0137 19.0893L23.1898 19.0549L23.3151 19.0506L23.4404 19.0463L23.6478 19.0899Z" fill="#D1D4DB"/>
</svg>
