<svg width="20" height="20" viewBox="0 0 20 20" fill="none" xmlns="http://www.w3.org/2000/svg">
<path fill-rule="evenodd" clip-rule="evenodd" d="M3.79348 1.6734L3.57352 1.70617L3.33773 1.78562L3.10195 1.86504L2.8598 2.00695L2.61766 2.14887L2.3923 2.37422L2.16695 2.59957L2.02504 2.84172L1.88313 3.08387L1.80457 3.31707L1.72602 3.55023L1.68332 3.86754L1.64062 4.1848L1.65883 4.85176L1.67703 5.51875L1.78227 5.81172L1.88746 6.10469L1.9223 6.23773L1.95715 6.37074L2.14012 6.63856L2.32313 6.90641L4.91621 9.45477L7.50926 12.0031L7.50937 14.8373L7.50949 17.6714L7.60734 17.8677L7.70519 18.0641L7.79809 18.1514L7.89098 18.2386L8.11832 18.298L8.3457 18.3574L8.4548 18.3355L8.56391 18.3137L10.2926 17.4495L12.0212 16.5852L12.1724 16.4426L12.3235 16.3L12.4161 16.1047L12.5087 15.9094L12.5091 13.9571L12.5095 12.005L15.1772 9.32824L17.845 6.65156L18.0255 6.3L18.2061 5.94844L18.2777 5.71406L18.3493 5.47969L18.3482 4.62031L18.3471 3.76094L18.2764 3.5077L18.2058 3.25445L18.0892 3.01941L17.9726 2.78437L17.8132 2.57773L17.6538 2.37109L17.4352 2.19754L17.2165 2.02395L16.9821 1.90922L16.7478 1.79453L16.5134 1.72426L16.279 1.65402L10.1462 1.6473L4.0134 1.64062L3.79348 1.6734ZM16.2497 3.43363L16.4209 3.51648L16.5257 3.67473L16.6306 3.83301L16.6432 4.41219L16.6557 4.99141H10.0095H3.36324L3.37582 4.41219L3.3884 3.83301L3.49262 3.67566L3.59687 3.51836L3.76605 3.43461L3.93527 3.35086L10.0069 3.35082L16.0786 3.35078L16.2497 3.43363ZM13.2236 8.94648L10.9497 11.2219L10.8898 11.3671L10.8298 11.5123V13.4183V15.3243L10.0288 15.7243L9.22773 16.1242H9.20848H9.18918V13.8183V11.5123L9.12922 11.3671L9.06926 11.2219L6.79535 8.94648L4.52145 6.67109H10.0095H15.4975L13.2236 8.94648Z" fill="#D1D4DB"/>
</svg>
