<svg width="30" height="30" viewBox="0 0 30 30" fill="none" xmlns="http://www.w3.org/2000/svg">
<path fill-rule="evenodd" clip-rule="evenodd" d="M2.45026 2.07523L2.22004 2.1504L1.9813 2.29031L1.74261 2.43017L1.54468 2.6493L1.34675 2.86838L1.24027 3.07707L1.13379 3.28571L1.06692 3.62585L1 3.96593L1.06681 4.30558L1.13363 4.64517L1.25967 4.89391L1.3857 5.14271L1.66613 5.405L1.94655 5.66723L2.20425 5.78633L2.46195 5.90537L3.08126 5.90657L3.70057 5.90777L4.18002 6.99921L4.65942 8.09065L4.99125 8.33649L5.32309 8.58234L5.36493 8.62522L5.40678 8.66811L4.67242 9.40395L3.93811 10.1398L4.52464 10.7264L5.11122 11.3129L5.89989 10.5257L6.6885 9.73841L7.4315 10.439L8.17449 11.1396L8.15909 11.1828L8.14368 11.226L7.62468 11.5515L7.10567 11.877L7.0889 12.7155L7.07213 13.5539L7.13244 14.3733L7.19276 15.1928L7.30219 15.9771L7.41156 16.7612L7.54153 17.3995L7.67155 18.0378L7.80966 18.5821L7.94783 19.1263L8.17346 19.8316L8.39909 20.5368L5.63258 23.3037L2.86607 26.0706L2.95899 26.9417L3.05198 27.8128L3.08978 27.8561L3.12759 27.8993L4.02399 28.0029L4.92039 28.1065L7.30175 25.7288L9.68305 23.3511L10.0491 23.9703L10.4152 24.5895L10.7545 25.0633L11.0938 25.5371L11.4479 25.992L11.8021 26.447L12.6498 27.294L13.4976 28.1409L13.8391 28.4039L14.1805 28.6669L14.1792 25.6994L14.1778 22.732L13.8198 22.1857L13.4618 21.6394L13.0052 20.7106L12.5485 19.7819L12.2934 19.0717L12.0383 18.3615L11.8547 17.6513L11.6711 16.941L11.5635 16.3841L11.4561 15.8271L11.3603 15.0858L11.2645 14.3447L11.3234 14.2858L11.3823 14.2269L12.0848 13.9894L12.7874 13.752L13.4157 13.6314L14.0439 13.5107L14.1122 13.493L14.1805 13.4753V11.4028V9.33025L13.9483 9.35565L13.7161 9.38106L13.1425 9.46497L12.5689 9.54883L11.9406 9.71322L11.3123 9.87761L11.1758 9.90214L11.0392 9.92672L9.90545 8.78956L8.77173 7.65239L9.5639 6.86165L10.3561 6.07085L9.76969 5.48268L9.18333 4.89446L8.43323 5.64314L7.68313 6.39176L7.66297 6.36712L7.64287 6.34243L7.39216 5.98732L7.14151 5.63221L6.01729 5.14183L4.89308 4.65146V4.6166V4.5818L4.94771 4.29373L5.00234 4.00571L4.94984 3.67966L4.89734 3.35362L4.78338 3.11826L4.66941 2.88285L4.45061 2.63422L4.23176 2.38559L3.87599 2.2105L3.52023 2.03535L3.10033 2.0177L2.68048 2L2.45026 2.07523ZM26.4337 2.07523L26.2035 2.1504L25.9611 2.29245L25.7187 2.43449L25.4966 2.68683L25.2745 2.93918L25.1602 3.24463L25.0459 3.55002L25.0355 3.85361L25.025 4.15715L25.0674 4.4037L25.1097 4.6502L23.9841 5.14123L22.8585 5.63221L22.6078 5.98732L22.3571 6.34243L22.337 6.36712L22.3169 6.39176L21.5668 5.64314L20.8167 4.89446L20.2303 5.48268L19.6439 6.07085L20.4335 6.85908L21.2231 7.64726L20.1193 8.77038L19.0155 9.89351L18.8516 9.88744L18.6877 9.88143L18.0594 9.71513L17.4311 9.54883L16.8575 9.46497L16.2839 9.38106L16.0517 9.35565L15.8195 9.33025V11.4028V13.4753L15.8878 13.4948L15.9561 13.5143L16.5691 13.6292L17.1823 13.7441L17.9043 13.9899L18.6264 14.2356L18.6802 14.2894L18.734 14.3432L18.6372 15.0958L18.5403 15.8484L18.4105 16.504L18.2806 17.1596L18.0933 17.8425L17.9059 18.5254L17.646 19.231L17.3861 19.9367L16.9616 20.7881L16.537 21.6394L16.1796 22.1857L15.8222 22.732L15.8208 25.6994L15.8195 28.6669L16.1609 28.4037L16.5024 28.1406L17.3254 27.3211L18.1484 26.5016L18.5161 26.0373L18.8836 25.5729L19.2227 25.0944L19.5618 24.616L19.9288 24.0018L20.2958 23.3876L20.3447 23.3057L20.3937 23.2237L22.8041 25.5924L25.2145 27.9611L26.1441 27.8627L27.0737 27.7644L27.0765 27.6793L27.0792 27.5943L27.1757 26.7558L27.2723 25.9174L24.4643 23.145L21.6564 20.3726L21.8766 19.6675L22.0969 18.9624L22.2118 18.5046L22.3266 18.0468L22.4575 17.404L22.5884 16.7612L22.6978 15.9771L22.8072 15.1928L22.8676 14.3733L22.9279 13.5539L22.9111 12.7148L22.8943 11.8756L22.3599 11.5422L21.8255 11.2087L22.5645 10.4697L23.3036 9.73054L24.0962 10.5217L24.8888 11.3129L25.4754 10.7264L26.0619 10.1398L25.3276 9.40395L24.5932 8.66811L24.6351 8.62522L24.6769 8.58234L25.0095 8.33649L25.342 8.09065L25.8183 6.99921L26.2947 5.90772L26.9163 5.90657L27.538 5.90537L27.8389 5.75759L28.1397 5.60987L28.3772 5.37517L28.6147 5.14052L28.7406 4.89287L28.8664 4.64517L28.9332 4.30558L29 3.96593L28.9335 3.62448L28.8669 3.28303L28.7253 3.02145L28.5837 2.75982L28.3436 2.53851L28.1035 2.31719L27.7945 2.17575L27.4856 2.03431L27.0748 2.01715L26.6639 2L26.4337 2.07523ZM14.199 15.1658L13.917 15.207L13.5024 15.2992L13.0879 15.3915V15.4638V15.5361L13.2005 16.102L13.3131 16.6679L13.4465 17.1974L13.5799 17.7269L13.8027 18.372L14.0255 19.0171L14.4849 19.9595L14.9444 20.9019H15H15.0556L15.5155 19.9595L15.9753 19.0171L16.2189 18.3068L16.4626 17.5966L16.6568 16.7498L16.8512 15.903L16.887 15.6491L16.9228 15.3952L16.5401 15.3081L16.1573 15.2211L15.7835 15.1671L15.4097 15.113L14.9454 15.1188L14.481 15.1245L14.199 15.1658Z" fill="white"/>
</svg>
