<svg width="20" height="20" viewBox="0 0 20 20" fill="none" xmlns="http://www.w3.org/2000/svg">
<path fill-rule="evenodd" clip-rule="evenodd" d="M9.2934 0.856484L9.06328 0.892656L8.70301 0.99082L8.3427 1.08898L8.19094 1.15164L8.03914 1.21434L7.72664 1.37066L7.41414 1.52695L7.21883 1.66508L7.02352 1.8032L6.75414 2.02184L6.48477 2.24043L6.22352 2.55359L5.96227 2.86676L5.83871 3.04938L5.7152 3.23199L5.54129 3.57684L5.36734 3.92172L5.25266 4.27316L5.13801 4.62457L5.07488 4.99277L5.0118 5.36098V5.81598V6.27098L5.07461 6.63918L5.13738 7.00738L5.2327 7.31063L5.32801 7.61383L5.44508 7.87477L5.56215 8.1357L5.70387 8.37234L5.84562 8.60895L6.09156 8.92691L6.3375 9.24492L6.61367 9.49699L6.88984 9.74906L6.37074 10.0049L5.85164 10.2607L5.44148 10.5318L5.03133 10.8028L4.73836 11.0395L4.44539 11.2762L4.0325 11.7004L3.61961 12.1246L3.34633 12.4957L3.07305 12.8668L2.8923 13.1597L2.71156 13.4527L2.49605 13.9019L2.28051 14.3511L2.14656 14.7222L2.01262 15.0933L1.91289 15.5035L1.81312 15.9136L1.75156 16.3238L1.69 16.7339L1.66531 17.5166L1.64062 18.2993L1.68867 18.4995L1.73668 18.6997L1.87793 18.8647L2.01914 19.0297L2.17758 19.1017L2.33602 19.1736H10.0118H17.6876L17.846 19.1017L18.0045 19.0297L18.1457 18.8647L18.2869 18.6997L18.335 18.4995L18.383 18.2993L18.3593 17.5332L18.3355 16.7671L18.273 16.3404L18.2105 15.9136L18.1111 15.5035L18.0117 15.0933L17.8549 14.6636L17.6981 14.2339L17.4507 13.7457L17.2033 13.2574L16.97 12.9058L16.7366 12.5543L16.4841 12.2418L16.2316 11.9293L15.8073 11.5175L15.3829 11.1057L15.0595 10.8605L14.7361 10.6154L14.4149 10.416L14.0938 10.2166L13.6159 9.98535L13.138 9.7541L13.4504 9.4602L13.7628 9.16629L13.9945 8.85883L14.2261 8.55137L14.3695 8.29508L14.5128 8.03879L14.6413 7.73406L14.7698 7.42934L14.8755 7.02305L14.9812 6.61676L15.0008 5.99176L15.0204 5.36676L14.9583 5.00988L14.8962 4.65305L14.7936 4.32629L14.6911 3.99957L14.5577 3.70906L14.4242 3.41855L14.1627 3.02547L13.9011 2.63238L13.5482 2.27953L13.1954 1.92668L12.8024 1.6652L12.4095 1.40375L12.1491 1.2857L11.8887 1.16762L11.5977 1.06992L11.3066 0.972227L11.0401 0.912031L10.7735 0.851836L10.1485 0.836055L9.52352 0.820312L9.2934 0.856484ZM10.8298 2.61676L11.1251 2.69176L11.4452 2.84477L11.7652 2.99777L11.9725 3.15117L12.1798 3.30457L12.4399 3.5807L12.7 3.85684L12.8582 4.12352L13.0163 4.3902L13.1134 4.64898L13.2106 4.90777L13.2761 5.25445L13.3416 5.60113L13.3187 5.99176L13.2957 6.38238L13.2313 6.63629L13.167 6.8902L13.016 7.21613L12.865 7.54203L12.6931 7.78254L12.5212 8.02301L12.3065 8.2257L12.0918 8.4284L11.7955 8.62187L11.4991 8.81535L11.1754 8.93195L10.8516 9.04856L10.5725 9.09797L10.2934 9.14734L9.83031 9.1266L9.36727 9.10582L9.03523 9.00047L8.7032 8.89508L8.45203 8.75867L8.20086 8.62223L7.98328 8.45457L7.7657 8.28695L7.58828 8.09637L7.4109 7.90582L7.28395 7.72063L7.15699 7.53547L7.00066 7.20969L6.84434 6.88391L6.76844 6.51598L6.6925 6.14801V5.83551V5.52301L6.76559 5.16891L6.83867 4.8148L6.95523 4.53738L7.0718 4.25996L7.2532 3.98707L7.43461 3.71422L7.75918 3.4077L8.08375 3.10113L8.43254 2.91895L8.78133 2.73676L9.05715 2.65371L9.33293 2.57066L9.58449 2.53598L9.83602 2.50133L10.1853 2.52152L10.5346 2.54176L10.8298 2.61676ZM11.3163 10.9707L11.7027 11.0543L12.078 11.1739L12.4532 11.2935L12.862 11.4857L13.2707 11.6778L13.7214 11.9762L14.172 12.2746L14.7024 12.805L15.2329 13.3355L15.5304 13.7848L15.8279 14.234L16.0036 14.6051L16.1793 14.9761L16.316 15.3863L16.4527 15.7964L16.5363 16.2066L16.6198 16.6168L16.6419 17.0562L16.664 17.4957H10.0118H3.35957L3.38168 17.0562L3.40379 16.6168L3.48734 16.2066L3.5709 15.7964L3.70676 15.3863L3.84266 14.9761L4.03539 14.5796L4.22813 14.1832L4.51023 13.7593L4.79234 13.3355L5.32199 12.8071L5.85164 12.2787L6.2032 12.0403L6.55477 11.8018L6.92586 11.6055L7.29695 11.4091L7.66805 11.272L8.03914 11.1348L8.36836 11.0509L8.69762 10.967L9.03242 10.9124L9.36727 10.8579L10.1485 10.8725L10.9298 10.8872L11.3163 10.9707Z" fill="#D1D4DB"/>
</svg>
