<svg width="20" height="20" viewBox="0 0 20 20" fill="none" xmlns="http://www.w3.org/2000/svg">
<path fill-rule="evenodd" clip-rule="evenodd" d="M2.59878 3.09997L2.23174 3.19615L1.89658 3.36294L1.56142 3.52978L1.27625 3.75954L0.991026 3.98925L0.761318 4.27447L0.531559 4.55964L0.365171 4.89394L0.198834 5.22819L0.0994169 5.61688L0 6.00558L0.000861764 10.3447L0.00177439 14.6839L0.0766034 15.0373L0.151483 15.3908L0.321926 15.7471L0.49237 16.1034L0.730799 16.4186L0.969227 16.7337L1.25774 16.9658L1.54626 17.1979L1.95184 17.3954L2.35741 17.5929L2.76299 17.6735L3.16857 17.7541L10.1901 17.7399L17.2117 17.7257L17.5665 17.6072L17.9214 17.4886L18.2509 17.3074L18.5805 17.1263L18.9905 16.7162L19.4006 16.3062L19.5821 15.9767L19.7636 15.6471L19.8818 15.2669L20 14.8867V10.3493V5.81191L19.8624 5.40634L19.7248 5.00076L19.5501 4.71067L19.3754 4.42053L19.1867 4.19027L18.9979 3.95995L18.6878 3.72527L18.3777 3.4906L18.0213 3.32015L17.665 3.14971L17.3116 3.07483L16.9582 3L9.96198 3.00188L2.96578 3.0038L2.59878 3.09997ZM17.2095 4.7597L17.4608 4.84867L17.7312 5.10215L18.0016 5.35564L15.8576 6.4545L13.7136 7.55336L12.4208 8.20862L11.128 8.86383L10.6859 8.95513L10.2439 9.04639L9.79873 9.01607L9.35361 8.98575L9.07478 8.90296L8.79594 8.82018L5.95691 7.37019L3.11787 5.9202L2.56122 5.62768L2.00461 5.33521L2.2398 5.10986L2.47498 4.88451L2.7457 4.78053L3.01648 4.6765L9.98733 4.67361L16.9582 4.67072L17.2095 4.7597ZM4.91133 8.68279L7.97227 10.2551L8.41131 10.3986L8.85039 10.5421L9.34905 10.6048L9.84771 10.6676L10.3104 10.6348L10.7731 10.6019L11.1817 10.504L11.5902 10.4062L11.8496 10.3039L12.109 10.2017L15.1181 8.65587L18.1272 7.11006L18.2157 7.07615L18.3041 7.04223L18.2902 10.9391L18.2763 14.836L18.1411 15.0895L18.006 15.343L17.7863 15.5531L17.5665 15.7633L17.3384 15.8826L17.1103 16.002H10.0127H2.91508L2.6616 15.8775L2.40811 15.7529L2.17779 15.5226L1.94748 15.2923L1.82292 15.0388L1.69835 14.7853L1.68477 10.9139L1.67113 7.04243L1.76081 7.07645L1.85044 7.11047L4.91133 8.68279Z" fill="white"/>
</svg>
