<svg width="114" height="40" viewBox="0 0 114 40" fill="none" xmlns="http://www.w3.org/2000/svg">
<g clip-path="url(#clip0_290_164)">
<path fill-rule="evenodd" clip-rule="evenodd" d="M16.1803 12.1417C16.0513 12.2431 15.9253 12.3475 15.8019 12.4547C13.6947 14.2883 12.3609 16.9875 12.3609 20C12.3609 23.0122 13.6947 25.7113 15.8019 27.545C15.9253 27.6522 16.0513 27.7563 16.1803 27.8581C16.3091 27.7563 16.4353 27.6522 16.5587 27.545C18.6659 25.7113 19.9997 23.0122 19.9997 20C19.9997 16.9875 18.6659 14.2883 16.5587 12.4547C16.4353 12.3475 16.3091 12.2431 16.1803 12.1417ZM22.3606 10C20.3131 10 18.4097 10.6156 16.8247 11.6711C16.9059 11.7375 16.9878 11.8031 17.0663 11.8714C19.4222 13.9208 20.7734 16.8836 20.7734 20C20.7734 23.1159 19.4222 26.0787 17.0666 28.1284C16.9884 28.1962 16.9059 28.2619 16.8247 28.3287C18.4097 29.3841 20.3131 29.9997 22.3606 29.9997C27.8834 29.9997 32.3606 25.5225 32.3606 20C32.3606 14.4769 27.8834 10 22.3606 10ZM15.2941 28.1284C15.3722 28.1962 15.4547 28.2619 15.5359 28.3287C13.9509 29.3844 12.0475 30 10 30C4.47694 30 0 25.5225 0 20C0 14.4772 4.47694 10 10 10C12.0472 10 13.9506 10.6156 15.5359 11.6711C15.4547 11.7375 15.3728 11.8031 15.2941 11.8711C12.9384 13.9208 11.5872 16.8836 11.5872 20C11.5872 23.1162 12.9384 26.0788 15.2941 28.1284ZM52.3325 20.0431C52.3325 18.8744 53.0975 17.9144 54.3497 17.9144C55.5463 17.9144 56.3534 18.8328 56.3534 20.0431C56.3534 21.2534 55.5463 22.1716 54.3497 22.1716C53.0975 22.1716 52.3325 21.2119 52.3325 20.0431ZM57.7166 20.0431V16.7181H56.2697V17.5247C55.8106 16.9267 55.115 16.5511 54.1688 16.5511C52.3044 16.5511 50.8438 18.0119 50.8438 20.0431C50.8438 22.0744 52.3044 23.5353 54.1688 23.5353C55.115 23.5353 55.8106 23.1597 56.2697 22.5613V23.3687H57.7166V20.0431ZM106.579 20.0431C106.579 18.8744 107.344 17.9144 108.597 17.9144C109.793 17.9144 110.6 18.8328 110.6 20.0431C110.6 21.2534 109.793 22.1716 108.597 22.1716C107.344 22.1716 106.579 21.2119 106.579 20.0431ZM113.583 23.0528V23.1572H113.679C113.701 23.1572 113.718 23.1528 113.731 23.1441C113.744 23.1356 113.751 23.1222 113.751 23.1041C113.751 23.0872 113.744 23.0741 113.731 23.0656C113.718 23.0566 113.701 23.0528 113.679 23.0528H113.583ZM113.68 22.9791C113.73 22.9791 113.768 22.9903 113.796 23.0128C113.823 23.035 113.837 23.0659 113.837 23.1041C113.837 23.1369 113.826 23.1634 113.804 23.1844C113.783 23.2056 113.751 23.2184 113.712 23.2234L113.84 23.3712H113.739L113.62 23.2241H113.583V23.3712H113.498V22.9791H113.68ZM113.655 23.5059C113.7 23.5059 113.742 23.4969 113.782 23.48C113.821 23.4625 113.856 23.4388 113.886 23.4094C113.915 23.38 113.938 23.345 113.955 23.305C113.972 23.265 113.981 23.2222 113.981 23.1766C113.981 23.1312 113.972 23.0887 113.955 23.0484C113.938 23.0087 113.915 22.9738 113.886 22.9438C113.856 22.9144 113.821 22.8912 113.782 22.8741C113.742 22.8572 113.7 22.8487 113.655 22.8487C113.609 22.8487 113.565 22.8572 113.525 22.8741C113.485 22.8912 113.449 22.9144 113.42 22.9438C113.39 22.9738 113.367 23.0087 113.35 23.0484C113.333 23.0887 113.324 23.1312 113.324 23.1766C113.324 23.2222 113.333 23.265 113.35 23.305C113.367 23.345 113.39 23.38 113.42 23.4094C113.449 23.4388 113.485 23.4625 113.525 23.48C113.565 23.4969 113.609 23.5059 113.655 23.5059ZM113.655 22.7547C113.714 22.7547 113.77 22.7659 113.822 22.7878C113.874 22.81 113.919 22.84 113.958 22.8784C113.997 22.9166 114.028 22.9613 114.05 23.0128C114.073 23.0641 114.085 23.1187 114.085 23.1766C114.085 23.2347 114.073 23.2891 114.05 23.3403C114.028 23.3913 113.997 23.4359 113.958 23.4738C113.919 23.5125 113.874 23.5425 113.822 23.5653C113.77 23.5878 113.714 23.5988 113.655 23.5988C113.594 23.5988 113.538 23.5878 113.485 23.5653C113.432 23.5425 113.387 23.5125 113.347 23.4738C113.309 23.4359 113.278 23.3913 113.256 23.3403C113.234 23.2891 113.222 23.2347 113.222 23.1766C113.222 23.1187 113.234 23.0641 113.256 23.0128C113.278 22.9613 113.309 22.9166 113.347 22.8784C113.387 22.84 113.432 22.81 113.485 22.7878C113.538 22.7659 113.594 22.7547 113.655 22.7547ZM111.963 20.0431V14.0467H110.516V17.5247C110.058 16.9267 109.362 16.5511 108.415 16.5511C106.551 16.5511 105.09 18.0119 105.09 20.0431C105.09 22.0744 106.551 23.5353 108.415 23.5353C109.362 23.5353 110.058 23.1597 110.516 22.5613V23.3687H111.963V20.0431ZM75.6644 17.845C76.5966 17.845 77.195 18.4292 77.3481 19.4589H73.8975C74.0506 18.4989 74.635 17.845 75.6644 17.845ZM75.6925 16.5511C73.7444 16.5511 72.3812 17.97 72.3812 20.0431C72.3812 22.1581 73.8 23.5353 75.7897 23.5353C76.7916 23.5353 77.7097 23.285 78.5169 22.6034L77.8072 21.5316C77.2506 21.9772 76.5412 22.2275 75.8731 22.2275C74.9412 22.2275 74.0922 21.7962 73.8837 20.5997H78.8228C78.8366 20.4187 78.8506 20.2381 78.8506 20.0431C78.8366 17.97 77.5569 16.5511 75.6925 16.5511ZM93.1531 20.0431C93.1531 18.8744 93.9184 17.9144 95.1706 17.9144C96.3673 17.9144 97.174 18.8328 97.174 20.0431C97.174 21.2534 96.3673 22.1716 95.1706 22.1716C93.9184 22.1716 93.1531 21.2119 93.1531 20.0431ZM98.5375 20.0431V16.7181H97.0904V17.5247C96.6317 16.9267 95.9359 16.5511 94.9894 16.5511C93.1253 16.5511 91.6644 18.0119 91.6644 20.0431C91.6644 22.0744 93.1253 23.5353 94.9894 23.5353C95.9359 23.5353 96.6317 23.1597 97.0904 22.5613V23.3687H98.5375V20.0431ZM84.9862 20.0431C84.9862 22.0606 86.3913 23.5353 88.5341 23.5353C89.5359 23.5353 90.2037 23.3125 90.9269 22.7422L90.2313 21.5737C89.6887 21.9634 89.1184 22.1716 88.4922 22.1716C87.3378 22.1581 86.4889 21.3231 86.4889 20.0431C86.4889 18.7631 87.3378 17.9283 88.4922 17.9144C89.1184 17.9144 89.6887 18.1231 90.2313 18.5128L90.9269 17.3442C90.2037 16.7736 89.5359 16.5511 88.5341 16.5511C86.3913 16.5511 84.9862 18.0258 84.9862 20.0431ZM103.63 16.5511C102.795 16.5511 102.252 16.9406 101.877 17.5247V16.7181H100.443V23.3687H101.89V19.6397C101.89 18.5406 102.363 17.9283 103.31 17.9283C103.602 17.9283 103.908 17.97 104.213 18.0953L104.66 16.7319C104.339 16.6067 103.922 16.5511 103.63 16.5511ZM64.8681 17.2467C64.1722 16.7875 63.2122 16.5511 62.155 16.5511C60.4713 16.5511 59.3862 17.3578 59.3862 18.6797C59.3862 19.765 60.1934 20.4328 61.6816 20.6413L62.3637 20.7388C63.1566 20.85 63.5322 21.0587 63.5322 21.4344C63.5322 21.9491 63.0037 22.2413 62.0159 22.2413C61.0141 22.2413 60.2906 21.9213 59.8034 21.5459L59.1216 22.6728C59.915 23.2569 60.9166 23.5353 62.0019 23.5353C63.9219 23.5353 65.0347 22.6309 65.0347 21.365C65.0347 20.1962 64.1584 19.5839 62.7113 19.3753L62.0297 19.2778C61.4037 19.1944 60.9028 19.0692 60.9028 18.6242C60.9028 18.1369 61.3759 17.845 62.1688 17.845C63.0175 17.845 63.8384 18.165 64.2419 18.4153L64.8681 17.2467ZM83.5253 16.5511C82.6906 16.5511 82.1481 16.9406 81.7722 17.5247V16.7181H80.3391V23.3687H81.7861V19.6397C81.7861 18.5406 82.2591 17.9283 83.2056 17.9283C83.4975 17.9283 83.8037 17.97 84.1097 18.0953L84.555 16.7319C84.235 16.6067 83.8175 16.5511 83.5253 16.5511ZM71.1844 16.7181H68.8191V14.7006H67.3587V16.7181H66.0089V18.0397H67.3587V21.0728C67.3587 22.6169 67.9566 23.5353 69.6678 23.5353C70.2941 23.5353 71.0175 23.3406 71.4766 23.0206L71.0594 21.7825C70.6278 22.0328 70.1547 22.1581 69.7794 22.1581C69.0559 22.1581 68.8191 21.7128 68.8191 21.0447V18.0397H71.1844V16.7181ZM49.5637 23.3687V19.1944C49.5637 17.6222 48.5619 16.565 46.9481 16.5511C46.0994 16.5372 45.2228 16.8014 44.6109 17.7336C44.1516 16.9964 43.4281 16.5511 42.4125 16.5511C41.7028 16.5511 41.0072 16.7597 40.4647 17.5389V16.7181H39.0175V23.3687H40.4786V19.6813C40.4786 18.5267 41.1187 17.9144 42.1063 17.9144C43.0663 17.9144 43.5534 18.5406 43.5534 19.6675V23.3687H45.0141V19.6813C45.0141 18.5267 45.6819 17.9144 46.6419 17.9144C47.6297 17.9144 48.1028 18.5406 48.1028 19.6675V23.3687H49.5637ZM32.0481 26.1963V25.8084H31.9469L31.8303 26.0753L31.7137 25.8084H31.6125V26.1963H31.6838V25.9037L31.7934 26.1562H31.8675L31.9766 25.9031V26.1963H32.0481ZM31.4063 26.1963V25.8744H31.5362V25.8091H31.2056V25.8744H31.3356V26.1963H31.4063Z" fill="#82858F"/>
</g>
<defs>
<clipPath id="clip0_290_164">
<rect width="114" height="40" fill="white"/>
</clipPath>
</defs>
</svg>
