<svg width="58" height="40" viewBox="0 0 58 40" fill="none" xmlns="http://www.w3.org/2000/svg">
<path fill-rule="evenodd" clip-rule="evenodd" d="M41.7705 19.2285V27.9999H46.6435V22.802H52.1662C54.4905 22.7848 56.465 21.3 57.2095 19.2285H41.7705Z" fill="#82858F"/>
<path fill-rule="evenodd" clip-rule="evenodd" d="M41.1206 12C41.4044 15.5852 44.7963 18.4161 48.9387 18.4161C48.9523 18.4161 57.4118 18.4161 57.4118 18.4161C57.4743 18.0873 57.507 17.7479 57.507 17.4009C57.507 14.4309 55.1109 12.022 52.1468 12.0001L41.1206 12Z" fill="#82858F"/>
<path fill-rule="evenodd" clip-rule="evenodd" d="M33.9087 18.3308L33.9125 18.3226L33.913 18.3227C33.963 18.2331 34.0587 18.1724 34.1686 18.1724C34.3274 18.1724 34.4566 18.2989 34.4609 18.4567L34.461 18.4567V27.9184H39.334V12H34.461C33.8431 12.0206 33.1449 12.474 32.8853 13.0307L29.0074 21.3469C28.9978 21.3809 28.9828 21.4127 28.9634 21.4412L28.9622 21.4439L28.9616 21.4438C28.903 21.5282 28.8053 21.5835 28.6947 21.5835C28.5152 21.5835 28.3698 21.4381 28.3698 21.2586V12H23.4968V27.9184H28.3698V27.9165C28.981 27.8846 29.6628 27.4363 29.9186 26.8877L33.8987 18.3522C33.9018 18.3449 33.9051 18.3378 33.9087 18.3308Z" fill="#82858F"/>
<path fill-rule="evenodd" clip-rule="evenodd" d="M15.7126 18.6029L12.8645 27.9184H9.35903L6.50927 18.5972C6.48179 18.4479 6.35099 18.3349 6.19377 18.3349C6.0166 18.3349 5.87297 18.4785 5.87297 18.6557C5.87297 18.657 5.87298 18.6584 5.873 18.6597L5.87297 27.9184H1V12H5.18263H6.4283C7.32495 12 8.26456 12.6958 8.52658 13.5529L10.8981 21.3099C11.0161 21.6958 11.2076 21.6954 11.3254 21.3099L13.697 13.5529C13.9592 12.6952 14.8985 12 15.7953 12L17.0406 12H21.2228V27.9184H16.3499V18.6597C16.3498 18.6584 16.3499 18.657 16.3499 18.6557C16.3499 18.4785 16.2062 18.3349 16.0291 18.3349C15.8699 18.3349 15.7378 18.4508 15.7126 18.6029Z" fill="#82858F"/>
</svg>
