<svg width="24" height="24" viewBox="0 0 24 24" fill="none" xmlns="http://www.w3.org/2000/svg">
<path d="M16.0829 14.7657C15.9985 14.7704 15.9188 14.7704 15.8345 14.7704C14.4704 14.7704 13.186 14.2407 12.2204 13.2751C11.2548 12.3095 10.7251 11.0251 10.7251 9.66104C10.7251 8.88291 10.8985 8.13291 11.222 7.45322C11.3673 7.15322 11.5407 6.86729 11.7423 6.6001C11.386 6.6376 11.0438 6.7126 10.711 6.81572C8.51729 7.50947 6.92822 9.55791 6.92822 11.9813C6.92822 14.972 9.35166 17.3954 12.3423 17.3954C13.997 17.3954 15.4735 16.6548 16.4673 15.4876C16.6923 15.2204 16.8985 14.9298 17.0673 14.6204C16.7485 14.7001 16.4204 14.7517 16.0829 14.7657Z" fill="#D1D4DB"/>
</svg>
