<svg width="30" height="30" viewBox="0 0 30 30" fill="none" xmlns="http://www.w3.org/2000/svg">
<g clip-path="url(#clip0_37_1816)">
<path fill-rule="evenodd" clip-rule="evenodd" d="M13.1659 0.079609L12.5354 0.159218L11.8051 0.311934L11.0748 0.464708L10.5276 0.634119L9.98033 0.80353L9.54001 0.96304L9.09969 1.12249L8.45388 1.42652L7.80808 1.73054L7.19679 2.09942L6.58557 2.46835L6.16938 2.76247L5.75324 3.0566L5.37163 3.37539L4.99002 3.69423L4.41267 4.26063L3.83532 4.82698L3.43762 5.29561L3.03998 5.76424L2.73551 6.19269L2.43105 6.6212L2.02642 7.29767L1.62173 7.97414L1.30218 8.68511L0.982622 9.39615L0.765338 10.0405L0.547995 10.6849L0.380086 11.3878L0.212118 12.0908L0.106088 12.7644L0 13.4381V14.9905V16.5428L0.106088 17.2165L0.212118 17.8901L0.379968 18.5931L0.547819 19.296L0.763753 19.9404L0.979687 20.5848L1.29349 21.278L1.60723 21.9713L1.97158 22.5961L2.33588 23.2208L2.68772 23.7187L3.03957 24.2167L3.43744 24.6853L3.83532 25.1539L4.41267 25.7235L4.99002 26.293L5.54776 26.7366L6.1055 27.1801L6.58105 27.4959L7.05665 27.8117L7.63782 28.1357L8.21905 28.4596L8.89421 28.7472L9.56937 29.0349L10.2106 29.2465L10.8518 29.4581L11.5132 29.6061L12.1747 29.7541L12.7507 29.8465L13.3268 29.9387L14.6184 29.9694L15.91 30L16.7146 29.9067L17.5192 29.8135L18.1236 29.6887L18.7281 29.5639L19.2271 29.4218L19.7261 29.2795L20.3719 29.0404L21.0177 28.8011L21.6048 28.5257L22.1919 28.2504L22.8084 27.879L23.4248 27.5077L24.0119 27.0761L24.599 26.6445L25.1274 26.163L25.6558 25.6814L26.1697 25.1248L26.6837 24.5681L27.1006 24.0116L27.5174 23.4551L27.9352 22.7522L28.353 22.0492L28.6858 21.317L29.0186 20.5848L29.2353 19.9404L29.452 19.296L29.6199 18.5931L29.7879 17.8901L29.8939 17.2165L30 16.5428V14.9905V13.4381L29.8939 12.7644L29.7879 12.0908L29.6199 11.3878L29.452 10.6849L29.2344 10.0405L29.0168 9.39615L28.7302 8.75465L28.4436 8.11321L28.1134 7.53134L27.7831 6.94942L27.4578 6.47399L27.1324 5.99856L26.8283 5.61779L26.5242 5.23703L26.1076 4.78017L25.6909 4.32331L25.233 3.90752L24.7751 3.49178L24.3935 3.186L24.0119 2.88022L23.4835 2.52851L22.9551 2.1768L22.4268 1.87805L21.8984 1.57935L21.2503 1.28991L20.6024 1.00047L19.9587 0.785429L19.3152 0.570385L18.6106 0.403141L17.9061 0.235957L17.2897 0.138481L16.6732 0.0409468L15.2348 0.0205027L13.7965 0L13.1659 0.079609ZM16.7906 2.48276L17.3777 2.56477L17.9355 2.6882L18.4932 2.81162L19.1713 3.03715L19.8493 3.26274L20.414 3.52605L20.9787 3.78937L21.5266 4.11167L22.0745 4.43397L22.6616 4.87308L23.2487 5.31213L23.7312 5.7612L24.2137 6.21032L24.6417 6.71949L25.0696 7.22872L25.4013 7.69852L25.7329 8.16833L26.0817 8.79413L26.4305 9.41987L26.7393 10.1916L27.0482 10.9633L27.2445 11.7407L27.4407 12.5181L27.5404 13.2124L27.6401 13.9067V14.9905V16.0742L27.5428 16.7512L27.4455 17.4283L27.2742 18.1278L27.1029 18.8274L26.9006 19.3839L26.6984 19.9404L26.4371 20.4969L26.1758 21.0534L25.8374 21.6099L25.4991 22.1664L25.0932 22.6936L24.6873 23.2208L24.4321 23.507L24.1769 23.7933L23.9588 23.435L23.7407 23.0768L23.3424 22.563L22.944 22.0492L22.3001 21.4342L21.6561 20.8191L21.1154 20.4383L20.5747 20.0575L20.0036 19.7502L19.4326 19.4429L18.8455 19.213L18.2584 18.983L17.677 18.8328L17.0956 18.6825L16.4147 18.5887L15.7339 18.4949L15.7094 18.4708L15.685 18.4466H15.8464H16.0079L16.4873 18.3249L16.9668 18.2032L17.4434 17.9809L17.9201 17.7585L18.2947 17.5063L18.6693 17.2542L19.0936 16.8461L19.5178 16.4379L19.8051 16.0217L20.0925 15.6055L20.2473 15.2992L20.402 14.9929L20.5156 14.6841L20.6293 14.3754L20.7336 13.9946L20.838 13.6138L20.8377 12.6473L20.8376 11.6807L20.7029 11.1828L20.5683 10.6849L20.3454 10.2093L20.1226 9.73368L19.8698 9.35989L19.6172 8.98609L19.2081 8.5628L18.799 8.13957L18.3659 7.84081L17.9328 7.54206L17.4498 7.3163L16.9668 7.09053L16.4677 6.95527L15.9687 6.82007L15 6.82119L14.0313 6.8223L13.6497 6.92639L13.2681 7.03049L12.9586 7.1439L12.6492 7.25731L12.3422 7.41166L12.0352 7.56608L11.618 7.85282L11.201 8.13957L10.7919 8.5628L10.3828 8.98609L10.1302 9.35989L9.87741 9.73368L9.65455 10.2093L9.43169 10.6849L9.29707 11.1828L9.16245 11.6807V12.6473V13.6138L9.29707 14.1118L9.43169 14.6097L9.65755 15.0916L9.8834 15.5736L10.1828 16.0057L10.4822 16.4379L10.9064 16.8461L11.3307 17.2542L11.6829 17.4908L12.0352 17.7274L12.3422 17.8824L12.6492 18.0373L12.9586 18.1507L13.2681 18.2641L13.6288 18.3554L13.9895 18.4466L14.1572 18.4535L14.3248 18.4604L14.0606 18.5093L13.7965 18.5582L13.2152 18.6497L12.634 18.7412L12.0117 18.9218L11.3894 19.1024L10.7652 19.38L10.1409 19.6576L9.65267 19.9431L9.16444 20.2288L8.69401 20.5768L8.22357 20.9248L7.64093 21.4871L7.0583 22.0492L6.65878 22.563L6.25926 23.0768L6.03998 23.437L5.8207 23.7972L5.56455 23.509L5.3084 23.2208L4.87237 22.6498L4.43633 22.0789L4.10626 21.5193L3.7762 20.9597L3.53989 20.45L3.30359 19.9404L3.13309 19.4798L2.9626 19.0191L2.82088 18.5132L2.67921 18.0073L2.56156 17.3922L2.44384 16.7771L2.37645 15.9277L2.30899 15.0783L2.34797 14.434L2.38701 13.7896L2.46686 13.2038L2.54664 12.618L2.66993 12.0615L2.79323 11.505L3.02513 10.822L3.25703 10.1389L3.51841 9.57698L3.77984 9.01509L4.10808 8.45859L4.43633 7.90203L4.88728 7.30177L5.33828 6.70151L6.01544 6.02679L6.6926 5.35208L7.25034 4.93336L7.80808 4.51469L8.36582 4.1771L8.92356 3.83951L9.4813 3.57877L10.039 3.3181L10.5968 3.11629L11.1545 2.91449L11.8556 2.74355L12.5567 2.57262L13.206 2.48545L13.8552 2.39835L14.1781 2.37462L14.501 2.3509L15.3523 2.37579L16.2035 2.40075L16.7906 2.48276ZM15.9456 9.28532L16.2623 9.37816L16.6732 9.59157L17.0842 9.80503L17.4664 10.1864L17.8486 10.5677L18.0629 10.9778L18.2772 11.3878L18.3819 11.7393L18.4866 12.0908V12.6473V13.2038L18.3819 13.5553L18.2772 13.9067L18.0629 14.3168L17.8486 14.7268L17.4664 15.1082L17.0842 15.4895L16.6732 15.7034L16.2623 15.9172L15.91 16.0217L15.5577 16.1261H15H14.4423L14.09 16.0217L13.7377 15.9172L13.3268 15.7034L12.9158 15.4895L12.5336 15.1082L12.1514 14.7268L11.9371 14.3168L11.7228 13.9067L11.6181 13.5553L11.5134 13.2038V12.6473V12.0908L11.6181 11.7393L11.7228 11.3878L11.9371 10.9778L12.1514 10.5677L12.5336 10.1864L12.9158 9.80503L13.3268 9.59116L13.7377 9.37734L14.0606 9.28701L14.3835 9.19669L14.5597 9.16986L14.7358 9.14297L15.1824 9.16769L15.629 9.19247L15.9456 9.28532ZM16.4622 21.0004L16.9668 21.088L17.5627 21.2868L18.1588 21.4856L18.6489 21.731L19.139 21.9763L19.6381 22.3168L20.1371 22.6573L20.5944 23.0778L21.0517 23.4984L21.4316 23.9839L21.8115 24.4694L22.0458 24.8693L22.28 25.2692V25.3404V25.4115L21.7956 25.7119L21.3113 26.0123L20.6068 26.3545L19.9022 26.6967L19.3739 26.8812L18.8455 27.0657L18.1444 27.237L17.4433 27.4083L16.7647 27.5061L16.0861 27.6039H15H13.9139L13.218 27.5037L12.5222 27.4035L11.7417 27.2074L10.9613 27.0112L10.2654 26.7359L9.56937 26.4605L9.07797 26.2024L8.58651 25.9443L8.15329 25.6749L7.72001 25.4054V25.3373V25.2692L7.95421 24.8693L8.18846 24.4694L8.56837 23.9839L8.94834 23.4984L9.40562 23.0765L9.86291 22.6545L10.3882 22.3028L10.9134 21.9511L11.3569 21.7287L11.8003 21.5063L12.2994 21.3308L12.7984 21.1553L13.2387 21.0584L13.679 20.9614L14.1487 20.9088L14.6184 20.8562L15.288 20.8845L15.9577 20.9128L16.4622 21.0004Z" fill="#82858F"/>
<circle cx="24" cy="5" r="5" fill="#121722"/>
<circle cx="24" cy="5" r="3" fill="#36AF7D"/>
</g>
<defs>
<clipPath id="clip0_37_1816">
<rect width="30" height="30" fill="white"/>
</clipPath>
</defs>
</svg>
