<svg width="30" height="30" viewBox="0 0 30 30" fill="none" xmlns="http://www.w3.org/2000/svg">
<path fill-rule="evenodd" clip-rule="evenodd" d="M5.52749 1.07924L5.23858 1.14919L4.81776 1.35716L4.39694 1.56514L3.98405 1.97984L3.57116 2.39453L3.37127 2.80469L3.17139 3.21484L3.0857 3.63637L3 4.05791V15V25.9421L3.0857 26.3636L3.17139 26.7852L3.37127 27.1953L3.57116 27.6055L3.98705 28.0232L4.40295 28.4409L4.86359 28.6608L5.32422 28.8808L5.61401 28.9404L5.9038 29H14.8125H23.7212L24.011 28.9404L24.3008 28.8808L24.7489 28.6668L25.1971 28.4529L25.5271 28.1474L25.8572 27.8418L26.0782 27.5049L26.2993 27.168L26.4294 26.7578L26.5594 26.3477L26.5985 26.0332L26.6376 25.7188H26.6001H26.5627L26.3209 25.8851L26.0792 26.0514L25.6274 26.2679L25.1758 26.4843L24.6289 26.6347L24.082 26.785L15.0586 26.7851L6.03516 26.7852L5.81641 26.6709L5.59766 26.5567L5.43359 26.3244L5.26953 26.0922V25.7188V25.3453L5.43359 25.1131L5.59766 24.8808L5.81641 24.7666L6.03516 24.6523L15.0312 24.625L24.0273 24.5977L24.3008 24.4964L24.5742 24.3951L24.9002 24.223L25.2263 24.0508L25.5417 23.7588L25.8572 23.4668L26.0782 23.1299L26.2993 22.793L26.4485 22.3555L26.5977 21.918L26.6129 13.0039L26.6281 4.08984L26.5412 3.65234L26.4543 3.21484L26.2535 2.80469L26.0527 2.39453L25.6416 1.97792L25.2305 1.56131L24.7656 1.34027L24.3008 1.11922L24.011 1.05961L23.7212 1L14.7688 1.00465L5.81641 1.0093L5.52749 1.07924ZM23.8086 3.32909L24.0273 3.44333L24.1914 3.67559L24.3555 3.90784V12.8075V21.7072L24.205 21.9345L24.0546 22.1619L23.8222 22.286L23.5898 22.4102L14.5938 22.4375L5.59766 22.4648L5.44371 22.5332L5.28977 22.6016H5.26598H5.24219V13.322V4.04232L5.35714 3.80487L5.47215 3.56736L5.64425 3.43677L5.81641 3.30617L6.00781 3.25143L6.19922 3.19669L14.8945 3.20577L23.5898 3.21484L23.8086 3.32909ZM13.809 6.35992L13.3798 6.46886L12.9614 6.68668L12.543 6.90455L12.2082 7.17559L11.8735 7.44667L11.6125 7.7917L11.3514 8.13672L11.1697 8.51953L10.9878 8.90234L10.9094 9.20794L10.8309 9.51353L10.7919 9.87786L10.7529 10.2422H11.8727H12.9926L13.0244 9.97302L13.0563 9.70384L13.1931 9.43391L13.3299 9.16402L13.608 8.91399L13.8861 8.66396L14.1716 8.56552L14.457 8.46703L14.85 8.47146L15.243 8.47595L15.544 8.62322L15.845 8.77044L16.1124 9.06307L16.3798 9.35565L16.4782 9.66841L16.5766 9.98111L16.5483 10.2933L16.52 10.6056L16.3972 10.8477L16.2746 11.0898L16.0122 11.418L15.7499 11.7461L15.0761 12.4028L14.4023 13.0595L14.189 13.3816L13.9756 13.7037L13.851 14.0647L13.7264 14.4258L13.6881 14.8223L13.65 15.2188H14.7781H15.9062V15.0582V14.8977L15.9625 14.7498L16.0187 14.6019L16.9085 13.6935L17.7983 12.7852L18.0205 12.457L18.2427 12.1289L18.3817 11.8541L18.5206 11.5793L18.6473 11.1705L18.7739 10.7617L18.7725 10.1875L18.7711 9.61328L18.6782 9.25781L18.5854 8.90234L18.3704 8.46484L18.1553 8.02734L17.8604 7.67188L17.5655 7.31641L17.2276 7.07031L16.8896 6.82422L16.603 6.67399L16.3164 6.52377L15.9609 6.40816L15.6055 6.29249L14.9219 6.27177L14.2383 6.25098L13.809 6.35992ZM13.6641 17.9531V19.0469H14.7852H15.9062V17.9531V16.8594H14.7852H13.6641V17.9531Z" fill="#D1D4DB"/>
</svg>
