<svg width="48" height="48" viewBox="0 0 48 48" fill="none" xmlns="http://www.w3.org/2000/svg">
<path fill-rule="evenodd" clip-rule="evenodd" d="M41.124 1.60378L39.624 1.67972L38.1242 1.83188L36.6244 1.98403L35.4992 2.16712L34.374 2.35022L33.1084 2.63184L31.8428 2.91347L30.4745 3.36966L29.1062 3.82584L28.1272 4.28766L27.1481 4.74947L26.2503 5.31375L25.3524 5.87803L24.707 6.39384L24.0615 6.90966L23.3442 7.58044L22.6269 8.25122L21.8342 9.16463L21.0415 10.0781L20.3115 11.0156L19.5816 11.9531L16.9465 12.0093L14.3115 12.0655L13.6553 12.2158L12.999 12.3661L12.3942 12.5664L11.7894 12.7669L11.0348 13.1443L10.2802 13.5218L9.67087 13.9477L9.0615 14.3737L6.17887 17.2379L3.29625 20.1023L3.14419 20.5002L2.99222 20.8982L3.05062 21.2069L3.10894 21.5156L3.29203 21.8157L3.47512 22.1159L3.78394 22.2845L4.09275 22.4531L8.46 22.5L12.8272 22.5469L11.9409 24.1406L11.0547 25.7344L10.0347 27.719L9.01462 29.7035L9.01669 29.969L9.01875 30.2344L9.19462 30.6094L9.3705 30.9844L13.2472 34.8483L17.124 38.7121L17.4726 38.8561L17.8211 39H18.0661H18.3112L20.2957 37.9799L22.2803 36.9599L23.874 36.0737L25.4678 35.1874L25.5146 39.5546L25.5615 43.9219L25.7302 44.2307L25.8987 44.5395L26.1989 44.7226L26.499 44.9057L26.8077 44.964L27.1164 45.0224L27.5144 44.8704L27.9124 44.7184L30.7767 41.8358L33.641 38.9531L34.0786 38.3308L34.5161 37.7085L34.9787 36.7371L35.4412 35.7656L35.6341 35.0156L35.8269 34.2656L35.9179 33.5625L36.0088 32.8594L36.0118 30.6563L36.0147 28.4531L36.835 27.83L37.6553 27.2069L38.6978 26.3108L39.7404 25.4148L40.4664 24.637L41.1923 23.8594L41.7504 23.13L42.3085 22.4007L42.7876 21.63L43.2667 20.8594L43.7118 19.9178L44.1569 18.976L44.5447 17.8553L44.9325 16.7344L45.2513 15.4414L45.57 14.1483L45.8068 12.7226L46.0436 11.2969L46.1843 9.89063L46.3251 8.48438L46.4198 6.51563L46.5143 4.54688L46.5144 3.65269L46.5146 2.7585L46.3037 2.34019L46.0928 1.92188L45.6744 1.71094L45.2561 1.5L43.9401 1.51397L42.624 1.52784L41.124 1.60378ZM43.5137 4.99219L43.5128 5.48438L43.4201 7.07813L43.3274 8.67188L43.1827 9.98438L43.0379 11.2969L42.8486 12.4219L42.6593 13.5469L42.4374 14.4844L42.2155 15.4219L41.9691 16.1994L41.7226 16.9769L41.3042 17.9758L40.8857 18.9746L40.4459 19.7247L40.0062 20.4747L39.4619 21.2089L38.9176 21.943L38.1939 22.7004L37.4703 23.4578L36.4378 24.3254L35.4053 25.1929L34.374 25.9647L33.3428 26.7365L31.7021 27.8398L30.0615 28.9431L28.7021 29.7866L27.3428 30.6302L26.3115 31.2396L25.2803 31.8488L23.9678 32.5979L22.6553 33.3469L20.8271 34.3367L18.999 35.3265L18.6437 35.4949L18.2884 35.6632L15.339 32.715L12.3896 29.7668V29.6781V29.5894L13.2937 27.8963L14.1979 26.2031L15.179 24.4688L16.1601 22.7344L17.3436 20.7656L18.5271 18.7969L19.9004 16.7344L21.2737 14.6719L22.0478 13.6406L22.8218 12.6094L23.6892 11.5768L24.5568 10.5443L25.2935 9.84159L26.0303 9.13884L26.6104 8.69344L27.1904 8.24803L27.9697 7.76447L28.749 7.28091L29.4521 6.95738L30.1553 6.63375L31.145 6.27797L32.1347 5.92219L33.3012 5.63578L34.4678 5.34938L35.9209 5.11669L37.374 4.88409L38.4521 4.77825L39.5303 4.67241L40.749 4.60013L41.9678 4.52784L42.7412 4.51397L43.5146 4.5L43.5137 4.99219ZM30.3428 10.6322L29.7803 10.7619L29.2944 10.9477L28.8085 11.1334L28.157 11.5666L27.5054 11.9997L27.1584 12.3838L26.8116 12.7678L26.4433 13.3375L26.0752 13.9072L25.8253 14.6646L25.5755 15.4219V16.5V17.5781L25.8253 18.3354L26.0752 19.0928L26.4535 19.6782L26.8319 20.2637L27.2914 20.7233L27.7509 21.1827L28.3364 21.5611L28.9218 21.9395L29.6792 22.1893L30.4365 22.4392H31.5146H32.5928L33.3501 22.1893L34.1075 21.9395L34.6928 21.5611L35.2783 21.1827L35.7379 20.7233L36.1973 20.2637L36.5757 19.6782L36.9541 19.0928L37.2039 18.3354L37.4538 17.5781V16.5V15.4219L37.2039 14.6646L36.9541 13.9072L36.5757 13.3218L36.1973 12.7363L35.7379 12.2768L35.2783 11.8173L34.6928 11.4389L34.1075 11.0605L33.3501 10.8197L32.5928 10.5788L31.749 10.5406L30.9053 10.5023L30.3428 10.6322ZM32.7518 13.7586L33.1921 13.9538L33.6264 14.3882L34.0609 14.8225L34.2634 15.2629L34.4659 15.7031L34.4668 16.5L34.4678 17.2969L34.2383 17.7632L34.0088 18.2295L33.6005 18.6379L33.1921 19.0463L32.7518 19.2488L32.3115 19.4513H31.5146H30.7178L30.2775 19.2488L29.8372 19.0463L29.4028 18.6118L28.9684 18.1775L28.7762 17.7429L28.5839 17.3083L28.5378 16.7333L28.4917 16.1584L28.6417 15.6423L28.7917 15.1262L29.1103 14.7089L29.429 14.2915L29.8084 14.0287L30.1878 13.7657L30.5933 13.6335L30.999 13.5013L31.6553 13.5323L32.3115 13.5634L32.7518 13.7586ZM16.2886 16.8047L15.1405 18.6094L14.8812 19.0547L14.6218 19.5H11.3741H8.12653L9.43772 18.1801L10.749 16.8603L11.3115 16.457L11.874 16.0537L12.383 15.798L12.8919 15.5423L13.2736 15.4045L13.6553 15.2666L14.2646 15.1421L14.874 15.0176L16.1553 15.0088L17.4366 15L16.2886 16.8047ZM32.9891 32.2479L32.9416 33.6094L32.7877 34.1719L32.6337 34.7344L32.306 35.4292L31.9782 36.1239L31.5663 36.6948L31.1543 37.2656L29.8345 38.5769L28.5146 39.8881V36.6519V33.4158L30.4131 32.2279L32.3115 31.04L32.6396 30.8112L32.9678 30.5824L33.0022 30.7344L33.0367 30.8865L32.9891 32.2479ZM6.69178 34.7356L6.10341 34.9621L5.59903 35.2968L5.09475 35.6316L4.44047 36.3203L3.78609 37.0092L3.405 37.6531L3.02381 38.2969L2.74134 38.9634L2.45888 39.6301L2.21644 40.4634L1.974 41.2969L1.79691 42.3281L1.61991 43.3594L1.55991 44.2969L1.5 45.2344L1.71825 45.6563L1.9365 46.0781L2.35838 46.2956L2.78025 46.5131L3.71775 46.4523L4.65525 46.3914L5.6865 46.216L6.71775 46.0406L7.5615 45.7962L8.40525 45.5518L9.21825 45.1943L10.0312 44.8367L10.681 44.4047L11.3308 43.9727L11.9888 43.28L12.6469 42.5873L13.0303 41.821L13.4138 41.0549L13.4735 40.7367L13.5332 40.4184L13.419 40.0608L13.3049 39.7031L10.9019 37.2788L8.499 34.8544L8.124 34.6793L7.749 34.5041L7.51462 34.5067L7.28025 34.5092L6.69178 34.7356ZM9.63263 41.4095L9.02269 41.9907L8.24522 42.363L7.46775 42.7353L6.8115 42.9243L6.15525 43.1132L5.41641 43.2631L4.67756 43.4129L4.63959 43.375L4.60172 43.3371L4.75153 42.5982L4.90144 41.8594L5.09034 41.2031L5.27934 40.5469L5.64909 39.7747L6.01884 39.0023L6.59559 38.3858L7.17234 37.7693L8.70741 39.2987L10.2425 40.8281L9.63263 41.4095Z" fill="#121722"/>
<path fill-rule="evenodd" clip-rule="evenodd" d="M41.124 1.60378L39.624 1.67972L38.1242 1.83188L36.6244 1.98403L35.4992 2.16712L34.374 2.35022L33.1084 2.63184L31.8428 2.91347L30.4745 3.36966L29.1062 3.82584L28.1272 4.28766L27.1481 4.74947L26.2503 5.31375L25.3524 5.87803L24.707 6.39384L24.0615 6.90966L23.3442 7.58044L22.6269 8.25122L21.8342 9.16463L21.0415 10.0781L20.3115 11.0156L19.5816 11.9531L16.9465 12.0093L14.3115 12.0655L13.6553 12.2158L12.999 12.3661L12.3942 12.5664L11.7894 12.7669L11.0348 13.1443L10.2802 13.5218L9.67087 13.9477L9.0615 14.3737L6.17887 17.2379L3.29625 20.1023L3.14419 20.5002L2.99222 20.8982L3.05062 21.2069L3.10894 21.5156L3.29203 21.8157L3.47512 22.1159L3.78394 22.2845L4.09275 22.4531L8.46 22.5L12.8272 22.5469L11.9409 24.1406L11.0547 25.7344L10.0347 27.719L9.01462 29.7035L9.01669 29.969L9.01875 30.2344L9.19462 30.6094L9.3705 30.9844L13.2472 34.8483L17.124 38.7121L17.4726 38.8561L17.8211 39H18.0661H18.3112L20.2957 37.9799L22.2803 36.9599L23.874 36.0737L25.4678 35.1874L25.5146 39.5546L25.5615 43.9219L25.7302 44.2307L25.8987 44.5395L26.1989 44.7226L26.499 44.9057L26.8077 44.964L27.1164 45.0224L27.5144 44.8704L27.9124 44.7184L30.7767 41.8358L33.641 38.9531L34.0786 38.3308L34.5161 37.7085L34.9787 36.7371L35.4412 35.7656L35.6341 35.0156L35.8269 34.2656L35.9179 33.5625L36.0088 32.8594L36.0118 30.6563L36.0147 28.4531L36.835 27.83L37.6553 27.2069L38.6978 26.3108L39.7404 25.4148L40.4664 24.637L41.1923 23.8594L41.7504 23.13L42.3085 22.4007L42.7876 21.63L43.2667 20.8594L43.7118 19.9178L44.1569 18.976L44.5447 17.8553L44.9325 16.7344L45.2513 15.4414L45.57 14.1483L45.8068 12.7226L46.0436 11.2969L46.1843 9.89063L46.3251 8.48438L46.4198 6.51563L46.5143 4.54688L46.5144 3.65269L46.5146 2.7585L46.3037 2.34019L46.0928 1.92188L45.6744 1.71094L45.2561 1.5L43.9401 1.51397L42.624 1.52784L41.124 1.60378ZM43.5137 4.99219L43.5128 5.48438L43.4201 7.07813L43.3274 8.67188L43.1827 9.98438L43.0379 11.2969L42.8486 12.4219L42.6593 13.5469L42.4374 14.4844L42.2155 15.4219L41.9691 16.1994L41.7226 16.9769L41.3042 17.9758L40.8857 18.9746L40.4459 19.7247L40.0062 20.4747L39.4619 21.2089L38.9176 21.943L38.1939 22.7004L37.4703 23.4578L36.4378 24.3254L35.4053 25.1929L34.374 25.9647L33.3428 26.7365L31.7021 27.8398L30.0615 28.9431L28.7021 29.7866L27.3428 30.6302L26.3115 31.2396L25.2803 31.8488L23.9678 32.5979L22.6553 33.3469L20.8271 34.3367L18.999 35.3265L18.6437 35.4949L18.2884 35.6632L15.339 32.715L12.3896 29.7668V29.6781V29.5894L13.2937 27.8963L14.1979 26.2031L15.179 24.4688L16.1601 22.7344L17.3436 20.7656L18.5271 18.7969L19.9004 16.7344L21.2737 14.6719L22.0478 13.6406L22.8218 12.6094L23.6892 11.5768L24.5568 10.5443L25.2935 9.84159L26.0303 9.13884L26.6104 8.69344L27.1904 8.24803L27.9697 7.76447L28.749 7.28091L29.4521 6.95738L30.1553 6.63375L31.145 6.27797L32.1347 5.92219L33.3012 5.63578L34.4678 5.34938L35.9209 5.11669L37.374 4.88409L38.4521 4.77825L39.5303 4.67241L40.749 4.60013L41.9678 4.52784L42.7412 4.51397L43.5146 4.5L43.5137 4.99219ZM30.3428 10.6322L29.7803 10.7619L29.2944 10.9477L28.8085 11.1334L28.157 11.5666L27.5054 11.9997L27.1584 12.3838L26.8116 12.7678L26.4433 13.3375L26.0752 13.9072L25.8253 14.6646L25.5755 15.4219V16.5V17.5781L25.8253 18.3354L26.0752 19.0928L26.4535 19.6782L26.8319 20.2637L27.2914 20.7233L27.7509 21.1827L28.3364 21.5611L28.9218 21.9395L29.6792 22.1893L30.4365 22.4392H31.5146H32.5928L33.3501 22.1893L34.1075 21.9395L34.6928 21.5611L35.2783 21.1827L35.7379 20.7233L36.1973 20.2637L36.5757 19.6782L36.9541 19.0928L37.2039 18.3354L37.4538 17.5781V16.5V15.4219L37.2039 14.6646L36.9541 13.9072L36.5757 13.3218L36.1973 12.7363L35.7379 12.2768L35.2783 11.8173L34.6928 11.4389L34.1075 11.0605L33.3501 10.8197L32.5928 10.5788L31.749 10.5406L30.9053 10.5023L30.3428 10.6322ZM32.7518 13.7586L33.1921 13.9538L33.6264 14.3882L34.0609 14.8225L34.2634 15.2629L34.4659 15.7031L34.4668 16.5L34.4678 17.2969L34.2383 17.7632L34.0088 18.2295L33.6005 18.6379L33.1921 19.0463L32.7518 19.2488L32.3115 19.4513H31.5146H30.7178L30.2775 19.2488L29.8372 19.0463L29.4028 18.6118L28.9684 18.1775L28.7762 17.7429L28.5839 17.3083L28.5378 16.7333L28.4917 16.1584L28.6417 15.6423L28.7917 15.1262L29.1103 14.7089L29.429 14.2915L29.8084 14.0287L30.1878 13.7657L30.5933 13.6335L30.999 13.5013L31.6553 13.5323L32.3115 13.5634L32.7518 13.7586ZM16.2886 16.8047L15.1405 18.6094L14.8812 19.0547L14.6218 19.5H11.3741H8.12653L9.43772 18.1801L10.749 16.8603L11.3115 16.457L11.874 16.0537L12.383 15.798L12.8919 15.5423L13.2736 15.4045L13.6553 15.2666L14.2646 15.1421L14.874 15.0176L16.1553 15.0088L17.4366 15L16.2886 16.8047ZM32.9891 32.2479L32.9416 33.6094L32.7877 34.1719L32.6337 34.7344L32.306 35.4292L31.9782 36.1239L31.5663 36.6948L31.1543 37.2656L29.8345 38.5769L28.5146 39.8881V36.6519V33.4158L30.4131 32.2279L32.3115 31.04L32.6396 30.8112L32.9678 30.5824L33.0022 30.7344L33.0367 30.8865L32.9891 32.2479ZM6.69178 34.7356L6.10341 34.9621L5.59903 35.2968L5.09475 35.6316L4.44047 36.3203L3.78609 37.0092L3.405 37.6531L3.02381 38.2969L2.74134 38.9634L2.45888 39.6301L2.21644 40.4634L1.974 41.2969L1.79691 42.3281L1.61991 43.3594L1.55991 44.2969L1.5 45.2344L1.71825 45.6563L1.9365 46.0781L2.35838 46.2956L2.78025 46.5131L3.71775 46.4523L4.65525 46.3914L5.6865 46.216L6.71775 46.0406L7.5615 45.7962L8.40525 45.5518L9.21825 45.1943L10.0312 44.8367L10.681 44.4047L11.3308 43.9727L11.9888 43.28L12.6469 42.5873L13.0303 41.821L13.4138 41.0549L13.4735 40.7367L13.5332 40.4184L13.419 40.0608L13.3049 39.7031L10.9019 37.2788L8.499 34.8544L8.124 34.6793L7.749 34.5041L7.51462 34.5067L7.28025 34.5092L6.69178 34.7356ZM9.63263 41.4095L9.02269 41.9907L8.24522 42.363L7.46775 42.7353L6.8115 42.9243L6.15525 43.1132L5.41641 43.2631L4.67756 43.4129L4.63959 43.375L4.60172 43.3371L4.75153 42.5982L4.90144 41.8594L5.09034 41.2031L5.27934 40.5469L5.64909 39.7747L6.01884 39.0023L6.59559 38.3858L7.17234 37.7693L8.70741 39.2987L10.2425 40.8281L9.63263 41.4095Z" fill="url(#paint0_linear_178_5038)"/>
<defs>
<linearGradient id="paint0_linear_178_5038" x1="1.5" y1="24.0065" x2="46.5146" y2="24.0065" gradientUnits="userSpaceOnUse">
<stop stop-color="#C624FF"/>
<stop offset="0.322917" stop-color="#780EFF"/>
<stop offset="0.671875" stop-color="#4F32FF"/>
<stop offset="1" stop-color="#2962FF"/>
</linearGradient>
</defs>
</svg>
