<svg width="20" height="20" viewBox="0 0 20 20" fill="none" xmlns="http://www.w3.org/2000/svg">
<path d="M1.2957 17.2845L4.69461 13.8956C3.59798 12.4985 3.00294 10.7733 3.00515 8.99718C3.00515 7.41544 3.47419 5.86922 4.35296 4.55405C5.23173 3.23888 6.48076 2.21383 7.94209 1.60853C9.40343 1.00322 11.0114 0.844845 12.5628 1.15343C14.1141 1.46201 15.5391 2.22369 16.6576 3.34215C17.7761 4.46061 18.5377 5.88561 18.8463 7.43696C19.1549 8.98831 18.9965 10.5963 18.3912 12.0577C17.7859 13.519 16.7609 14.768 15.4457 15.6468C14.1305 16.5256 12.5843 16.9946 11.0026 16.9946C9.22649 16.9968 7.50125 16.4018 6.10415 15.3051L2.71524 18.7041C2.62231 18.7978 2.51175 18.8721 2.38993 18.9229C2.26811 18.9736 2.13744 18.9998 2.00547 18.9998C1.8735 18.9998 1.74284 18.9736 1.62102 18.9229C1.4992 18.8721 1.38864 18.7978 1.2957 18.7041C1.20201 18.6111 1.12763 18.5006 1.07688 18.3787C1.02613 18.2569 1 18.1263 1 17.9943C1 17.8623 1.02613 17.7316 1.07688 17.6098C1.12763 17.488 1.20201 17.3774 1.2957 17.2845ZM17.0006 8.99718C17.0006 7.81088 16.6489 6.65121 15.9898 5.66483C15.3307 4.67846 14.3939 3.90967 13.2979 3.45569C12.2019 3.00171 10.9959 2.88293 9.83241 3.11437C8.6689 3.3458 7.60015 3.91706 6.7613 4.75591C5.92246 5.59475 5.35119 6.66351 5.11976 7.82702C4.88832 8.99053 5.0071 10.1965 5.46108 11.2925C5.91506 12.3885 6.68385 13.3253 7.67023 13.9844C8.6566 14.6435 9.81627 14.9952 11.0026 14.9952C12.5934 14.9952 14.119 14.3633 15.2438 13.2385C16.3687 12.1136 17.0006 10.588 17.0006 8.99718Z" fill="#D1D4DB"/>
</svg>
