<svg width="30" height="30" viewBox="0 0 30 30" fill="none" xmlns="http://www.w3.org/2000/svg">
<g clip-path="url(#clip0_37_1830)">
<path fill-rule="evenodd" clip-rule="evenodd" d="M3.05248 0.0472966L2.73426 0.0945307L2.4907 0.172526L2.24713 0.25046L1.83535 0.463981L1.42356 0.677501L1.09136 1.00234L0.759157 1.32724L0.552421 1.64995L0.345684 1.97267L0.172842 2.46111L0 2.94955V5.75739V8.56523L0.152493 9.03065L0.304924 9.49606L0.573831 9.89684L0.842676 10.2977V10.3303V10.3629L0.695488 10.5561L0.548301 10.7491L0.388879 11.0638L0.229457 11.3784L0.114729 11.7501L0 12.1218V15.0233V17.9247L0.152493 18.3901L0.304924 18.8555L0.573831 19.2563L0.842676 19.6572V19.6898V19.7224L0.695488 19.9155L0.548301 20.1086L0.388879 20.4233L0.229457 20.7379L0.114729 21.1096L0 21.4813V24.258V27.0346L0.114791 27.409L0.22952 27.7834L0.426893 28.1574L0.624204 28.5314L1.02994 28.9447L1.43567 29.358L1.88865 29.5856L2.34158 29.8132L2.74438 29.9066L3.14717 30L15.1813 29.9837L27.2153 29.9672L27.5856 29.8276L27.9559 29.6879L28.2903 29.4853L28.6247 29.2827L28.9508 28.9567L29.277 28.6306L29.4797 28.2964L29.6823 27.9621L29.8221 27.5919L29.9618 27.2218L29.9803 24.4365L29.9989 21.6511L29.9032 21.2387L29.8076 20.8262L29.6244 20.4674L29.4412 20.1086L29.2873 19.9034L29.1335 19.6982L29.399 19.3024L29.6645 18.9066L29.8107 18.5092L29.9571 18.1119L29.9784 15.2035L29.9998 12.2951L29.9036 11.8809L29.8076 11.4667L29.6244 11.1079L29.4412 10.7491L29.2873 10.5439L29.1335 10.3387L29.399 9.94289L29.6645 9.5471L29.8106 9.14976L29.9567 8.75242L29.9784 5.96935L30 3.18628L29.9011 2.75992L29.8022 2.33363L29.6019 1.92406L29.4015 1.51443L28.9638 1.07734L28.5261 0.640251L28.1516 0.443702L27.7771 0.247215L27.4338 0.132093L27.0905 0.0170342L15.2306 0.00854833L3.3707 0L3.05248 0.0472966ZM26.9837 2.53735L27.2153 2.65547L27.3305 2.78276L27.4456 2.91011L27.5306 3.14822L27.6155 3.38632L27.6169 5.78859L27.6183 8.19085L27.5037 8.443L27.3891 8.6952L27.1881 8.86424L26.9872 9.03327L26.8204 9.08L26.6535 9.1268H14.9497H3.24586L2.98326 8.98654L2.72066 8.84621L2.56192 8.57547L2.40319 8.30467V5.76438V3.22415L2.49126 3.05562L2.57927 2.88715L2.75655 2.72392L2.93376 2.56069L3.0586 2.49181L3.18344 2.42298L14.9678 2.42105L26.7521 2.41918L26.9837 2.53735ZM4.69327 4.5809L4.65032 4.62383V5.79901V6.97412H5.86889H7.0874L7.07049 5.77299L7.05351 4.57186L5.89486 4.55495L4.73621 4.53797L4.69327 4.5809ZM9.3748 4.5809L9.33185 4.62383V5.79901V6.97412H10.5504H11.7689L11.752 5.77299L11.735 4.57186L10.5764 4.55495L9.41774 4.53797L9.3748 4.5809ZM26.9812 11.6614L27.2547 11.7938L27.4223 12.0467L27.5898 12.2997L27.608 14.8935L27.6263 17.4873L27.526 17.7499L27.4257 18.0125L27.2101 18.2017L26.9945 18.3909L26.824 18.4386L26.6535 18.4863H14.9497H3.24586L2.98326 18.346L2.72066 18.2057L2.56192 17.9349L2.40319 17.6641V15.0314V12.3986L2.48876 12.1978L2.57434 11.997L2.72284 11.8643L2.87134 11.7314L3.0586 11.6328L3.24586 11.5341L14.9768 11.5316L26.7078 11.5291L26.9812 11.6614ZM4.65032 14.9609V16.1464H5.86752H7.08472V14.9609V13.7753H5.86752H4.65032V14.9609ZM9.33185 14.9609V16.1464H10.549H11.7662V14.9609V13.7753H10.549H9.33185V14.9609ZM26.9812 21.0209L27.2547 21.1532L27.4223 21.4062L27.5898 21.6591L27.6082 24.1279L27.6266 26.5965L27.5261 26.8595L27.4257 27.1224L27.2123 27.3096L26.9989 27.497L26.7638 27.565L26.5287 27.6331L14.8515 27.6146L3.17433 27.5962L2.91485 27.4245L2.65536 27.2529L2.52928 27.0058L2.40319 26.7588V24.2585V21.7581L2.48876 21.5573L2.57434 21.3565L2.72284 21.2237L2.87134 21.0909L3.0586 20.9923L3.24586 20.8935L14.9768 20.891L26.7078 20.8885L26.9812 21.0209ZM4.65032 24.258V25.4435H5.86752H7.08472V24.258V23.0724H5.86752H4.65032V24.258ZM9.33185 24.258V25.4435H10.549H11.7662V24.258V23.0724H10.549H9.33185V24.258Z" fill="#82858F"/>
</g>
<defs>
<clipPath id="clip0_37_1830">
<rect width="30" height="30" fill="white"/>
</clipPath>
</defs>
</svg>
