<svg width="30" height="30" viewBox="0 0 30 30" fill="none" xmlns="http://www.w3.org/2000/svg">
<path fill-rule="evenodd" clip-rule="evenodd" d="M3 5.61848V8.23697L10.1182 14.244L17.2364 20.2509L17.1278 20.4731L17.0193 20.6953L16.941 21.0413L16.8629 21.3872L16.8859 21.8147L16.9089 22.2422L17.0281 22.5827L17.1473 22.9231L17.2927 23.1452L17.4382 23.3672L17.5592 23.5036L17.6803 23.64L20.6614 20.6588L23.6425 17.6777L23.5283 17.5783L23.4141 17.4789L23.1417 17.2971L22.8694 17.1151L22.5558 17.0068L22.2422 16.8984L21.6328 16.8998L21.0234 16.9012L20.6284 17.0588L20.2335 17.2163L20.1597 17.1262L20.0859 17.036L14.1626 10.018L8.23931 3H5.61966H3V5.61848ZM18.8483 6.4493L15.9377 9.89859L15.9962 9.98119L16.0547 10.0638L17.8773 12.2255L19.6999 14.3872L19.7788 14.3303L19.8576 14.2734L23.4288 11.2577L27 8.24198V5.62102V3H24.3795H21.7589L18.8483 6.4493ZM9.03562 8.02781L11.5319 10.5244L11.0272 11.0275L10.5225 11.5306L8.01567 9.02348L5.5088 6.51628L5.99967 6.02377L6.4905 5.53125H6.51497H6.53939L9.03562 8.02781ZM24.0109 5.98739L24.4688 6.44353V6.49116V6.53873L21.9731 9.03469L19.4775 11.5306L18.9728 11.0275L18.4681 10.5244L20.9644 8.02781L23.4606 5.53125H23.5068H23.553L24.0109 5.98739ZM10.105 16.821L9.74991 17.2363L9.51942 17.126L9.28889 17.0156L8.99269 16.9398L8.69648 16.8639L8.20369 16.8879L7.71094 16.9119L7.41923 17.0145L7.12753 17.1171L6.85673 17.298L6.58594 17.4789L6.4717 17.5783L6.35747 17.6777L9.33858 20.6588L12.3197 23.64L12.4408 23.5036L12.5617 23.3672L12.7072 23.1452L12.8527 22.9231L12.9719 22.5827L13.0911 22.2422L13.1141 21.8147L13.1371 21.3872L13.059 21.0413L12.9807 20.6953L12.8721 20.4729L12.7635 20.2506L13.3202 19.7786L13.8769 19.3066L13.8517 19.2659L13.8265 19.2251L12.2247 17.8743L10.6228 16.5234L10.5415 16.4647L10.4602 16.4059L10.105 16.821ZM6.28125 21.7266L5.22736 22.7812H4.11366H3V24.8906V27H5.10938H7.21875V25.8871V24.7742L8.28473 23.7074L9.35077 22.6407L8.36719 21.6562L7.38366 20.6719H7.35942H7.33514L6.28125 21.7266ZM21.6328 21.6562L20.6492 22.6407L21.7153 23.7074L22.7812 24.7742V25.8871V27H24.8906H27V24.8906V22.7812H25.8863H24.7726L23.7188 21.7266L22.6649 20.6719H22.6406H22.6163L21.6328 21.6562Z" fill="white"/>
</svg>
