<svg width="20" height="20" viewBox="0 0 20 20" fill="none" xmlns="http://www.w3.org/2000/svg">
<g clip-path="url(#clip0_64_2)">
<path fill-rule="evenodd" clip-rule="evenodd" d="M4.62745 0.0529177L4.32817 0.105835L4.02237 0.189645L3.71652 0.273415L3.34409 0.42877L2.97165 0.584126L2.69795 0.745612L2.42424 0.90706L2.13099 1.13013L1.83773 1.35317L1.53013 1.66568L1.22248 1.97818L0.997224 2.29296L0.771926 2.60773L0.575953 2.99069L0.37998 3.37361L0.260841 3.72509L0.141662 4.07658L0.0708504 4.40853L0 4.74049L0.000742913 5.46298L0.00144673 6.18547L0.0718671 6.50837L0.142287 6.83127L0.257361 7.17228L0.372473 7.5133L0.549013 7.86935L0.725591 8.2254L0.668465 8.55279L0.611339 8.88018L0.564731 9.38787L0.518123 9.89557L0.543421 10.4423L0.568719 10.9891L0.628387 11.3991L0.688016 11.8092L0.789208 12.2388L0.890401 12.6684L1.04422 13.1152L1.19801 13.562L1.34135 13.8767L1.48469 14.1915L1.69544 14.582L1.9062 14.9725L2.1616 15.3436L2.41701 15.7146L2.65345 16.0075L2.88985 16.3004L3.28266 16.692L3.67546 17.0836L4.04692 17.3813L4.41838 17.6789L4.80938 17.939L5.20039 18.1991L5.826 18.5089L6.45161 18.8187L7.04465 19.0134L7.63765 19.2081L8.11992 19.3045L8.60215 19.4009L8.93451 19.4486L9.26686 19.4963L10.0684 19.497L10.87 19.4977L11.3523 19.4279L11.8345 19.3582L12.1343 19.4945L12.434 19.6309L12.7476 19.7293L13.0611 19.8278L13.3536 19.8927L13.6461 19.9577L14.2717 19.9788L14.8974 20L15.2947 19.9366L15.692 19.8733L16.0207 19.7781L16.3495 19.683L16.7079 19.5277L17.0664 19.3724L17.3113 19.2252L17.5562 19.0781L17.8495 18.8557L18.1427 18.6332L18.4503 18.3207L18.758 18.0082L18.9921 17.6815L19.2262 17.3548L19.4554 16.8862L19.6846 16.4175L19.7849 16.0672L19.8852 15.7169L19.9424 15.3643L19.9997 15.0116L19.9998 14.5401L20 14.0685L19.9383 13.7004L19.8767 13.3323L19.7976 13.0589L19.7186 12.7855L19.5819 12.4542L19.4454 12.1228L19.507 11.7512L19.5687 11.3796L19.6135 10.9695L19.6582 10.5595L19.6359 9.81746L19.6136 9.07545L19.5522 8.70444L19.4909 8.33343L19.4097 7.98194L19.3286 7.63046L19.213 7.2698L19.0974 6.90914L18.9398 6.53094L18.7822 6.15275L18.6444 5.87945L18.5066 5.60615L18.2889 5.25143L18.0712 4.8967L17.7418 4.45575L17.4124 4.01483L16.9564 3.55423L16.5005 3.0936L16.129 2.79855L15.7576 2.5035L15.3275 2.22364L14.8974 1.94378L14.35 1.67548L13.8025 1.40718L13.4171 1.26542L13.0317 1.12361L12.5178 0.992158L12.0039 0.860704L11.5934 0.795054L11.1828 0.729405L10.3174 0.709332L9.452 0.689258L8.96422 0.754868L8.4764 0.820478L8.10917 0.624741L7.74194 0.429004L7.33138 0.29302L6.92082 0.157035L6.62757 0.0930649L6.33431 0.029095L5.6305 0.014528L4.92669 0L4.62745 0.0529177ZM11.4572 3.6002L11.7707 3.65968L12.0242 3.72435L12.2776 3.78902L12.5513 3.88635L12.825 3.98363L13.0987 4.11512L13.3724 4.24662L13.6116 4.40146L13.8508 4.55635L14.134 4.82317L14.4172 5.09002L14.5942 5.33781L14.7713 5.58557L14.8877 5.86602L15.0042 6.14642L15.0242 6.52255L15.0442 6.89863L14.9395 7.12788L14.8348 7.35708L14.6705 7.52634L14.5064 7.6956L14.3109 7.7971L14.1153 7.8986L13.7577 7.91547L13.4001 7.93234L13.2091 7.86896L13.0181 7.80558L12.87 7.68373L12.722 7.56184L12.3197 6.95179L11.9173 6.34169L11.6418 6.08226L11.3662 5.82286L11.1376 5.73714L10.9091 5.65145L10.5767 5.59217L10.2444 5.53293L9.71652 5.55331L9.18866 5.57366L8.87586 5.65802L8.56305 5.74237L8.33376 5.86434L8.10448 5.9863L7.93075 6.15493L7.75703 6.32357L7.68192 6.48884L7.6068 6.65412L7.60594 6.86634L7.60508 7.07859L7.68317 7.23973L7.76129 7.40086L7.86964 7.50455L7.97799 7.60824L8.28199 7.78125L8.58596 7.95429L8.90686 8.057L9.22776 8.15971L10.4546 8.45152L11.6814 8.74333L12.2745 8.9165L12.8676 9.08962L13.296 9.27181L13.7243 9.45399L14.0244 9.63169L14.3245 9.80934L14.5682 10.0216L14.8119 10.2339L14.9557 10.4077L15.0995 10.5815L15.2438 10.8243L15.3881 11.0672L15.4841 11.3693L15.58 11.6715L15.6238 12.1194L15.6676 12.5674L15.6231 12.9108L15.5787 13.2542L15.5177 13.469L15.4568 13.6838L15.3589 13.9181L15.2612 14.1524L15.0536 14.4648L14.8461 14.7773L14.5739 15.0451L14.3017 15.3129L14.057 15.483L13.8123 15.6531L13.4751 15.8259L13.1378 15.9988L12.8446 16.1038L12.5513 16.2088L12.0821 16.3189L11.6129 16.4291L11.2414 16.4705L10.87 16.5118L10.3617 16.5358L9.85337 16.5598L9.32551 16.5168L8.79765 16.4738L8.4653 16.4166L8.13294 16.3593L7.77017 16.2619L7.40739 16.1646L7.06635 16.0239L6.72532 15.8833L6.49071 15.7433L6.25611 15.6034L5.9433 15.3604L5.6305 15.1173L5.50874 14.9864L5.38694 14.8554L5.16614 14.5625L4.9453 14.2696L4.7937 13.9572L4.64215 13.6447L4.57435 13.4104L4.50659 13.1761L4.5019 12.8441L4.49724 12.5122L4.5889 12.309L4.68055 12.1059L4.88192 11.9156L5.08332 11.7254L5.27871 11.6501L5.4741 11.5749H5.8651H6.25611L6.43777 11.6643L6.61943 11.7537L6.81216 11.9462L7.00493 12.1387L7.3277 12.7589L7.65044 13.3792L7.81955 13.5943L7.98862 13.8095L8.25763 13.9881L8.52661 14.1667L8.74033 14.2438L8.95406 14.3209L9.16911 14.373L9.38416 14.4251L9.95112 14.4248L10.5181 14.4245L10.7918 14.3738L11.0655 14.3231L11.3529 14.2215L11.6404 14.12L11.8686 13.9726L12.0969 13.8253L12.259 13.6633L12.4212 13.5014L12.5146 13.2999L12.608 13.0985L12.6333 12.9304L12.6585 12.7623L12.6115 12.5201L12.5645 12.2778L12.4441 12.0888L12.3236 11.8998L12.1222 11.748L11.9209 11.5961L11.63 11.4624L11.3392 11.3288L10.8895 11.2096L10.4399 11.0904L9.63832 10.911L8.83675 10.7317L8.5435 10.6529L8.25024 10.574L7.76149 10.4156L7.27273 10.2571L6.90127 10.0922L6.52981 9.92728L6.23656 9.73748L5.9433 9.54768L5.607 9.21393L5.27069 8.88018L5.11945 8.60731L4.96821 8.3344L4.87515 8.0215L4.78213 7.70857L4.76137 7.25718L4.74061 6.80576L4.80723 6.47611L4.87386 6.14642L4.98151 5.8898L5.08915 5.63318L5.24043 5.40163L5.39171 5.17008L5.68708 4.87589L5.9824 4.5817L6.31805 4.37924L6.65369 4.17679L6.96321 4.04451L7.27273 3.91228L7.62463 3.81136L7.97654 3.71045L8.21114 3.66323L8.44575 3.61602L8.8172 3.5654L9.18866 3.51475L10.1662 3.52776L11.1437 3.54076L11.4572 3.6002Z" fill="#D1D4DB"/>
</g>
<defs>
<clipPath id="clip0_64_2">
<rect width="20" height="20" fill="white"/>
</clipPath>
</defs>
</svg>
