<svg width="24" height="24" viewBox="0 0 24 24" fill="none" xmlns="http://www.w3.org/2000/svg">
<path fill-rule="evenodd" clip-rule="evenodd" d="M11.734 6.05868L11.608 6.11736L11.5365 6.20219L11.465 6.28702L11.4253 6.37453L11.3854 6.46204V6.99958V7.53713L11.4253 7.62464L11.465 7.71214L11.5365 7.79697L11.608 7.88181L11.734 7.94049L11.8599 7.99917L11.9974 7.99887L12.1348 7.99857L12.2353 7.95289L12.3358 7.90721L12.4172 7.82578L12.4986 7.74435L12.5416 7.66574L12.5846 7.58713V6.99958V6.41203L12.5416 6.33343L12.4986 6.25482L12.4172 6.17339L12.3358 6.09196L12.2353 6.04628L12.1348 6.0006L11.9974 6.0003L11.8599 6L11.734 6.05868ZM7.97044 7.60941L7.87928 7.64199L7.81278 7.69434L7.74626 7.74667L7.69711 7.8092L7.64795 7.87173L7.61112 7.95989L7.57431 8.04807V8.16473V8.28139L7.60425 8.3843L7.63416 8.48721L7.99783 8.85919L8.36147 9.23117L8.48641 9.29022L8.61136 9.34928L8.72381 9.3494L8.83626 9.3495L8.93622 9.32223L9.03617 9.29495L9.16164 9.16611L9.28711 9.03725L9.31782 8.93434L9.34854 8.83144V8.74503V8.65862L9.30728 8.53541L9.26605 8.4122L8.88871 8.03469L8.5114 7.65716L8.38826 7.61591L8.26511 7.57463L8.16335 7.57573L8.0616 7.57683L7.97044 7.60941ZM15.5714 7.62649L15.4596 7.67721L15.1035 8.03047L14.7474 8.3837L14.6943 8.49683L14.6411 8.60994L14.6506 8.77658L14.66 8.94322L14.735 9.06458L14.81 9.18594L14.9306 9.2606L15.0513 9.33525L15.2111 9.34543L15.371 9.3556L15.5045 9.29025L15.638 9.22489L15.9881 8.86736L16.3381 8.50983L16.3824 8.3765L16.4266 8.24314L16.4124 8.12313L16.3982 8.00309L16.3491 7.90761L16.3001 7.81215L16.2291 7.74487L16.1581 7.67759L16.0456 7.62666L15.9332 7.57573H15.8082H15.6833L15.5714 7.62649ZM11.4476 8.63497L11.2602 8.66832L11.0632 8.72378L10.8662 8.77921L10.6708 8.86166L10.4754 8.9441L10.3115 9.03585L10.1475 9.12759L9.9542 9.27342L9.76085 9.41926L9.5351 9.65328L9.30938 9.88732L9.16924 10.0998L9.0291 10.3124L8.93749 10.4959L8.84586 10.6794L8.76092 10.9334L8.67595 11.1874L8.6344 11.425L8.59282 11.6625V12V12.3375L8.6344 12.575L8.67595 12.8126L8.76084 13.0664L8.84571 13.3202L8.95051 13.5287L9.05531 13.7372L9.17379 13.9125L9.29226 14.0877L9.43055 14.2423L9.56884 14.3969L9.73647 14.5489L9.90409 14.7009L10.1099 14.8379L10.3156 14.9749L10.5505 15.086L10.7854 15.1972L11.01 15.2621L11.2345 15.3271L11.4443 15.3637L11.6541 15.4003L11.9819 15.4002L12.3097 15.4001L12.5409 15.3626L12.7722 15.3251L13.0157 15.2474L13.2593 15.1698L13.4635 15.0728L13.6676 14.9757L13.9008 14.8202L14.1339 14.6647L14.3973 14.4012L14.6607 14.1377L14.803 13.923L14.9452 13.7083L15.0692 13.448L15.1932 13.1876L15.2583 12.9626L15.3235 12.7376L15.3622 12.4875L15.4008 12.2375L15.3872 11.875L15.3736 11.5125L15.3122 11.2499L15.2508 10.9874L15.1894 10.8249L15.1279 10.6624L15.0367 10.4811L14.9454 10.2998L14.8592 10.1649L14.7729 10.03L14.6221 9.84237L14.4712 9.65475L14.3276 9.52292L14.1839 9.39111L13.9934 9.24935L13.8029 9.10761L13.5533 8.97937L13.3038 8.85111L13.0792 8.77583L12.8546 8.70055L12.6821 8.66132L12.5097 8.62212L12.0723 8.61187L11.635 8.60162L11.4476 8.63497ZM6.33041 11.464L6.19851 11.5301L6.13751 11.6101L6.07652 11.6902L6.03826 11.7818L6 11.8734V12V12.1266L6.03826 12.2182L6.07652 12.3098L6.14179 12.3955L6.20706 12.4811L6.33985 12.5419L6.47262 12.6027L7.03177 12.5951L7.5909 12.5875L7.71315 12.5119L7.83537 12.4362L7.91101 12.3138L7.98663 12.1914V12V11.8086L7.91101 11.6862L7.83537 11.5638L7.71315 11.4881L7.5909 11.4125L7.0266 11.4052L6.4623 11.3979L6.33041 11.464ZM16.3244 11.4648L16.191 11.5317L16.1196 11.6303L16.0482 11.7289L16.0191 11.8171L15.99 11.9053L16.0005 12.0507L16.011 12.1961L16.0852 12.3162L16.1594 12.4362L16.2816 12.5119L16.4038 12.5875L16.9547 12.5952L17.5055 12.6028L17.6153 12.5609L17.7251 12.5189L17.8068 12.4471L17.8885 12.3754L17.9443 12.2457L18 12.116L17.9901 11.9606L17.9802 11.8053L17.9056 11.6845L17.831 11.5638L17.7088 11.4881L17.5865 11.4125L17.0222 11.4052L16.4579 11.3979L16.3244 11.4648ZM8.48641 14.71L8.36147 14.7693L8.0089 15.1286L7.65633 15.4878L7.61224 15.6057L7.56819 15.7236L7.57896 15.8725L7.5897 16.0215L7.6639 16.1415L7.73806 16.2615L7.86039 16.3372L7.98271 16.4129H8.1721H8.36147L8.47392 16.3467L8.58637 16.2805L8.92577 15.9334L9.26517 15.5861L9.30685 15.4638L9.34854 15.3414L9.34829 15.2396L9.34804 15.1378L9.28921 15.0114L9.23039 14.885L9.12723 14.7966L9.02405 14.7083L8.92727 14.6792L8.83046 14.6502L8.72091 14.6505L8.61136 14.6507L8.48641 14.71ZM14.9766 14.7134L14.8447 14.7804L14.7837 14.8604L14.7227 14.9404L14.6845 15.0321L14.6462 15.1237V15.2628V15.4019L14.6846 15.4938L14.723 15.5857L15.0782 15.946L15.4334 16.3063L15.5583 16.3656L15.6833 16.4249L15.7928 16.4251L15.9024 16.4254L15.9992 16.3963L16.096 16.3673L16.1966 16.2812L16.2972 16.195L16.3517 16.0914L16.4061 15.9878L16.4063 15.8253L16.4064 15.6628L16.3592 15.5628L16.3119 15.4628L15.9601 15.1096L15.6083 14.7564L15.521 14.712L15.4338 14.6677L15.2711 14.657L15.1085 14.6464L14.9766 14.7134ZM11.7759 16.0346L11.6919 16.065L11.5973 16.1444L11.5028 16.2238L11.444 16.3433L11.3851 16.4629L11.3853 17.0004L11.3854 17.538L11.4253 17.6255L11.465 17.713L11.5365 17.7978L11.608 17.8826L11.734 17.9413L11.8599 18L11.9974 17.9997L12.1348 17.9994L12.2353 17.9537L12.3358 17.908L12.4172 17.8266L12.4986 17.7452L12.5416 17.6666L12.5846 17.588L12.5926 17.0596L12.6006 16.5312L12.5744 16.434L12.5483 16.3368L12.4719 16.2329L12.3956 16.129L12.2665 16.0647L12.1375 16.0003L11.9987 16.0022L11.8599 16.0041L11.7759 16.0346Z" fill="#D1D4DB"/>
</svg>
