<svg width="20" height="20" viewBox="0 0 20 20" fill="none" xmlns="http://www.w3.org/2000/svg">
<path fill-rule="evenodd" clip-rule="evenodd" d="M18.6719 1.49836L18.3008 1.62883L9.48031 5.09184L0.659805 8.55488L0.535 8.61918L0.410156 8.68344L0.283828 8.77949L0.157461 8.87555L0.07875 9.00293L0 9.13031V9.27605V9.4218L0.0626172 9.55371L0.125234 9.68566L0.275703 9.8216L0.426172 9.95754L0.587813 10.04L0.749492 10.1225L2.93336 10.8564L5.11727 11.5904L10.7715 7.9975L16.4258 4.40457L16.582 4.33203L16.7383 4.25953L16.8639 4.25867L16.9895 4.25781L17.0318 4.33695L17.0741 4.41609L16.9897 4.56645L16.9052 4.71676L12.3784 8.79121L7.85156 12.8657L7.85312 12.8879L7.85465 12.9102L11.505 15.7031L15.1555 18.4961L15.3414 18.5627L15.5273 18.6294L15.8029 18.6311L16.0784 18.6328L16.2796 18.5325L16.4809 18.4323L16.6024 18.2938L16.724 18.1554L16.7984 17.9937L16.8728 17.832L18.4364 9.93336L20 2.03473L19.9998 1.88648L19.9997 1.73828L19.9234 1.61324L19.8472 1.48816L19.7302 1.4277L19.6132 1.36719L19.3281 1.36754L19.043 1.36789L18.6719 1.49836Z" fill="#D1D4DB"/>
</svg>
