<svg width="40" height="40" viewBox="0 0 40 40" fill="none" xmlns="http://www.w3.org/2000/svg">
<path fill-rule="evenodd" clip-rule="evenodd" d="M28.6719 11.4984L28.3008 11.6288L19.4803 15.0918L10.6598 18.5549L10.535 18.6192L10.4102 18.6834L10.2838 18.7795L10.1575 18.8755L10.0787 19.0029L10 19.1303V19.2761V19.4218L10.0626 19.5537L10.1252 19.6857L10.2757 19.8216L10.4262 19.9575L10.5878 20.04L10.7495 20.1225L12.9334 20.8564L15.1173 21.5904L20.7715 17.9975L26.4258 14.4046L26.582 14.332L26.7383 14.2595L26.8639 14.2587L26.9895 14.2578L27.0318 14.337L27.0741 14.4161L26.9897 14.5664L26.9052 14.7168L22.3784 18.7912L17.8516 22.8657L17.8531 22.8879L17.8546 22.9102L21.505 25.7031L25.1555 28.4961L25.3414 28.5627L25.5273 28.6294L25.8029 28.6311L26.0784 28.6328L26.2796 28.5325L26.4809 28.4323L26.6024 28.2938L26.724 28.1554L26.7984 27.9937L26.8728 27.832L28.4364 19.9334L30 12.0347L29.9998 11.8865L29.9997 11.7383L29.9234 11.6132L29.8472 11.4882L29.7302 11.4277L29.6132 11.3672L29.3281 11.3675L29.043 11.3679L28.6719 11.4984Z" fill="#D1D4DB"/>
</svg>
