<svg width="20" height="20" viewBox="0 0 20 20" fill="none" xmlns="http://www.w3.org/2000/svg">
<g clip-path="url(#clip0_200_3661)">
<path fill-rule="evenodd" clip-rule="evenodd" d="M9.65332 0.921133L9.5166 0.979883L6.93008 3.56434L4.34355 6.14879L4.2598 6.34352L4.17605 6.5382L4.1941 6.7259L4.21211 6.91363L4.32566 7.09727L4.43918 7.28086L4.62496 7.37648L4.81074 7.47211H5.01562H5.22051L5.37637 7.39102L5.53223 7.30996L7.32895 5.51043L9.12566 3.71094H9.15512H9.18457V9.03469V14.3584L9.27246 14.5305L9.36035 14.7025L9.49707 14.8103L9.63379 14.918L9.81934 14.9671L10.0049 15.0162L10.1904 14.9671L10.376 14.918L10.5127 14.8103L10.6494 14.7025L10.7373 14.5305L10.8252 14.3584V9.03469V3.71094H10.8546H10.8841L12.6808 5.51043L14.4775 7.30996L14.6334 7.39102L14.7893 7.47211H14.9941H15.199L15.3848 7.37648L15.5706 7.28086L15.6841 7.09727L15.7977 6.91363L15.8157 6.7259L15.8337 6.5382L15.75 6.34352L15.6662 6.14879L13.0797 3.56426L10.4932 0.979687L10.3479 0.919531L10.2027 0.859375L9.99637 0.860898L9.79004 0.862422L9.65332 0.921133ZM1.52832 10.8604L1.3916 10.8845L1.27441 10.9463L1.15723 11.0082L1.07391 11.0998L0.990586 11.1914L0.917656 11.3281L0.844727 11.4648L0.832539 13.1836L0.820312 14.9023L0.860234 15.4102L0.900117 15.918L0.996758 16.25L1.09344 16.582L1.19707 16.8164L1.30074 17.0508L1.5207 17.3828L1.74066 17.7148L2.01535 17.9895L2.29004 18.2642L2.62207 18.4842L2.9541 18.7041L3.18848 18.8078L3.42285 18.9114L3.75055 19.0068L4.0782 19.1022L4.51227 19.1406L4.94629 19.179H10.0049H15.0635L15.4975 19.1406L15.9316 19.1022L16.2592 19.0068L16.5869 18.9114L16.8213 18.8078L17.0557 18.7041L17.3877 18.4842L17.7197 18.2642L17.9944 17.9895L18.2691 17.7148L18.4891 17.3828L18.709 17.0508L18.8127 16.8164L18.9163 16.582L19.013 16.25L19.1096 15.918L19.1495 15.4102L19.1895 14.9023L19.1772 13.1836L19.165 11.4648L19.0921 11.3281L19.0192 11.1914L18.9359 11.0997L18.8525 11.008L18.7021 10.9309L18.5518 10.8538L18.3506 10.8538H18.1494L18.0322 10.898L17.915 10.9423L17.7848 11.0668L17.6545 11.1914L17.5895 11.3086L17.5244 11.4258L17.5038 13.5352L17.4832 15.6445L17.3954 15.9065L17.3075 16.1684L17.1096 16.4643L16.9118 16.76L16.6712 16.9555L16.4307 17.1509L16.2044 17.2646L15.9782 17.3782L15.6966 17.4403L15.415 17.5024L9.8877 17.4914L4.36035 17.4805L4.0984 17.3915L3.83645 17.3026L3.54063 17.1048L3.24484 16.9069L3.0543 16.6714L2.86379 16.436L2.7616 16.2482L2.65941 16.0605L2.58215 15.7584L2.50488 15.4562L2.50465 13.5191L2.50445 11.582L2.46301 11.4328L2.42156 11.2835L2.28105 11.128L2.14051 10.9725L2.06938 10.9344L1.9982 10.8963L1.8316 10.8663L1.66504 10.8363L1.52832 10.8604Z" fill="#D1D4DB"/>
</g>
<defs>
<clipPath id="clip0_200_3661">
<rect width="20" height="20" fill="white"/>
</clipPath>
</defs>
</svg>
