<svg width="56" height="40" viewBox="0 0 56 40" fill="none" xmlns="http://www.w3.org/2000/svg">
<path d="M28.5614 16.6989C28.5275 19.1825 30.7784 20.5684 32.464 21.3889C34.205 22.2316 34.7809 22.7749 34.7809 23.5288C34.7702 24.6819 33.3956 25.1919 32.1093 25.2141C29.8691 25.2473 28.5614 24.6043 27.53 24.1275L26.7206 27.9083C27.7627 28.3851 29.681 28.8064 31.6769 28.8286C36.3667 28.8286 39.427 26.5113 39.4493 22.9301C39.4716 18.3842 33.1513 18.1292 33.1959 16.0891C33.2066 15.4682 33.7941 14.8141 35.092 14.6478C35.7347 14.5591 37.4979 14.5036 39.493 15.4239L40.281 11.765C39.1943 11.377 37.8082 11 36.0895 11C31.6876 11 28.5837 13.3394 28.5614 16.6989ZM47.8091 11.3104C46.9551 11.3104 46.2348 11.8094 45.913 12.5744L39.2166 28.5514H43.8948L44.8264 25.9791H50.5476L51.0904 28.5514H55.2151L51.6119 11.3104H47.8091ZM48.4634 15.9783L49.8157 22.4533H46.1127L48.4634 15.9783ZM22.8844 11.3104L19.1923 28.5625H23.6496L27.3419 11.3104H22.8844ZM16.2763 11.3104L11.6307 23.052L9.75695 13.0733C9.53517 11.9646 8.67039 11.3104 7.69463 11.3104H0.110894L0 11.8205C1.5633 12.1642 3.32619 12.7075 4.4017 13.284C5.05583 13.6388 5.24436 13.9493 5.46606 14.803L9.02518 28.5625H13.7373L20.9663 11.3104H16.2763Z" fill="#82858F"/>
</svg>
