<svg width="40" height="40" viewBox="0 0 40 40" fill="none" xmlns="http://www.w3.org/2000/svg">
<g clip-path="url(#clip0_40_2102)">
<path fill-rule="evenodd" clip-rule="evenodd" d="M10.2865 14.2603L10.1238 14.3409L10.0619 14.4712L10 14.6016V14.7598V14.918L10.0426 15.125L10.0852 15.332L10.2025 15.7422L10.3197 16.1523L10.4965 16.6179L10.6732 17.0834L10.9409 17.6691L11.2085 18.2548L11.527 18.8442L11.8455 19.4336L12.1402 19.9219L12.4349 20.4102L12.8557 21.0376L13.2766 21.665L13.6349 22.1449L13.9933 22.6248L14.5064 23.1534L15.0195 23.682L15.4102 23.9968L15.8008 24.3115L16.2109 24.5796L16.6211 24.8477L17.0898 25.0786L17.5586 25.3096L18.0298 25.4667L18.5011 25.6238L18.8892 25.7073L19.2773 25.7908L19.9805 25.8097L20.6836 25.8287L20.9177 25.785L21.1518 25.7413L21.3258 25.6539L21.4998 25.5664L21.58 25.4562L21.6602 25.3461L21.6805 24.0305L21.7008 22.7148L21.7665 22.5681L21.8321 22.4214L21.9415 22.3792L22.0508 22.3371L22.3047 22.3512L22.5586 22.3654L22.8125 22.4859L23.0664 22.6065L23.3857 22.8364L23.7051 23.0664L24.1126 23.4244L24.5201 23.7824L25.3078 24.6229L26.0954 25.4634L26.3301 25.6201L26.5647 25.7768L26.7296 25.801L26.8945 25.8252L28.2422 25.813L29.5898 25.8008L29.7322 25.7123L29.8745 25.6237L29.9421 25.4814L30.0096 25.339L29.9884 25.1328L29.9671 24.9266L29.7891 24.5825L29.6111 24.2383L29.3027 23.8281L28.9943 23.418L28.5673 22.9297L28.1402 22.4414L27.3358 21.6171L26.5315 20.7929L26.4689 20.6718L26.4062 20.5507V20.4146V20.2785L26.4459 20.1742L26.4855 20.0699L27.0029 19.3221L27.5203 18.5742L27.9538 17.9102L28.3873 17.2461L28.634 16.8359L28.8807 16.4258L29.1098 15.9897L29.3389 15.5536L29.4591 15.228L29.5791 14.9023L29.5832 14.7033L29.5871 14.5042L29.523 14.4064L29.459 14.3086L29.3232 14.2441L29.1874 14.1797L27.8261 14.1799L26.4648 14.1801L26.3256 14.2188L26.1863 14.2575L26.0239 14.3965L25.8614 14.5356L25.7337 14.8166L25.606 15.0977L25.3279 15.6641L25.0498 16.2305L24.7472 16.7578L24.4446 17.2852L24.1941 17.6686L23.9436 18.0521L23.6636 18.4304L23.3835 18.8086L22.971 19.2236L22.5586 19.6385L22.3918 19.7228L22.2249 19.8071L22.0829 19.8125L21.9409 19.8178L21.8511 19.7135L21.7614 19.6093L21.7208 19.4628L21.6801 19.3164L21.6791 16.9727L21.678 14.6289L21.6038 14.4655L21.5296 14.3021L21.4112 14.2409L21.2929 14.1797L19.3672 14.1798L17.4414 14.18L17.3121 14.2588L17.1828 14.3377L17.1234 14.4798L17.064 14.622L17.0878 14.7489L17.1116 14.8758L17.3702 15.2211L17.6287 15.5664L17.722 15.7682L17.8152 15.9699L17.8718 16.2369L17.9283 16.5039L17.9288 18.418L17.9293 20.332L17.8889 20.4774L17.8485 20.6227L17.7632 20.6825L17.6779 20.7422H17.5679H17.4578L17.3109 20.6672L17.1639 20.5922L16.9559 20.4052L16.7478 20.2182L16.4939 19.904L16.2399 19.5898L15.9192 19.1016L15.5985 18.6133L15.3962 18.2558L15.1939 17.8983L14.8271 17.1425L14.4604 16.3867L14.2461 15.8398L14.0319 15.293L13.926 15.0081L13.82 14.7233L13.6971 14.5394L13.5742 14.3555L13.3999 14.2676L13.2256 14.1797L11.8374 14.1797L10.4492 14.1798L10.2865 14.2603Z" fill="#D1D4DB"/>
</g>
<defs>
<clipPath id="clip0_40_2102">
<rect width="20" height="20" fill="white" transform="translate(10 10)"/>
</clipPath>
</defs>
</svg>
