<svg width="30" height="30" viewBox="0 0 30 30" fill="none" xmlns="http://www.w3.org/2000/svg">
<path fill-rule="evenodd" clip-rule="evenodd" d="M6.80192 1.08772L6.34232 1.16472L5.76283 1.35843L5.18329 1.55214L4.78149 1.76866L4.37968 1.98517L4.09371 2.175L3.80774 2.36482L3.38762 2.72326L2.9675 3.08174L2.66397 3.44887L2.36045 3.81606L2.17281 4.09787L1.98517 4.37968L1.76866 4.78149L1.55214 5.18329L1.36029 5.75752L1.16839 6.33176L1.08422 6.85131L1 7.37086V15V22.6291L1.08422 23.1487L1.16839 23.6682L1.36029 24.2425L1.55214 24.8167L1.76866 25.2185L1.98517 25.6203L2.17259 25.9021L2.36001 26.1839L2.69296 26.579L3.02596 26.974L3.42098 27.307L3.81606 27.64L4.09787 27.8274L4.37968 28.0148L4.78149 28.2313L5.18329 28.4479L5.75752 28.6397L6.33176 28.8316L6.85131 28.9158L7.37086 29H15H22.6291L23.1487 28.9158L23.6682 28.8316L24.2425 28.6397L24.8167 28.4479L25.2185 28.2313L25.6203 28.0148L25.9021 27.8274L26.1839 27.64L26.579 27.307L26.974 26.974L27.307 26.579L27.64 26.1839L27.8274 25.9021L28.0148 25.6203L28.2313 25.2185L28.4479 24.8167L28.6397 24.2425L28.8316 23.6682L28.9158 23.1487L29 22.6291V15V7.37086L28.9158 6.85131L28.8316 6.33176L28.6397 5.75752L28.4479 5.18329L28.2313 4.78149L28.0148 4.37968L27.825 4.09371L27.6352 3.80774L27.2767 3.38762L26.9183 2.9675L26.5511 2.66397L26.1839 2.36045L25.9021 2.17281L25.6203 1.98517L25.2185 1.76866L24.8167 1.55214L24.2425 1.36029L23.6682 1.16839L23.1487 1.08422L22.6291 1L14.9453 1.00536L7.26148 1.01072L6.80192 1.08772ZM22.7112 3.40813L23.0667 3.46419L23.4221 3.57783L23.7776 3.69142L24.1878 3.90919L24.598 4.12697L24.9678 4.42945L25.3376 4.73194L25.6075 5.07112L25.8774 5.4103L26.0958 5.81637L26.3142 6.22238L26.4678 6.71458L26.6215 7.20679V15V22.7932L26.4704 23.2749L26.3193 23.7566L26.1757 24.0405L26.0321 24.3245L25.8109 24.6526L25.5897 24.9808L25.2738 25.2917L24.9579 25.6026L24.6412 25.8173L24.3245 26.0321L24.0405 26.1757L23.7566 26.3193L23.2749 26.4704L22.7932 26.6215H15H7.20679L6.71458 26.4678L6.22238 26.3142L5.81221 26.0937L5.40204 25.873L5.04635 25.5821L4.69059 25.2911L4.40774 24.9425L4.12483 24.5938L3.90815 24.1857L3.69142 23.7776L3.57783 23.4221L3.46419 23.0667L3.40813 22.7112L3.35202 22.3557V15V7.6443L3.40813 7.28882L3.46419 6.93334L3.57783 6.57786L3.69142 6.22238L3.90919 5.81221L4.12697 5.40204L4.42945 5.03224L4.73194 4.66243L5.06696 4.39598L5.40204 4.12954L5.76113 3.93233L6.12017 3.73506L6.44475 3.62043L6.76927 3.50575L7.1521 3.4334L7.53492 3.36104L14.9453 3.35656L22.3557 3.35202L22.7112 3.40813ZM14.4531 8.12283L14.207 8.25431L14.053 8.47284L13.8991 8.69144L13.8492 8.9062L13.7995 9.12091L13.7982 11.4563L13.7968 13.7916L11.3222 13.8079L8.84746 13.8242L8.58649 13.9776L8.32546 14.131L8.17632 14.3564L8.02713 14.5818V15V15.4182L8.17632 15.6436L8.32546 15.869L8.58649 16.0224L8.84746 16.1758L11.3196 16.1921L13.7917 16.2083L13.8079 18.6804L13.8242 21.1525L13.9776 21.4135L14.131 21.6745L14.3564 21.8237L14.5818 21.9729H15H15.4182L15.6436 21.8237L15.869 21.6745L16.0224 21.4135L16.1758 21.1525L16.1921 18.6804L16.2083 16.2083L18.6804 16.1921L21.1525 16.1758L21.4135 16.0224L21.6745 15.869L21.8237 15.6436L21.9729 15.4182V15V14.5818L21.8237 14.3564L21.6745 14.131L21.4135 13.9776L21.1525 13.8242L18.6804 13.8079L16.2083 13.7917L16.1921 11.3196L16.1758 8.84746L16.0224 8.58649L15.869 8.32546L15.6456 8.17763L15.4223 8.02986L15.0608 8.01061L14.6992 7.99136L14.4531 8.12283Z" fill="#82858F"/>
</svg>
