<svg width="20" height="20" viewBox="0 0 20 20" fill="none" xmlns="http://www.w3.org/2000/svg">
<path fill-rule="evenodd" clip-rule="evenodd" d="M6.15492 2.03624L6.06935 2.06201L5.96167 2.12855L5.85396 2.1951L5.77358 2.35639L5.69317 2.51772V2.88346V3.24917L5.10676 3.26399L4.52035 3.27881L4.28579 3.34776L4.05122 3.41671L3.7973 3.53564L3.54337 3.65453L3.35647 3.78145L3.16957 3.90835L2.99262 4.07005L2.81563 4.23178L2.62801 4.48073L2.44039 4.7297L2.31253 4.99754L2.18468 5.2654L2.10164 5.56619L2.01861 5.86701L2.00929 10.4482L2 15.0293L2.03321 15.283L2.06643 15.5367L2.11319 15.7162L2.15997 15.8957L2.2588 16.1331L2.35766 16.3706L2.53768 16.6396L2.71771 16.9088L2.9624 17.1425L3.20707 17.3762L3.44151 17.5222L3.67592 17.6681L3.90191 17.7641L4.12788 17.8601L4.40232 17.93L4.67673 18H10.0092H15.3416L15.6186 17.9295L15.8956 17.8589L16.1122 17.7679L16.3287 17.6769L16.57 17.5266L16.8113 17.3762L17.0559 17.1425L17.3006 16.9088L17.4806 16.6396L17.6607 16.3706L17.7601 16.1317L17.8596 15.8928L17.9298 15.6174L18 15.342V10.6045V5.86701L17.9161 5.56344L17.8323 5.25986L17.6983 4.98584L17.5645 4.71182L17.3836 4.47178L17.2027 4.23178L17.0257 4.07005L16.8488 3.90835L16.6738 3.78965L16.4988 3.67091L16.2732 3.55743L16.0477 3.44395L15.7728 3.36146L15.498 3.27894L14.9116 3.26368L14.3252 3.24838V2.88305V2.51772L14.2439 2.35476L14.1627 2.19181L14.0328 2.11642L13.9029 2.04103L13.7906 2.02051L13.6783 2L13.541 2.03699L13.4036 2.07395L13.2737 2.20382L13.1439 2.33366L13.1092 2.45861L13.0745 2.5836L13.0743 2.91976L13.0741 3.25592H10.0092H6.94418L6.944 2.91976L6.94384 2.5836L6.90913 2.45861L6.87444 2.33366L6.74502 2.20423L6.61558 2.07483L6.4906 2.04015L6.36559 2.00544L6.30304 2.00797L6.24049 2.01048L6.15492 2.03624ZM5.69336 5.12434L5.69352 5.7732L5.72582 5.8895L5.75813 6.00579L5.84164 6.10501L5.92514 6.20427L6.05156 6.26165L6.17794 6.31906H6.31868H6.45942L6.58815 6.26062L6.71688 6.20217L6.79494 6.09713L6.873 5.9921L6.90859 5.88581L6.94418 5.77952V5.1275V4.47547H10.0092H13.0741V5.1275V5.77952L13.1097 5.88581L13.1453 5.9921L13.2234 6.09713L13.3015 6.20217L13.4302 6.26062L13.5589 6.31906H13.6996H13.8404L13.9668 6.26165L14.0932 6.20427L14.1767 6.10501L14.2602 6.00579L14.2925 5.8895L14.3248 5.7732L14.325 5.12009L14.3252 4.46697L14.7865 4.48392L15.2478 4.50083L15.4198 4.55371L15.5918 4.60659L15.8074 4.71926L16.023 4.83193L16.214 5.0243L16.405 5.21665L16.5121 5.39608L16.6192 5.57548L16.6919 5.82643L16.7646 6.07737V6.51159V6.94585H10.0092H3.2537V6.51159V6.07737L3.32638 5.82643L3.3991 5.57548L3.50622 5.39608L3.61337 5.21665L3.80433 5.0243L3.9953 4.83193L4.21091 4.71904L4.42652 4.60615L4.59854 4.55793L4.77055 4.50971L4.86438 4.4973L4.9582 4.48485L5.32569 4.48016L5.69317 4.47547L5.69336 5.12434ZM16.7646 11.6505V15.1357L16.7305 15.3014L16.6964 15.4671L16.571 15.7297L16.4456 15.9924L16.222 16.2146L15.9984 16.4368L15.8049 16.539L15.6114 16.6413L15.3699 16.7031L15.1283 16.7648H10.0092H4.89002L4.64845 16.7031L4.40688 16.6413L4.21341 16.539L4.01995 16.4368L3.79636 16.2146L3.57277 15.9924L3.44733 15.7297L3.32188 15.4671L3.28779 15.3014L3.2537 15.1357V11.6505V8.1654H10.0092H16.7646V11.6505ZM5.4922 10.0558L5.36941 10.1006L5.26182 10.2082L5.15424 10.3157L5.1127 10.4758L5.0712 10.6358L5.11358 10.7991L5.15593 10.9624L5.28031 11.0784L5.40466 11.1943L5.53642 11.2298L5.66818 11.2653L6.39218 11.2554L7.1162 11.2456L7.22235 11.183L7.3285 11.1205L7.42564 11.0003L7.52278 10.8801V10.6358V10.3914L7.42564 10.2713L7.3285 10.1511L7.22235 10.0885L7.1162 10.026L6.36559 10.0185L5.61499 10.0111L5.4922 10.0558ZM9.18465 10.0562L9.06387 10.0992L8.97076 10.1877L8.87765 10.2762L8.82849 10.37L8.77933 10.4638V10.6358V10.8078L8.82968 10.9048L8.88006 11.0017L8.99028 11.0985L9.10046 11.1952L9.21862 11.228L9.33674 11.2608H10.0092H10.6816L10.7979 11.2285L10.9142 11.1962L11.0104 11.1153L11.1066 11.0344L11.1677 10.9145L11.2289 10.7946V10.6358V10.4769L11.1677 10.357L11.1066 10.2371L11.0104 10.1562L10.9142 10.0753L10.7979 10.043L10.6816 10.0107L9.99353 10.0119L9.30547 10.0131L9.18465 10.0562ZM12.8709 10.057L12.7458 10.1008L12.6293 10.2307L12.5129 10.3605L12.4926 10.4686L12.4723 10.5767L12.4873 10.7326L12.5022 10.8884L12.596 11.0044L12.6898 11.1205L12.796 11.183L12.9021 11.2456L13.6262 11.2554L14.3501 11.2653L14.4819 11.2298L14.6137 11.1943L14.738 11.0784L14.8624 10.9624L14.9047 10.7991L14.9471 10.6358L14.9047 10.4725L14.8624 10.3092L14.7385 10.1936L14.6145 10.078L14.4933 10.0444L14.3721 10.0107L13.684 10.0119L12.996 10.0131L12.8709 10.057ZM5.45861 13.7596L5.33351 13.8175L5.2434 13.9134L5.15327 14.0094L5.11224 14.1675L5.0712 14.3257L5.11358 14.489L5.15593 14.6523L5.27987 14.7679L5.40378 14.8834L5.52501 14.9171L5.64626 14.9508H6.31868H6.9911L7.10741 14.9185L7.22372 14.8862L7.3199 14.8053L7.41607 14.7243L7.48056 14.598L7.54505 14.4716L7.5325 14.2747L7.51996 14.0779L7.42573 13.9594L7.3315 13.841L7.19376 13.7707L7.05603 13.7003L6.31987 13.701L5.58371 13.7017L5.45861 13.7596ZM9.16473 13.7501L9.05527 13.7975L8.96648 13.8818L8.87765 13.9661L8.83772 14.0443L8.79778 14.1224L8.77776 14.2333L8.75771 14.3442L8.80503 14.5034L8.85232 14.6627L8.97548 14.774L9.09865 14.8852L9.22866 14.9202L9.35867 14.9552L10.0879 14.9454L10.8171 14.9355L10.9524 14.8404L11.0876 14.7453L11.1577 14.6215L11.2279 14.4977L11.2284 14.3323L11.2289 14.1669L11.1694 14.0508L11.1099 13.9348L11.0361 13.866L10.9622 13.7971L10.8463 13.7487L10.7305 13.7003L10.0023 13.7015L9.27419 13.7027L9.16473 13.7501ZM12.8246 13.7707L12.6868 13.841L12.5926 13.9594L12.4984 14.0779L12.4858 14.2747L12.4733 14.4716L12.5378 14.598L12.6023 14.7243L12.6984 14.8053L12.7946 14.8862L12.9109 14.9185L13.0272 14.9508H13.6996H14.3721L14.4933 14.9171L14.6145 14.8834L14.7385 14.7679L14.8624 14.6523L14.9047 14.489L14.9471 14.3257L14.9061 14.1675L14.8651 14.0094L14.7749 13.9134L14.6848 13.8175L14.5597 13.7596L14.4346 13.7017L13.6985 13.701L12.9623 13.7003L12.8246 13.7707Z" fill="#82858F"/>
</svg>
