<svg width="20" height="20" viewBox="0 0 20 20" fill="none" xmlns="http://www.w3.org/2000/svg">
<path fill-rule="evenodd" clip-rule="evenodd" d="M13.6294 1.05107L13.3628 1.10215L13.0739 1.20852L12.7849 1.31489L12.539 1.45978L12.2931 1.60467L8.22302 5.70431L4.15294 9.80391L4.00074 10.0331L3.84854 10.2623L3.77962 10.4387L3.71069 10.6151L3.35629 12.3186L3.00192 14.0221L3.00094 14.3086L3 14.595L3.05885 14.8007L3.11767 15.0063L3.22785 15.2168L3.33799 15.4274L3.53473 15.6232L3.73143 15.8191L3.95471 15.93L4.17796 16.0409L4.40261 16.0943L4.62725 16.1477L4.76663 16.148L4.90601 16.1483L6.71264 15.7835L8.51927 15.4186L8.82074 15.2699L9.12222 15.1212L13.107 11.1092L17.0919 7.09725L17.3026 6.83362L17.5133 6.56998L17.6644 6.25362L17.8156 5.93726L17.8869 5.65605L17.9582 5.37484L17.9791 5.03823L18 4.70162L17.9578 4.4055L17.9156 4.10939L17.8116 3.79302L17.7075 3.47666L17.6 3.28333L17.4925 3.09L17.345 2.89624L17.1975 2.70249L16.6792 2.17198L16.1609 1.64151L15.9543 1.50727L15.7477 1.37303L15.5094 1.27204L15.2712 1.17108L15.0017 1.09987L14.7322 1.02865L14.3141 1.01431L13.896 1L13.6294 1.05107ZM14.7029 2.90046L14.9064 2.976L15.4708 3.54296L16.035 4.10995L16.1275 4.31379L16.2201 4.51763L16.2577 4.73912L16.2953 4.96061L16.2362 5.20214L16.1771 5.4437L16.0707 5.62016L15.9643 5.79665L12.0031 9.81133L8.04203 13.826L6.41451 14.0983L4.78698 14.3707L4.77109 14.3546L4.75523 14.3384L5.06974 12.7039L5.38425 11.0694L9.3576 7.05704L13.3309 3.04476L13.4915 2.96377L13.652 2.88278L13.8263 2.83775L14.0005 2.79269L14.2499 2.80882L14.4993 2.82492L14.7029 2.90046ZM3.59912 17.3062L3.51176 17.3332L3.40747 17.3879L3.30315 17.4427L3.22883 17.5251L3.1545 17.6075L3.0914 17.7305L3.02829 17.8536L3.02634 18.1172L3.02439 18.3808L3.12255 18.5493L3.22071 18.7177L3.36033 18.8198L3.49995 18.9218L3.68031 18.9609L3.86067 19L10.5509 18.9892L17.241 18.9784L17.4195 18.8835L17.5978 18.7885L17.6948 18.6726L17.7917 18.5566L17.8387 18.4435L17.8857 18.3304L17.8849 18.1447L17.8841 17.959L17.8132 17.8008L17.7422 17.6427L17.6484 17.5428L17.5546 17.4429L17.4153 17.367L17.2759 17.2912L10.4812 17.2852L3.68644 17.2793L3.59912 17.3062Z" fill="#D1D4DB"/>
</svg>
