<svg width="20" height="20" viewBox="0 0 20 20" fill="none" xmlns="http://www.w3.org/2000/svg">
<path fill-rule="evenodd" clip-rule="evenodd" d="M9.42969 0.0831696L9.25112 0.16442L9.20094 0.227321L9.15076 0.290179L6.59571 5.03732L4.04071 9.78446L4.02036 9.94804L4 10.1116L4.10326 10.3125L4.20647 10.5134L4.40567 10.6138L4.60487 10.7143H6.31897H8.03312L8.00232 10.8371L7.97156 10.9598L6.69701 15.0446L5.42241 19.1295L5.42424 19.3185L5.42607 19.5076L5.52107 19.6613L5.61607 19.8151L5.80705 19.9075L5.99804 20H6.11696H6.23594L6.41754 19.9273L6.59915 19.8546L11.6528 13.7209L16.7065 7.58723L16.7906 7.39281L16.8747 7.19844L16.8462 7.0479L16.8178 6.89732L16.7306 6.75442L16.6434 6.61147L16.4964 6.53121L16.3493 6.45089L14.3587 6.42857L12.3682 6.40625L13.8768 3.68304L15.3854 0.959821L15.4139 0.791161L15.4424 0.6225L15.3379 0.411696L15.2333 0.200893L15.0341 0.100446L14.8349 0L12.2216 0.000982114L9.60826 0.00196423L9.42969 0.0831696ZM13.4342 1.57366L13.3467 1.71875L11.9083 4.32013L10.47 6.92147L10.4493 7.08799L10.4286 7.25446L10.5318 7.45433L10.635 7.6542L10.7913 7.74451L10.9475 7.83482L12.7855 7.85714L14.6235 7.87946L11.2693 11.9511L7.91518 16.0227L7.90554 16.013L7.89589 16.0034L8.80634 13.0575L9.71683 10.1116L9.71835 9.9983L9.71987 9.885L9.61942 9.6858L9.51897 9.48661L9.31978 9.38616L9.12058 9.28571H7.5192H5.91777L5.93268 9.24536L5.94754 9.205L8.04446 5.31679L10.1414 1.42857H11.8316H13.5218L13.4342 1.57366Z" fill="#82858F"/>
</svg>
