<svg width="20" height="20" viewBox="0 0 20 20" fill="none" xmlns="http://www.w3.org/2000/svg">
<path fill-rule="evenodd" clip-rule="evenodd" d="M9.50545 1.03548L9.27976 1.07095L8.92642 1.16723L8.57305 1.2635L8.42421 1.32495L8.27534 1.38644L7.96885 1.53976L7.66237 1.69304L7.47082 1.8285L7.27926 1.96397L7.01508 2.17839L6.75089 2.39278L6.49467 2.69991L6.23844 3.00705L6.11727 3.18615L5.99613 3.36525L5.82557 3.70346L5.65498 4.0417L5.5425 4.38638L5.43005 4.73102L5.36814 5.09214L5.30627 5.45325V5.89949V6.34573L5.36788 6.70685L5.42944 7.06796L5.52292 7.36537L5.6164 7.66273L5.73121 7.91865L5.84603 8.17456L5.98502 8.40665L6.12405 8.63869L6.36525 8.95054L6.60646 9.26243L6.87731 9.50964L7.14817 9.75686L6.63906 10.0078L6.12995 10.2586L5.72769 10.5245L5.32543 10.7903L5.0381 11.0225L4.75077 11.2546L4.34583 11.6707L3.94089 12.0866L3.67287 12.4506L3.40485 12.8145L3.22758 13.1019L3.05032 13.3892L2.83896 13.8298L2.62756 14.2703L2.4962 14.6343L2.36483 14.9982L2.26702 15.4005L2.16918 15.8028L2.1088 16.205L2.04842 16.6073L2.02421 17.3749L2 18.1425L2.04712 18.3388L2.09421 18.5352L2.23274 18.697L2.37123 18.8589L2.52662 18.9294L2.682 19H10.21H17.738L17.8934 18.9294L18.0488 18.8589L18.1873 18.697L18.3258 18.5352L18.373 18.3388L18.42 18.1425L18.3968 17.3911L18.3735 16.6398L18.3122 16.2213L18.2509 15.8028L18.1534 15.4005L18.0559 14.9982L17.9021 14.5768L17.7483 14.1554L17.5057 13.6765L17.2631 13.1976L17.0342 12.8528L16.8054 12.5081L16.5578 12.2016L16.3101 11.8951L15.8939 11.4912L15.4777 11.0874L15.1605 10.8469L14.8433 10.6065L14.5284 10.4109L14.2135 10.2154L13.7447 9.9886L13.276 9.7618L13.5824 9.47356L13.8888 9.18531L14.116 8.88377L14.3432 8.58222L14.4838 8.33087L14.6244 8.07951L14.7504 7.78065L14.8765 7.48179L14.9801 7.08333L15.0837 6.68486L15.103 6.07189L15.1222 5.45892L15.0613 5.10892L15.0004 4.75895L14.8998 4.43848L14.7992 4.11805L14.6684 3.83314L14.5375 3.54822L14.281 3.1627L14.0244 2.77719L13.6784 2.43113L13.3323 2.08507L12.9469 1.82862L12.5616 1.57221L12.3062 1.45643L12.0508 1.34062L11.7654 1.2448L11.4799 1.14899L11.2185 1.08995L10.9571 1.03092L10.3441 1.01544L9.73114 1L9.50545 1.03548ZM11.0123 2.76186L11.3019 2.83542L11.6158 2.98548L11.9297 3.13554L12.133 3.28599L12.3363 3.43643L12.5914 3.70725L12.8465 3.97807L13.0016 4.23961L13.1567 4.50116L13.2519 4.75497L13.3472 5.00877L13.4115 5.34878L13.4758 5.68878L13.4533 6.07189L13.4307 6.45499L13.3676 6.70401L13.3044 6.95303L13.1564 7.27269L13.0083 7.59232L12.8397 7.8282L12.6712 8.06404L12.4606 8.26283L12.25 8.46162L11.9594 8.65137L11.6687 8.84113L11.3512 8.95548L11.0337 9.06984L10.7599 9.1183L10.4862 9.16673L10.032 9.14638L9.57789 9.126L9.25226 9.02268L8.92662 8.91932L8.68028 8.78554L8.43394 8.65172L8.22055 8.48729L8.00716 8.3229L7.83316 8.13598L7.65919 7.9491L7.53468 7.76747L7.41017 7.58588L7.25685 7.26637L7.10353 6.94686L7.0291 6.58602L6.95462 6.22513V5.91865V5.61216L7.0263 5.26488L7.09798 4.91759L7.2123 4.64551L7.32662 4.37343L7.50453 4.10579L7.68244 3.8382L8.00077 3.53757L8.31909 3.23691L8.66116 3.05823L9.00324 2.87955L9.27375 2.7981L9.54422 2.71666L9.79094 2.68264L10.0376 2.64865L10.3802 2.66846L10.7228 2.68831L11.0123 2.76186ZM11.4894 10.955L11.8684 11.0369L12.2364 11.1542L12.6044 11.2715L13.0053 11.46L13.4062 11.6485L13.8482 11.9411L14.2901 12.2338L14.8103 12.754L15.3306 13.2743L15.6223 13.7149L15.9141 14.1555L16.0865 14.5194L16.2588 14.8833L16.3929 15.2856L16.5269 15.6878L16.6089 16.0901L16.6908 16.4923L16.7125 16.9233L16.7342 17.3543H10.21H3.68585L3.70754 16.9233L3.72922 16.4923L3.81117 16.0901L3.89311 15.6878L4.02636 15.2856L4.15964 14.8833L4.34866 14.4945L4.53769 14.1056L4.81437 13.6899L5.09105 13.2743L5.6105 12.756L6.12995 12.2378L6.47474 12.004L6.81954 11.7701L7.18349 11.5775L7.54744 11.385L7.91139 11.2505L8.27534 11.116L8.59822 11.0336L8.92114 10.9513L9.2495 10.8978L9.57789 10.8443L10.3441 10.8587L11.1103 10.8731L11.4894 10.955Z" fill="#82858F"/>
</svg>
