<svg width="20" height="20" viewBox="0 0 20 20" fill="none" xmlns="http://www.w3.org/2000/svg">
<g clip-path="url(#clip0_591_10267)">
<path fill-rule="evenodd" clip-rule="evenodd" d="M17.6055 0.0461116L16.9391 0.0798517L16.2727 0.147457L15.6063 0.215062L15.1063 0.296414L14.6064 0.377765L14.0441 0.502895L13.4817 0.628025L12.8738 0.830716L12.2658 1.03341L11.8308 1.2386L11.3958 1.44379L10.9969 1.69451L10.598 1.94522L10.3112 2.17441L10.0244 2.40359L9.70571 2.70163L9.38701 2.99967L9.03478 3.40551L8.68259 3.81139L8.35823 4.22793L8.03391 4.64448L6.86312 4.66943L5.69234 4.69442L5.40076 4.76119L5.10918 4.82797L4.84046 4.91698L4.57175 5.00604L4.23647 5.17374L3.9012 5.34144L3.63044 5.53068L3.35969 5.71996L2.07889 6.99259L0.798101 8.26526L0.730537 8.44208L0.663015 8.6189L0.688966 8.75607L0.714875 8.89324L0.796226 9.02658L0.877577 9.15995L1.01479 9.23485L1.152 9.30978L3.09243 9.33061L5.03287 9.35144L4.63906 10.0596L4.2453 10.7677L3.7921 11.6495L3.33886 12.5312L3.33978 12.6492L3.34069 12.7671L3.41884 12.9337L3.49698 13.1003L5.21948 14.8171L6.94198 16.5339L7.09685 16.5979L7.25172 16.6618H7.36056H7.46945L8.35119 16.2086L9.23297 15.7554L9.9411 15.3616L10.6492 14.9678L10.6701 16.9082L10.6909 18.8487L10.7658 18.9859L10.8407 19.1231L10.9741 19.2044L11.1074 19.2858L11.2446 19.3117L11.3818 19.3377L11.5586 19.2701L11.7354 19.2026L13.0081 17.9218L14.2807 16.641L14.4752 16.3645L14.6696 16.088L14.8751 15.6564L15.0806 15.2247L15.1663 14.8915L15.252 14.5583L15.2924 14.2458L15.3328 13.9334L15.3341 12.9546L15.3354 11.9757L15.6999 11.6988L16.0643 11.422L16.5276 11.0238L16.9908 10.6257L17.3134 10.2801L17.6359 9.9346L17.8839 9.61053L18.1318 9.2865L18.3447 8.94406L18.5575 8.60166L18.7553 8.18328L18.9531 7.76486L19.1254 7.26688L19.2977 6.76886L19.4393 6.19436L19.581 5.61982L19.6862 4.98638L19.7914 4.3529L19.8539 3.72808L19.9164 3.10326L19.9585 2.22852L20.0005 1.35377L20.0006 0.956471L20.0007 0.55917L19.9069 0.373308L19.8132 0.187445L19.6274 0.0937227L19.4415 0L18.8567 0.00620653L18.272 0.0123714L17.6055 0.0461116ZM18.6673 1.55163L18.6669 1.77032L18.6257 2.47844L18.5845 3.18657L18.5202 3.76973L18.4559 4.3529L18.3718 4.85275L18.2877 5.35261L18.1891 5.76915L18.0905 6.1857L17.981 6.53118L17.8715 6.87662L17.6856 7.32045L17.4996 7.76424L17.3042 8.09751L17.1089 8.43075L16.867 8.75695L16.6252 9.08314L16.3037 9.41967L15.9821 9.7562L15.5234 10.1417L15.0646 10.5271L14.6064 10.87L14.1482 11.2129L13.4193 11.7032L12.6903 12.1934L12.0863 12.5682L11.4823 12.943L11.0241 13.2137L10.5659 13.4844L9.98275 13.8173L9.39959 14.15L8.58733 14.5898L7.77507 15.0296L7.6172 15.1044L7.45932 15.1792L6.14887 13.8693L4.83842 12.5593V12.5199V12.4805L5.24014 11.7282L5.64185 10.976L6.07777 10.2054L6.51368 9.43475L7.03953 8.56L7.56538 7.68526L8.17557 6.76886L8.78573 5.85246L9.12967 5.39426L9.47357 4.93606L9.859 4.47728L10.2445 4.01854L10.5718 3.70629L10.8992 3.39405L11.1569 3.19615L11.4146 2.99825L11.7609 2.7834L12.1071 2.56854L12.4195 2.42479L12.732 2.281L13.1717 2.12292L13.6114 1.96484L14.1298 1.83759L14.6481 1.71033L15.2937 1.60695L15.9394 1.5036L16.4184 1.45658L16.8974 1.40955L17.4389 1.37743L17.9804 1.34532L18.3241 1.33915L18.6677 1.33294L18.6673 1.55163ZM12.8153 4.05757L12.5653 4.11522L12.3495 4.19773L12.1336 4.28025L11.8441 4.47274L11.5546 4.66518L11.4004 4.83584L11.2463 5.00646L11.0827 5.25959L10.9191 5.51268L10.8081 5.84921L10.6971 6.1857V6.66472V7.14375L10.8081 7.48023L10.9191 7.81676L11.0872 8.07685L11.2553 8.33698L11.4595 8.54118L11.6637 8.74532L11.9238 8.91344L12.1839 9.08156L12.5204 9.19257L12.8569 9.30358H13.3359H13.815L14.1515 9.19257L14.488 9.08156L14.7481 8.91344L15.0082 8.74532L15.2124 8.54118L15.4165 8.33698L15.5847 8.07685L15.7528 7.81676L15.8638 7.48023L15.9748 7.14375V6.66472V6.1857L15.8638 5.84921L15.7528 5.51268L15.5847 5.25259L15.4165 4.99246L15.2124 4.78827L15.0082 4.58412L14.7481 4.416L14.488 4.24789L14.1515 4.14088L13.815 4.03386L13.4401 4.01687L13.0652 3.99988L12.8153 4.05757ZM13.8856 5.44666L14.0813 5.53339L14.2743 5.72641L14.4673 5.9194L14.5573 6.11505L14.6472 6.31066L14.6476 6.66472L14.6481 7.01879L14.5461 7.22598L14.4442 7.43317L14.2627 7.61461L14.0813 7.79606L13.8856 7.88603L13.69 7.97601H13.3359H12.9819L12.7863 7.88603L12.5906 7.79606L12.3976 7.60303L12.2046 7.41005L12.1192 7.21698L12.0338 7.02387L12.0133 6.7684L11.9928 6.51293L12.0594 6.28363L12.1261 6.05432L12.2677 5.86891L12.4093 5.68347L12.5778 5.56667L12.7464 5.44983L12.9266 5.39109L13.1068 5.33236L13.3984 5.34615L13.69 5.35994L13.8856 5.44666ZM6.57079 6.8001L6.06069 7.60195L5.94547 7.79981L5.83022 7.99767H4.38722H2.94427L3.52685 7.41121L4.10947 6.8248L4.3594 6.6456L4.60932 6.46641L4.83546 6.35281L5.06161 6.23922L5.23118 6.17799L5.40076 6.11672L5.67151 6.0614L5.94227 6.00608L6.51156 6.00217L7.08085 5.99825L6.57079 6.8001ZM13.9911 13.6618L13.97 14.2667L13.9016 14.5166L13.8332 14.7665L13.6875 15.0752L13.5419 15.3839L13.3589 15.6376L13.1759 15.8912L12.5895 16.4738L12.003 17.0564V15.6185V14.1807L12.8465 13.6529L13.69 13.125L13.8358 13.0234L13.9816 12.9217L13.9969 12.9893L14.0122 13.0569L13.9911 13.6618ZM2.30679 14.7671L2.04536 14.8677L1.82126 15.0164L1.5972 15.1652L1.30649 15.4712L1.01575 15.7773L0.84642 16.0634L0.677052 16.3494L0.551547 16.6456L0.426042 16.9418L0.318324 17.312L0.210605 17.6823L0.13192 18.1405L0.0532761 18.5987L0.0266172 19.0153L0 19.4318L0.0969718 19.6193L0.193943 19.8067L0.381389 19.9034L0.568834 20L0.985379 19.973L1.40192 19.9459L1.86012 19.868L2.31832 19.7901L2.69321 19.6815L3.0681 19.5729L3.42933 19.414L3.79052 19.2551L4.07927 19.0632L4.36798 18.8712L4.66035 18.5635L4.95272 18.2557L5.12309 17.9152L5.2935 17.5748L5.31999 17.4335L5.34652 17.292L5.29579 17.1331L5.24509 16.9742L4.17741 15.897L3.10976 14.8198L2.94314 14.742L2.77652 14.6642L2.67239 14.6653L2.56825 14.6665L2.30679 14.7671ZM3.61345 17.7324L3.34244 17.9906L2.997 18.156L2.65156 18.3214L2.35998 18.4054L2.0684 18.4894L1.74012 18.556L1.41184 18.6225L1.39497 18.6057L1.37814 18.5888L1.4447 18.2605L1.51131 17.9323L1.59524 17.6407L1.67922 17.3491L1.8435 17.006L2.00779 16.6628L2.26405 16.3889L2.52031 16.115L3.20236 16.7945L3.88441 17.4741L3.61345 17.7324Z" fill="#82858F"/>
</g>
<defs>
<clipPath id="clip0_591_10267">
<rect width="20" height="20" fill="white"/>
</clipPath>
</defs>
</svg>
