<svg width="20" height="20" viewBox="0 0 20 20" fill="none" xmlns="http://www.w3.org/2000/svg">
<g clip-path="url(#clip0_591_102620)">
<path fill-rule="evenodd" clip-rule="evenodd" d="M2.03499 0.0315311L1.82284 0.0630205L1.66047 0.115018L1.49809 0.166973L1.22356 0.30932L0.94904 0.451668L0.727572 0.668225L0.506105 0.884824L0.36828 1.09997L0.230456 1.31511L0.115228 1.64074L0 1.96636V3.83826V5.71016L0.101662 6.02043L0.203282 6.33071L0.382554 6.59789L0.561784 6.86512V6.88687V6.90863L0.463659 7.03737L0.365534 7.16607L0.259253 7.37585L0.152972 7.58559L0.0764858 7.83343L0 8.08122V10.0155V11.9498L0.101662 12.2601L0.203282 12.5704L0.382554 12.8375L0.561784 13.1048V13.1265V13.1483L0.463659 13.277L0.365534 13.4057L0.259253 13.6155L0.152972 13.8252L0.0764858 14.0731L0 14.3209V16.172V18.0231L0.0765275 18.2727L0.153013 18.5222L0.284595 18.7716L0.416136 19.021L0.686625 19.2965L0.957113 19.572L1.2591 19.7237L1.56105 19.8755L1.82958 19.9377L2.09812 20L10.1208 19.9891L18.1435 19.9782L18.3904 19.8851L18.6372 19.7919L18.8602 19.6569L19.0831 19.5218L19.3006 19.3044L19.518 19.0871L19.6531 18.8643L19.7882 18.6414L19.8814 18.3946L19.9745 18.1479L19.9869 16.291L19.9993 14.4341L19.9355 14.1591L19.8717 13.8841L19.7496 13.6449L19.6275 13.4057L19.5249 13.2689L19.4223 13.1321L19.5993 12.8682L19.7763 12.6044L19.8738 12.3395L19.9714 12.0746L19.9856 10.1356L19.9998 8.19674L19.9357 7.92057L19.8717 7.64445L19.7496 7.40526L19.6275 7.16607L19.5249 7.02926L19.4223 6.89249L19.5993 6.62859L19.7763 6.36474L19.8737 6.09984L19.9712 5.83495L19.9856 3.97957L20 2.12419L19.934 1.83995L19.8681 1.55575L19.7346 1.28271L19.601 1.00962L19.3092 0.718226L19.0174 0.426834L18.7677 0.295801L18.5181 0.16481L18.2892 0.0880623L18.0603 0.0113562L10.1537 0.00569889L2.24713 0L2.03499 0.0315311ZM17.9891 1.69157L18.1435 1.77031L18.2203 1.85517L18.2971 1.94007L18.3537 2.09881L18.4104 2.25755L18.4113 3.85906L18.4122 5.46057L18.3358 5.62867L18.2594 5.7968L18.1254 5.90949L17.9915 6.02218L17.8802 6.05334L17.769 6.08453H9.96646H2.16391L1.98884 5.99102L1.81377 5.89747L1.70795 5.71698L1.60212 5.53644V3.84292V2.14944L1.66084 2.03708L1.71952 1.92477L1.8377 1.81595L1.95584 1.70713L2.03907 1.6612L2.12229 1.61532L9.97853 1.61403L17.8348 1.61278L17.9891 1.69157ZM3.12884 3.05394L3.10021 3.08255V3.86601V4.64941H3.91259H4.72493L4.71366 3.84866L4.70234 3.0479L3.92991 3.03663L3.15747 3.02532L3.12884 3.05394ZM6.24986 3.05394L6.22123 3.08255V3.86601V4.64941H7.03362H7.84595L7.83468 3.84866L7.82336 3.0479L7.05093 3.03663L6.2785 3.02532L6.24986 3.05394ZM17.9875 7.77427L18.1698 7.8625L18.2815 8.03114L18.3932 8.19982L18.4054 9.92899L18.4176 11.6582L18.3507 11.8333L18.2838 12.0083L18.1401 12.1345L17.9963 12.2606L17.8827 12.2924L17.769 12.3242H9.96646H2.16391L1.98884 12.2307L1.81377 12.1371L1.70795 11.9566L1.60212 11.7761V10.0209V8.26575L1.65918 8.13189L1.71623 7.99803L1.81523 7.90951L1.91423 7.82095L2.03907 7.75518L2.16391 7.68937L9.98452 7.68771L17.8052 7.68605L17.9875 7.77427ZM3.10021 9.97392V10.7643H3.91168H4.72314V9.97392V9.18356H3.91168H3.10021V9.97392ZM6.22123 9.97392V10.7643H7.0327H7.84417V9.97392V9.18356H7.0327H6.22123V9.97392ZM17.9875 14.0139L18.1698 14.1022L18.2815 14.2708L18.3932 14.4394L18.4054 16.0852L18.4177 17.731L18.3507 17.9063L18.2838 18.0816L18.1415 18.2064L17.9993 18.3313L17.8425 18.3766L17.6858 18.422L9.901 18.4097L2.11622 18.3974L1.94323 18.283L1.77024 18.1686L1.68618 18.0039L1.60212 17.8392V16.1723V14.5054L1.65918 14.3715L1.71623 14.2377L1.81523 14.1492L1.91423 14.0606L2.03907 13.9948L2.16391 13.929L9.98452 13.9274L17.8052 13.9257L17.9875 14.0139ZM3.10021 16.172V16.9623H3.91168H4.72314V16.172V15.3816H3.91168H3.10021V16.172ZM6.22123 16.172V16.9623H7.0327H7.84417V16.172V15.3816H7.0327H6.22123V16.172Z" fill="#82858F"/>
</g>
<defs>
<clipPath id="clip0_591_102620">
<rect width="20" height="20" fill="white"/>
</clipPath>
</defs>
</svg>
