<svg width="20" height="20" viewBox="0 0 20 20" fill="none" xmlns="http://www.w3.org/2000/svg">
<path fill-rule="evenodd" clip-rule="evenodd" d="M11.1511 3.05468L11.0418 3.10933L10.9753 3.21181L10.9089 3.31426L8.49169 7.15368L6.07447 10.9931L6.03725 11.081L6 11.169V11.2295V11.2901L6.05629 11.4064L6.11259 11.5227L6.22889 11.579L6.34517 11.6353H8.01716H9.68912V11.6511V11.6668L9.06987 14.1239L8.45062 16.5809L8.48231 16.6867L8.51401 16.7925L8.5861 16.8646L8.65822 16.9367L8.76375 16.9684L8.86932 17L8.97294 16.969L9.07654 16.9379L9.14882 16.8621L9.2211 16.7864L11.6723 12.8923L14.1236 8.99824L14.1608 8.9103L14.198 8.82236V8.76181V8.70122L14.1418 8.58495L14.0855 8.46865L13.9692 8.41235L13.8529 8.35606H12.1809H10.5089V8.33969V8.32332L11.1238 5.88448L11.7386 3.44565V3.39542V3.34517L11.6823 3.22889L11.626 3.11259L11.5097 3.05629L11.3935 3L11.3269 3.00003L11.2604 3.00005L11.1511 3.05468Z" fill="#FEDA2C"/>
</svg>
