<svg width="20" height="20" viewBox="0 0 20 20" fill="none" xmlns="http://www.w3.org/2000/svg">
<g clip-path="url(#clip0_586_9693)">
<path fill-rule="evenodd" clip-rule="evenodd" d="M3.4735 0.0321957L3.22885 0.0643914L2.92626 0.147264L2.62364 0.230137L2.30517 0.37912L1.98669 0.528103L1.73695 0.695489L1.4872 0.862875L1.15311 1.19859L0.818984 1.53433L0.631235 1.8359L0.443446 2.1375L0.329591 2.40807L0.215697 2.67865L0.12736 3.02471L0.0390625 3.37074V9.64186V15.913L0.124033 16.2683L0.209043 16.6236L0.341685 16.9761L0.474327 17.3287L0.648104 17.6319L0.821841 17.9352L1.07879 18.2526L1.33574 18.5699L1.65558 18.8454L1.97542 19.1209L2.2836 19.304L2.59182 19.487L2.86576 19.6033L3.13969 19.7197L3.47229 19.8159L3.80489 19.9122L4.19202 19.9561L4.57918 20L10.6457 19.9861L16.7123 19.9723L16.9758 19.9068L17.2393 19.8412L17.5433 19.724L17.8473 19.6068L18.1408 19.4336L18.4344 19.2604L18.6781 19.0519L18.9219 18.8434L19.1218 18.609L19.3216 18.3745L19.4951 18.0815L19.6687 17.7885L19.7813 17.4954L19.8939 17.2024L19.9665 16.8898L20.0391 16.5772L20.0388 13.0802L20.0385 9.58325L19.9347 9.20742L19.8309 8.83158L19.6931 8.53373L19.5552 8.23588L19.3721 7.96351L19.1891 7.69113L18.8918 7.39434L18.5945 7.09754L18.3308 6.92254L18.0671 6.74749L17.7661 6.60871L17.4652 6.46988L17.0887 6.36642L16.7123 6.26292L10.0782 6.24284L3.44415 6.22275L3.26803 6.1609L3.0919 6.09909L2.87026 5.99031L2.64857 5.88153L2.47253 5.7363L2.29648 5.59107L2.13476 5.40454L1.97307 5.21804L1.84251 4.9586L1.7119 4.6992L1.64282 4.4144L1.57374 4.12964L1.59562 3.76971L1.6175 3.40981L1.71198 3.15115L1.80646 2.89253L1.91738 2.70182L2.02826 2.51115L2.28634 2.25717L2.54439 2.0032L2.78779 1.87446L3.0312 1.74572L3.25726 1.65956L3.48329 1.57341L9.92165 1.56172L16.36 1.55008L16.5948 1.5938L16.8297 1.63749L17.1535 1.7926L17.4773 1.94772L17.7406 2.1963L18.0038 2.44492L18.136 2.66396L18.2682 2.883L18.3668 3.14638L18.4655 3.40981L18.4898 4.17172L18.5141 4.93364L18.5874 5.08235L18.6606 5.23109L18.7824 5.32116L18.904 5.41126L19.0371 5.45572L19.1701 5.50019H19.2936H19.417L19.621 5.39871L19.8249 5.29728L19.932 5.11544L20.0391 4.93364L20.0348 4.13265L20.0305 3.33167L19.9307 2.95583L19.8309 2.57999L19.6964 2.28937L19.5619 1.99879L19.4249 1.78608L19.2878 1.57341L19.0849 1.33503L18.882 1.09668L18.6348 0.896399L18.3875 0.696114L18.1174 0.538262L17.8473 0.38037L17.5433 0.263075L17.2393 0.145779L16.9758 0.0802157L16.7123 0.0146131L10.2152 0.00730654L3.71812 0L3.4735 0.0321957ZM3.72846 3.15568L3.62137 3.18788L3.49213 3.26759L3.3629 3.34733L3.26767 3.51535L3.17245 3.68332L3.17347 3.89822L3.17444 4.11311L3.25949 4.27589L3.34454 4.43867L3.45303 4.51411L3.56157 4.58956L3.6946 4.63461L3.82763 4.67966H10.0568H16.2859L16.4899 4.57819L16.6938 4.47676L16.7931 4.30766L16.8923 4.13859L16.9137 4.00723L16.935 3.87587L16.8882 3.70211L16.8413 3.52836L16.6788 3.36613L16.5163 3.2039L16.3599 3.16057L16.2034 3.1172L10.0195 3.12036L3.83554 3.12349L3.72846 3.15568ZM2.30215 7.43427L2.66137 7.60248L2.99405 7.69355L3.32673 7.78459L9.98035 7.80479L16.634 7.82499L16.8979 7.92748L17.1617 8.02997L17.3811 8.16192L17.6005 8.29386L17.8461 8.55307L18.0917 8.81228L18.231 9.09016L18.3703 9.36808L18.4332 9.65147L18.4961 9.93491L18.4848 13.2561L18.4735 16.5772L18.3708 16.8406L18.2682 17.104L18.136 17.3231L18.0038 17.5421L17.7406 17.7907L17.4773 18.0393L17.1535 18.1944L16.8297 18.3495L16.5948 18.3933L16.36 18.437L10.2543 18.4243L4.14865 18.4116L3.91382 18.3416L3.67898 18.2716L3.36282 18.1201L3.04669 17.9686L2.7672 17.7503L2.48775 17.532L2.26908 17.253L2.05041 16.974L1.89867 16.6584L1.74693 16.3428L1.67703 16.1083L1.60713 15.8739L1.59511 11.4464L1.58309 7.01893L1.76302 7.14248L1.94294 7.26606L2.30215 7.43427ZM15.6638 12.1959L15.4765 12.2483L15.3314 12.3656L15.1862 12.4829L15.0899 12.6697L14.9936 12.8565V13.1193V13.3821L15.0919 13.5727L15.1901 13.7633L15.3534 13.8876L15.5167 14.012L15.734 14.0605L15.9512 14.1091L16.1484 14.0636L16.3456 14.0181L16.5108 13.9047L16.676 13.7912L16.7824 13.5961L16.8887 13.4011L16.9122 13.2305L16.9356 13.0599L16.8934 12.9034L16.8512 12.7469L16.7397 12.5717L16.6283 12.3965L16.427 12.2873L16.2258 12.1782L16.0385 12.1608L15.8512 12.1434L15.6638 12.1959Z" fill="#D1D4DB"/>
</g>
<defs>
<clipPath id="clip0_586_9693">
<rect width="20" height="20" fill="white"/>
</clipPath>
</defs>
</svg>
